<svg width="467" height="371" viewBox="0 0 467 371" fill="none" xmlns="http://www.w3.org/2000/svg">
<g clip-path="url(#clip0)">
<path d="M348.365 366.544C341.901 361.083 337.974 352.456 339.004 344.058C340.034 335.66 346.411 327.939 354.684 326.156C362.956 324.373 372.387 329.309 374.899 337.389C376.282 321.812 377.876 305.582 386.159 292.317C393.659 280.306 406.65 271.712 420.729 270.174C434.808 268.636 449.632 274.444 458.412 285.554C467.193 296.664 469.343 312.816 463.193 325.571C458.663 334.967 450.317 341.96 441.572 347.649C413.314 365.878 379.422 373.291 346.132 368.524" fill="#FA7998"/>
<path d="M444.49 274.766C432.873 284.226 422.216 294.806 412.672 306.354C397.736 324.364 385.65 344.557 376.835 366.229C376.189 367.81 378.757 368.499 379.395 366.935C393.819 331.714 416.845 300.67 446.368 276.643C447.693 275.564 445.805 273.695 444.49 274.766Z" fill="white"/>
<path d="M114.176 370.281H77.5161C76.2773 370.28 75.0897 369.787 74.2138 368.912C73.3379 368.036 72.8452 366.848 72.8438 365.61V289.431C72.8452 288.193 73.3379 287.005 74.2138 286.129C75.0897 285.254 76.2773 284.761 77.5161 284.76H114.176C115.415 284.761 116.602 285.254 117.478 286.129C118.354 287.005 118.847 288.193 118.848 289.431V365.61C118.847 366.848 118.354 368.036 117.478 368.912C116.602 369.787 115.415 370.28 114.176 370.281Z" fill="#FEFC09"/>
<path d="M201.153 371H164.493C163.064 370.998 161.694 370.43 160.683 369.42C159.672 368.409 159.104 367.039 159.102 365.61V217.564C159.104 216.135 159.672 214.765 160.683 213.754C161.694 212.744 163.064 212.176 164.493 212.174H201.153C202.583 212.176 203.953 212.744 204.964 213.754C205.974 214.765 206.543 216.135 206.544 217.564V365.61C206.543 367.039 205.974 368.409 204.964 369.42C203.953 370.43 202.583 370.998 201.153 371ZM164.493 213.611C163.445 213.613 162.44 214.029 161.699 214.77C160.958 215.511 160.541 216.516 160.54 217.564V365.61C160.541 366.658 160.958 367.663 161.699 368.404C162.44 369.145 163.445 369.561 164.493 369.563H201.153C202.201 369.561 203.206 369.145 203.948 368.404C204.689 367.663 205.106 366.658 205.107 365.61V217.564C205.106 216.516 204.689 215.511 203.948 214.77C203.206 214.029 202.201 213.613 201.153 213.611H164.493Z" fill="#3F3D56"/>
<path d="M288.131 371H251.471C250.041 370.998 248.671 370.43 247.66 369.42C246.65 368.409 246.081 367.039 246.08 365.61V123.418C246.081 121.989 246.65 120.619 247.66 119.609C248.671 118.598 250.041 118.03 251.471 118.028H288.131C289.56 118.03 290.93 118.598 291.941 119.609C292.952 120.619 293.52 121.989 293.522 123.418V365.61C293.52 367.039 292.952 368.409 291.941 369.42C290.93 370.43 289.56 370.998 288.131 371ZM251.471 119.466C250.423 119.467 249.418 119.884 248.676 120.625C247.935 121.366 247.518 122.37 247.517 123.418V365.61C247.518 366.658 247.935 367.663 248.676 368.404C249.418 369.145 250.423 369.561 251.471 369.563H288.131C289.179 369.561 290.184 369.145 290.925 368.404C291.666 367.663 292.083 366.658 292.084 365.61V123.418C292.083 122.37 291.666 121.366 290.925 120.625C290.184 119.884 289.179 119.467 288.131 119.466H251.471Z" fill="#3F3D56"/>
<path d="M375.92 370.641H339.26C338.021 370.639 336.833 370.147 335.958 369.271C335.082 368.395 334.589 367.208 334.587 365.969V24.6012C334.589 23.3627 335.082 22.1754 335.958 21.2997C336.833 20.4239 338.021 19.9313 339.26 19.9299H375.92C377.158 19.9313 378.346 20.4239 379.222 21.2997C380.098 22.1754 380.591 23.3627 380.592 24.6012V365.969C380.591 367.208 380.098 368.395 379.222 369.271C378.346 370.147 377.158 370.639 375.92 370.641Z" fill="#FEFC09"/>
<path d="M147.919 159.802C148.052 158.754 147.953 157.69 147.63 156.684C147.307 155.678 146.767 154.755 146.049 153.98C145.331 153.205 144.451 152.597 143.472 152.199C142.494 151.801 141.439 151.622 140.384 151.675L127.606 128.24L124.731 138.301L133.485 159.779C133.692 161.546 134.54 163.175 135.868 164.359C137.196 165.542 138.912 166.197 140.692 166.2C142.471 166.203 144.189 165.553 145.521 164.374C146.853 163.195 147.706 161.568 147.919 159.802V159.802Z" fill="#A0616A"/>
<path d="M49.4665 252.334L56.5835 257.53L80.0135 232.554L69.5086 224.886L49.4665 252.334Z" fill="#A0616A"/>
<path d="M65.4855 274.156L43.1158 257.829L49.4255 249.188L63.1524 259.207C65.4446 260.88 66.9782 263.395 67.4157 266.199C67.8532 269.002 67.1589 271.865 65.4855 274.156L65.4855 274.156Z" fill="black"/>
<path d="M87.1219 279.833L95.9347 279.833L100.127 245.848L87.1205 245.849L87.1219 279.833Z" fill="#A0616A"/>
<path d="M112.931 288.014L85.234 288.015L85.2336 277.316L102.229 277.315C105.067 277.315 107.789 278.442 109.796 280.449C111.803 282.455 112.931 285.176 112.931 288.014Z" fill="black"/>
<path d="M113.589 147.285C113.589 147.285 117.902 188.967 107.119 217.714L99.2124 272.333H85.5548L86.9924 207.653L81.9607 150.159C81.9607 150.159 92.0242 124.287 113.589 147.285Z" fill="black"/>
<path d="M66.8655 150.159L81.2419 199.747L53.2079 244.305L67.2249 256.163L99.2125 206.215L89.8678 145.128L66.8655 150.159Z" fill="black"/>
<path d="M103.528 38.9621C113.279 38.9621 121.183 31.0593 121.183 21.3108C121.183 11.5623 113.279 3.65952 103.528 3.65952C93.7776 3.65952 85.8732 11.5623 85.8732 21.3108C85.8732 31.0593 93.7776 38.9621 103.528 38.9621Z" fill="#A0616A"/>
<path d="M88.7895 45.5928C88.7895 45.5928 99.5718 38.4061 111.792 54.2168L115.026 153.753C115.026 153.753 105.682 140.816 86.2736 153.034C66.8654 165.251 62.5525 151.597 62.5525 151.597C62.5525 151.597 48.8949 48.8268 88.7895 45.5928Z" fill="#CCCCCC"/>
<path d="M110.922 53.9659C114.023 54.1334 116.953 55.4416 119.147 57.6387C121.342 59.8358 122.646 62.7666 122.809 65.8672L125.09 109.195L140.185 150.159L131.559 157.346L103.525 108.476L97.7857 68.3077C97.5226 66.4666 97.6711 64.59 98.2205 62.8132C98.7698 61.0364 99.7063 59.4034 100.963 58.0318C102.219 56.6602 103.764 55.5842 105.486 54.8811C107.208 54.1781 109.065 53.8655 110.922 53.9659Z" fill="#CCCCCC"/>
<path d="M90.5555 34.551C93.4418 37.6249 98.8019 35.9747 99.178 31.7755C99.2075 31.4494 99.2054 31.1213 99.1716 30.7957C98.9775 28.9356 97.9026 27.2469 98.1601 25.2828C98.2184 24.794 98.4005 24.3282 98.6893 23.9295C100.989 20.8503 106.388 25.3068 108.559 22.5192C109.89 20.81 108.325 18.1189 109.347 16.2085C110.695 13.6871 114.688 14.9309 117.192 13.5501C119.978 12.0137 119.811 7.74017 117.977 5.14078C115.741 1.97072 111.819 0.279152 107.947 0.0353431C104.074 -0.208466 100.228 0.838161 96.613 2.2468C92.5053 3.84727 88.4319 6.0592 85.904 9.67038C82.8299 14.062 82.5341 19.966 84.0715 25.1012C85.0068 28.2249 88.1986 32.0409 90.5555 34.551Z" fill="black"/>
<path d="M466.144 370.695H0.856027C0.62946 370.694 0.412392 370.604 0.252417 370.443C0.0924425 370.283 0.00262451 370.066 0.00262451 369.839C0.00262451 369.613 0.0924425 369.395 0.252417 369.235C0.412392 369.075 0.62946 368.984 0.856027 368.984H466.144C466.371 368.984 466.588 369.075 466.748 369.235C466.908 369.395 466.998 369.613 466.998 369.839C466.998 370.066 466.908 370.283 466.748 370.443C466.588 370.604 466.371 370.694 466.144 370.695Z" fill="#3F3D56"/>
</g>
<defs>
<clipPath id="clip0">
<rect width="467" height="371" fill="white" transform="translate(0.00012207)"/>
</clipPath>
</defs>
</svg>
