<svg width="388" height="219" viewBox="0 0 388 219" fill="none" xmlns="http://www.w3.org/2000/svg">
<g clip-path="url(#clip0)">
<path d="M61.1564 99.4362C53.4143 99.4362 45.9893 96.3613 40.5148 90.888C35.0404 85.4147 31.9648 77.9913 31.9648 70.2508C31.9648 62.5104 35.0404 55.0869 40.5148 49.6136C45.9893 44.1403 53.4143 41.0654 61.1564 41.0654H326.842C334.584 41.0654 342.009 44.1403 347.483 49.6136C352.958 55.0869 356.033 62.5104 356.033 70.2508C356.033 77.9913 352.958 85.4147 347.483 90.888C342.009 96.3613 334.584 99.4362 326.842 99.4362H61.1564Z" fill="#E6E6E6"/>
<path d="M61.1563 44.8721C54.4241 44.8721 47.9676 47.5459 43.2072 52.3053C38.4468 57.0647 35.7724 63.5198 35.7724 70.2507C35.7724 76.9815 38.4468 83.4366 43.2072 88.196C47.9676 92.9555 54.4241 95.6293 61.1563 95.6293H326.842C333.574 95.6293 340.03 92.9555 344.791 88.196C349.551 83.4366 352.226 76.9815 352.226 70.2507C352.226 63.5198 349.551 57.0647 344.791 52.3053C340.03 47.5459 333.574 44.8721 326.842 44.8721H61.1563Z" fill="white"/>
<path d="M88.9377 44.8721H88.0916V95.6293H88.9377V44.8721Z" fill="#E6E6E6"/>
<path d="M141.75 44.8721H140.904V95.6293H141.75V44.8721Z" fill="#E6E6E6"/>
<path d="M194.634 44.8721H193.787V95.6293H194.634V44.8721Z" fill="#E6E6E6"/>
<path d="M247.094 44.8721H246.248V95.6293H247.094V44.8721Z" fill="#E6E6E6"/>
<path d="M299.977 44.8721H299.131V95.6293H299.977V44.8721Z" fill="#E6E6E6"/>
<path d="M102.692 62.6372C102.531 62.6369 102.371 62.6684 102.222 62.7298C102.074 62.7912 101.938 62.8814 101.824 62.9951C101.71 63.1089 101.62 63.244 101.558 63.3928C101.496 63.5415 101.465 63.701 101.465 63.862C101.465 64.023 101.496 64.1825 101.558 64.3312C101.62 64.48 101.71 64.6151 101.824 64.7288C101.938 64.8426 102.074 64.9328 102.222 64.9942C102.371 65.0556 102.531 65.0871 102.692 65.0868H127.543C127.704 65.0871 127.863 65.0557 128.012 64.9944C128.16 64.9332 128.296 64.8432 128.41 64.7297C128.524 64.6162 128.614 64.4814 128.676 64.3329C128.738 64.1844 128.77 64.0252 128.77 63.8644C128.77 63.7035 128.739 63.5442 128.678 63.3955C128.616 63.2468 128.526 63.1116 128.413 62.9976C128.299 62.8837 128.165 62.7932 128.016 62.7313C127.868 62.6695 127.708 62.6375 127.547 62.6372H102.692Z" fill="#E6E6E6"/>
<path d="M102.692 68.9819C102.531 68.9816 102.371 69.0131 102.222 69.0745C102.074 69.1359 101.938 69.2261 101.824 69.3399C101.71 69.4536 101.62 69.5887 101.558 69.7375C101.496 69.8862 101.465 70.0457 101.465 70.2067C101.465 70.3678 101.496 70.5272 101.558 70.6759C101.62 70.8247 101.71 70.9598 101.824 71.0736C101.938 71.1873 102.074 71.2775 102.222 71.3389C102.371 71.4003 102.531 71.4318 102.692 71.4315H127.543C127.704 71.4318 127.863 71.4004 128.012 71.3392C128.16 71.2779 128.296 71.188 128.41 71.0745C128.524 70.9609 128.614 70.8261 128.676 70.6776C128.738 70.5291 128.77 70.3699 128.77 70.2091C128.77 70.0483 128.739 69.8889 128.678 69.7402C128.616 69.5915 128.526 69.4563 128.413 69.3424C128.299 69.2284 128.165 69.1379 128.016 69.0761C127.868 69.0142 127.708 68.9822 127.547 68.9819H102.692Z" fill="#E6E6E6"/>
<path d="M102.692 75.3262C102.531 75.3259 102.371 75.3573 102.222 75.4188C102.074 75.4802 101.938 75.5703 101.824 75.6841C101.71 75.7979 101.62 75.933 101.558 76.0817C101.496 76.2305 101.465 76.3899 101.465 76.551C101.465 76.712 101.496 76.8714 101.558 77.0202C101.62 77.1689 101.71 77.3041 101.824 77.4178C101.938 77.5316 102.074 77.6217 102.222 77.6832C102.371 77.7446 102.531 77.776 102.692 77.7757H127.543C127.704 77.776 127.863 77.7447 128.012 77.6834C128.16 77.6222 128.296 77.5322 128.41 77.4187C128.524 77.3052 128.614 77.1703 128.676 77.0219C128.738 76.8734 128.77 76.7142 128.77 76.5533C128.77 76.3925 128.739 76.2332 128.678 76.0845C128.616 75.9357 128.526 75.8006 128.413 75.6866C128.299 75.5726 128.165 75.4822 128.016 75.4203C127.868 75.3585 127.708 75.3265 127.547 75.3262H102.692Z" fill="#E6E6E6"/>
<path d="M155.152 62.6372C154.991 62.6369 154.831 62.6684 154.683 62.7298C154.534 62.7912 154.398 62.8814 154.284 62.9951C154.17 63.1089 154.08 63.244 154.018 63.3928C153.957 63.5415 153.925 63.701 153.925 63.862C153.925 64.023 153.957 64.1825 154.018 64.3312C154.08 64.48 154.17 64.6151 154.284 64.7288C154.398 64.8426 154.534 64.9328 154.683 64.9942C154.831 65.0556 154.991 65.0871 155.152 65.0868H180.003C180.164 65.0871 180.323 65.0556 180.472 64.9942C180.621 64.9328 180.757 64.8426 180.871 64.7288C180.985 64.6151 181.075 64.48 181.137 64.3312C181.198 64.1825 181.23 64.023 181.23 63.862C181.23 63.701 181.198 63.5415 181.137 63.3928C181.075 63.244 180.985 63.1089 180.871 62.9951C180.757 62.8814 180.621 62.7912 180.472 62.7298C180.323 62.6684 180.164 62.6369 180.003 62.6372H155.152Z" fill="#CB6BE6"/>
<path d="M155.152 68.9819C154.991 68.9816 154.831 69.0131 154.683 69.0745C154.534 69.1359 154.398 69.2261 154.284 69.3399C154.17 69.4536 154.08 69.5887 154.018 69.7375C153.957 69.8862 153.925 70.0457 153.925 70.2067C153.925 70.3678 153.957 70.5272 154.018 70.6759C154.08 70.8247 154.17 70.9598 154.284 71.0736C154.398 71.1873 154.534 71.2775 154.683 71.3389C154.831 71.4003 154.991 71.4318 155.152 71.4315H180.003C180.164 71.4318 180.323 71.4003 180.472 71.3389C180.621 71.2775 180.757 71.1873 180.871 71.0736C180.985 70.9598 181.075 70.8247 181.137 70.6759C181.198 70.5272 181.23 70.3678 181.23 70.2067C181.23 70.0457 181.198 69.8862 181.137 69.7375C181.075 69.5887 180.985 69.4536 180.871 69.3399C180.757 69.2261 180.621 69.1359 180.472 69.0745C180.323 69.0131 180.164 68.9816 180.003 68.9819H155.152Z" fill="#CB6BE6"/>
<path d="M155.152 75.3262C154.991 75.3259 154.831 75.3573 154.683 75.4188C154.534 75.4802 154.398 75.5703 154.284 75.6841C154.17 75.7979 154.08 75.933 154.018 76.0817C153.957 76.2305 153.925 76.3899 153.925 76.551C153.925 76.712 153.957 76.8714 154.018 77.0202C154.08 77.1689 154.17 77.3041 154.284 77.4178C154.398 77.5316 154.534 77.6217 154.683 77.6832C154.831 77.7446 154.991 77.776 155.152 77.7757H180.003C180.164 77.776 180.323 77.7446 180.472 77.6832C180.621 77.6217 180.757 77.5316 180.871 77.4178C180.985 77.3041 181.075 77.1689 181.137 77.0202C181.198 76.8714 181.23 76.712 181.23 76.551C181.23 76.3899 181.198 76.2305 181.137 76.0817C181.075 75.933 180.985 75.7979 180.871 75.6841C180.757 75.5703 180.621 75.4802 180.472 75.4188C180.323 75.3573 180.164 75.3259 180.003 75.3262H155.152Z" fill="#CB6BE6"/>
<path d="M208.035 62.6372C207.711 62.6378 207.4 62.7671 207.171 62.9967C206.941 63.2264 206.813 63.5376 206.813 63.862C206.813 64.1864 206.941 64.4976 207.171 64.7272C207.4 64.9569 207.711 65.0862 208.035 65.0868H232.886C233.047 65.0871 233.207 65.0556 233.356 64.9942C233.504 64.9328 233.64 64.8426 233.754 64.7288C233.868 64.6151 233.958 64.48 234.02 64.3312C234.082 64.1825 234.113 64.023 234.113 63.862C234.113 63.701 234.082 63.5415 234.02 63.3928C233.958 63.244 233.868 63.1089 233.754 62.9951C233.64 62.8814 233.504 62.7912 233.356 62.7298C233.207 62.6684 233.047 62.6369 232.886 62.6372H208.035Z" fill="#E6E6E6"/>
<path d="M208.035 68.9819C207.711 68.9825 207.4 69.1118 207.171 69.3415C206.941 69.5711 206.813 69.8823 206.813 70.2067C206.813 70.5312 206.941 70.8423 207.171 71.072C207.4 71.3016 207.711 71.4309 208.035 71.4315H232.886C233.047 71.4318 233.207 71.4003 233.356 71.3389C233.504 71.2775 233.64 71.1873 233.754 71.0736C233.868 70.9598 233.958 70.8247 234.02 70.6759C234.082 70.5272 234.113 70.3678 234.113 70.2067C234.113 70.0457 234.082 69.8862 234.02 69.7375C233.958 69.5887 233.868 69.4536 233.754 69.3399C233.64 69.2261 233.504 69.1359 233.356 69.0745C233.207 69.0131 233.047 68.9816 232.886 68.9819H208.035Z" fill="#E6E6E6"/>
<path d="M208.035 75.3262C207.711 75.3268 207.4 75.4561 207.171 75.6857C206.941 75.9153 206.813 76.2265 206.813 76.551C206.813 76.8754 206.941 77.1866 207.171 77.4162C207.4 77.6458 207.711 77.7751 208.035 77.7757H232.886C233.047 77.776 233.207 77.7446 233.356 77.6832C233.504 77.6217 233.64 77.5316 233.754 77.4178C233.868 77.3041 233.958 77.1689 234.02 77.0202C234.082 76.8714 234.113 76.712 234.113 76.551C234.113 76.3899 234.082 76.2305 234.02 76.0817C233.958 75.933 233.868 75.7979 233.754 75.6841C233.64 75.5703 233.504 75.4802 233.356 75.4188C233.207 75.3573 233.047 75.3259 232.886 75.3262H208.035Z" fill="#E6E6E6"/>
<path d="M260.707 62.6372C260.382 62.6378 260.071 62.7671 259.842 62.9967C259.613 63.2264 259.484 63.5376 259.484 63.862C259.484 64.1864 259.613 64.4976 259.842 64.7272C260.071 64.9569 260.382 65.0862 260.707 65.0868H285.558C285.719 65.0871 285.878 65.0556 286.027 64.9942C286.176 64.9328 286.311 64.8426 286.425 64.7288C286.539 64.6151 286.63 64.48 286.692 64.3312C286.753 64.1825 286.785 64.023 286.785 63.862C286.785 63.701 286.753 63.5415 286.692 63.3928C286.63 63.244 286.539 63.1089 286.425 62.9951C286.311 62.8814 286.176 62.7912 286.027 62.7298C285.878 62.6684 285.719 62.6369 285.558 62.6372H260.707Z" fill="#E6E6E6"/>
<path d="M260.707 68.9819C260.382 68.9825 260.071 69.1118 259.842 69.3415C259.613 69.5711 259.484 69.8823 259.484 70.2067C259.484 70.5312 259.613 70.8423 259.842 71.072C260.071 71.3016 260.382 71.4309 260.707 71.4315H285.558C285.719 71.4318 285.878 71.4003 286.027 71.3389C286.176 71.2775 286.311 71.1873 286.425 71.0736C286.539 70.9598 286.63 70.8247 286.692 70.6759C286.753 70.5272 286.785 70.3678 286.785 70.2067C286.785 70.0457 286.753 69.8862 286.692 69.7375C286.63 69.5887 286.539 69.4536 286.425 69.3399C286.311 69.2261 286.176 69.1359 286.027 69.0745C285.878 69.0131 285.719 68.9816 285.558 68.9819H260.707Z" fill="#E6E6E6"/>
<path d="M260.707 75.3262C260.382 75.3268 260.071 75.4561 259.842 75.6857C259.613 75.9153 259.484 76.2265 259.484 76.551C259.484 76.8754 259.613 77.1866 259.842 77.4162C260.071 77.6458 260.382 77.7751 260.707 77.7757H285.558C285.719 77.776 285.878 77.7446 286.027 77.6832C286.176 77.6217 286.311 77.5316 286.425 77.4178C286.539 77.3041 286.63 77.1689 286.692 77.0202C286.753 76.8714 286.785 76.712 286.785 76.551C286.785 76.3899 286.753 76.2305 286.692 76.0817C286.63 75.933 286.539 75.7979 286.425 75.6841C286.311 75.5703 286.176 75.4802 286.027 75.4188C285.878 75.3573 285.719 75.3259 285.558 75.3262H260.707Z" fill="#E6E6E6"/>
<path d="M312.109 62.6372C311.785 62.6378 311.474 62.7671 311.245 62.9967C311.015 63.2264 310.887 63.5376 310.887 63.862C310.887 64.1864 311.015 64.4976 311.245 64.7272C311.474 64.9569 311.785 65.0862 312.109 65.0868H336.96C337.121 65.0871 337.281 65.0556 337.43 64.9942C337.579 64.9328 337.714 64.8426 337.828 64.7288C337.942 64.6151 338.032 64.48 338.094 64.3312C338.156 64.1825 338.188 64.023 338.188 63.862C338.188 63.701 338.156 63.5415 338.094 63.3928C338.032 63.244 337.942 63.1089 337.828 62.9951C337.714 62.8814 337.579 62.7912 337.43 62.7298C337.281 62.6684 337.121 62.6369 336.96 62.6372H312.109Z" fill="#E6E6E6"/>
<path d="M312.109 68.9819C311.785 68.9825 311.474 69.1118 311.245 69.3415C311.015 69.5711 310.887 69.8823 310.887 70.2067C310.887 70.5312 311.015 70.8423 311.245 71.072C311.474 71.3016 311.785 71.4309 312.109 71.4315H336.96C337.121 71.4318 337.281 71.4003 337.43 71.3389C337.579 71.2775 337.714 71.1873 337.828 71.0736C337.942 70.9598 338.032 70.8247 338.094 70.6759C338.156 70.5272 338.188 70.3678 338.188 70.2067C338.188 70.0457 338.156 69.8862 338.094 69.7375C338.032 69.5887 337.942 69.4536 337.828 69.3399C337.714 69.2261 337.579 69.1359 337.43 69.0745C337.281 69.0131 337.121 68.9816 336.96 68.9819H312.109Z" fill="#E6E6E6"/>
<path d="M312.109 75.3262C311.785 75.3268 311.474 75.4561 311.245 75.6857C311.015 75.9153 310.887 76.2265 310.887 76.551C310.887 76.8754 311.015 77.1866 311.245 77.4162C311.474 77.6458 311.785 77.7751 312.109 77.7757H336.96C337.121 77.776 337.281 77.7446 337.43 77.6832C337.579 77.6217 337.714 77.5316 337.828 77.4178C337.942 77.3041 338.032 77.1689 338.094 77.0202C338.156 76.8714 338.188 76.712 338.188 76.551C338.188 76.3899 338.156 76.2305 338.094 76.0817C338.032 75.933 337.942 75.7979 337.828 75.6841C337.714 75.5703 337.579 75.4802 337.43 75.4188C337.281 75.3573 337.121 75.3259 336.96 75.3262H312.109Z" fill="#E6E6E6"/>
<path d="M49.8087 62.6372C49.4842 62.6378 49.1732 62.7671 48.9439 62.9967C48.7147 63.2264 48.5859 63.5376 48.5859 63.862C48.5859 64.1864 48.7147 64.4976 48.9439 64.7272C49.1732 64.9569 49.4842 65.0862 49.8087 65.0868H74.6594C74.8203 65.0871 74.9796 65.0557 75.1284 64.9944C75.2771 64.9332 75.4124 64.8432 75.5263 64.7297C75.6403 64.6162 75.7308 64.4814 75.7927 64.3329C75.8545 64.1844 75.8865 64.0252 75.8868 63.8644C75.8871 63.7035 75.8558 63.5442 75.7945 63.3955C75.7332 63.2468 75.6432 63.1116 75.5297 62.9976C75.4162 62.8837 75.2813 62.7932 75.1328 62.7313C74.9843 62.6695 74.8251 62.6375 74.6642 62.6372H49.8087Z" fill="#E6E6E6"/>
<path d="M49.8087 68.9819C49.4842 68.9825 49.1732 69.1118 48.9439 69.3415C48.7147 69.5711 48.5859 69.8823 48.5859 70.2067C48.5859 70.5312 48.7147 70.8423 48.9439 71.072C49.1732 71.3016 49.4842 71.4309 49.8087 71.4315H74.6594C74.8203 71.4318 74.9796 71.4004 75.1284 71.3392C75.2771 71.2779 75.4124 71.188 75.5263 71.0745C75.6403 70.9609 75.7308 70.8261 75.7927 70.6776C75.8545 70.5291 75.8865 70.3699 75.8868 70.2091C75.8871 70.0483 75.8558 69.8889 75.7945 69.7402C75.7332 69.5915 75.6432 69.4563 75.5297 69.3424C75.4162 69.2284 75.2813 69.1379 75.1328 69.0761C74.9843 69.0142 74.8251 68.9822 74.6642 68.9819H49.8087Z" fill="#E6E6E6"/>
<path d="M49.8087 75.3262C49.4842 75.3268 49.1732 75.4561 48.9439 75.6857C48.7147 75.9153 48.5859 76.2265 48.5859 76.551C48.5859 76.8754 48.7147 77.1866 48.9439 77.4162C49.1732 77.6458 49.4842 77.7751 49.8087 77.7757H74.6594C74.8203 77.776 74.9796 77.7447 75.1284 77.6834C75.2771 77.6222 75.4124 77.5322 75.5263 77.4187C75.6403 77.3052 75.7308 77.1703 75.7927 77.0219C75.8545 76.8734 75.8865 76.7142 75.8868 76.5533C75.8871 76.3925 75.8558 76.2332 75.7945 76.0845C75.7332 75.9357 75.6432 75.8005 75.5297 75.6866C75.4162 75.5726 75.2813 75.4822 75.1328 75.4203C74.9843 75.3585 74.8251 75.3265 74.6642 75.3262H49.8087Z" fill="#E6E6E6"/>
<path d="M167.607 40.083C178.678 40.083 187.653 31.1101 187.653 20.0415C187.653 8.97289 178.678 0 167.607 0C156.536 0 147.562 8.97289 147.562 20.0415C147.562 31.1101 156.536 40.083 167.607 40.083Z" fill="black"/>
<path d="M167.607 52.6216L161.339 41.7676L155.071 30.9136H167.607H180.143L173.875 41.7676L167.607 52.6216Z" fill="black"/>
<path d="M167.769 27.107C171.741 27.107 174.961 23.8877 174.961 19.9164C174.961 15.9452 171.741 12.7258 167.769 12.7258C163.797 12.7258 160.577 15.9452 160.577 19.9164C160.577 23.8877 163.797 27.107 167.769 27.107Z" fill="white"/>
<path d="M375.33 74.3718C375.246 74.3718 375.162 74.3552 375.084 74.3229C375.007 74.2906 374.936 74.2432 374.876 74.1835L371.405 70.7132C371.284 70.5927 371.217 70.4292 371.217 70.2588C371.217 70.0884 371.284 69.9249 371.405 69.8044C371.525 69.6839 371.689 69.6162 371.859 69.6162C372.03 69.6162 372.193 69.6839 372.314 69.8044L375.255 72.7451L380.469 65.6372C380.57 65.5001 380.721 65.4086 380.889 65.3829C381.058 65.3571 381.229 65.3992 381.367 65.4999C381.504 65.6006 381.596 65.7516 381.622 65.9199C381.648 66.0882 381.606 66.2599 381.505 66.3973L375.849 74.1092C375.794 74.1839 375.724 74.2459 375.643 74.2909C375.562 74.336 375.472 74.3629 375.379 74.37C375.363 74.3713 375.347 74.3718 375.33 74.3718Z" fill="#FEFC09"/>
<path d="M8.63189 74.2739C8.50477 74.2739 8.38051 74.2362 8.27482 74.1656C8.16913 74.0949 8.08677 73.9946 8.03812 73.8772C7.98948 73.7597 7.97675 73.6305 8.00154 73.5059C8.02633 73.3812 8.08754 73.2667 8.17741 73.1769L15.0284 66.3276C15.149 66.2074 15.3124 66.14 15.4827 66.1401C15.6529 66.1403 15.8162 66.208 15.9366 66.3283C16.057 66.4487 16.1247 66.6119 16.1248 66.7822C16.125 66.9524 16.0576 67.1157 15.9374 67.2363L9.08634 74.0856C9.02674 74.1454 8.9559 74.1928 8.87791 74.2251C8.79992 74.2574 8.71631 74.274 8.63189 74.2739Z" fill="#FEFC09"/>
<path d="M15.4828 74.2737C15.3984 74.2738 15.3148 74.2572 15.2368 74.2249C15.1588 74.1926 15.0879 74.1452 15.0283 74.0854L8.17757 67.2361C8.05703 67.1156 7.98932 66.9522 7.98932 66.7817C7.98932 66.6113 8.05704 66.4479 8.17757 66.3274C8.29811 66.2069 8.46158 66.1392 8.63205 66.1392C8.80251 66.1392 8.96598 66.2069 9.08652 66.3274L15.9373 73.1767C16.0271 73.2666 16.0883 73.3811 16.1131 73.5057C16.1379 73.6304 16.1252 73.7596 16.0765 73.877C16.0279 73.9944 15.9455 74.0948 15.8398 74.1654C15.7342 74.236 15.6099 74.2737 15.4828 74.2737L15.4828 74.2737Z" fill="#FEFC09"/>
<path d="M248.743 142.567C248.161 142.247 247.656 141.803 247.263 141.267C246.871 140.731 246.601 140.115 246.473 139.463C246.344 138.812 246.36 138.139 246.52 137.495C246.679 136.85 246.978 136.248 247.395 135.731L241.519 94.7637L251.399 95.0357L254.068 135.219C254.89 135.978 255.406 137.011 255.516 138.124C255.627 139.237 255.326 140.352 254.67 141.258C254.013 142.163 253.047 142.797 251.955 143.038C250.863 143.279 249.72 143.111 248.743 142.567Z" fill="#A0616A"/>
<path d="M240.231 101.447C240.006 101.26 239.824 101.026 239.698 100.762C239.572 100.498 239.504 100.21 239.499 99.9168L239.333 89.6924C239.089 88.2144 239.441 86.7 240.312 85.4811C241.183 84.2621 242.502 83.4383 243.98 83.1901C245.457 82.9418 246.973 83.2896 248.194 84.157C249.416 85.0244 250.244 86.3407 250.496 87.8174L253.632 97.5854C253.722 97.8642 253.75 98.1589 253.715 98.4497C253.68 98.7404 253.583 99.0202 253.431 99.27C253.278 99.5199 253.073 99.7339 252.831 99.8975C252.588 100.061 252.312 100.171 252.024 100.218L241.869 101.893C241.58 101.941 241.284 101.926 241.001 101.849C240.719 101.772 240.456 101.635 240.231 101.447Z" fill="#FEFC09"/>
<path d="M221.413 213.535H216.227L213.759 193.534H221.415L221.413 213.535Z" fill="#A0616A"/>
<path d="M222.736 218.562L206.012 218.562V218.35C206.012 217.496 206.18 216.649 206.508 215.86C206.835 215.07 207.314 214.353 207.919 213.748C208.523 213.144 209.241 212.665 210.03 212.338C210.82 212.011 211.667 211.842 212.522 211.842H212.522L222.736 211.843L222.736 218.562Z" fill="#2F2E41"/>
<path d="M250.605 213.535H245.418L242.951 193.534H250.606L250.605 213.535Z" fill="#A0616A"/>
<path d="M251.928 218.562L235.204 218.562V218.35C235.204 217.496 235.372 216.649 235.699 215.86C236.026 215.07 236.506 214.353 237.11 213.748C237.715 213.144 238.432 212.665 239.222 212.338C240.012 212.011 240.858 211.842 241.713 211.842H241.714L251.928 211.843L251.928 218.562Z" fill="#2F2E41"/>
<path d="M243.299 203.949L234.228 156.153C234.203 156.007 234.127 155.875 234.013 155.781C233.899 155.687 233.755 155.637 233.607 155.641H233.605C233.458 155.637 233.314 155.686 233.2 155.779C233.086 155.872 233.009 156.003 232.983 156.148L223.553 203.85C223.46 204.305 223.203 204.71 222.832 204.989C222.46 205.268 222 205.402 221.536 205.365L214.164 204.775C213.912 204.755 213.667 204.685 213.443 204.57C213.219 204.454 213.02 204.295 212.857 204.102C212.695 203.908 212.573 203.685 212.498 203.444C212.423 203.203 212.397 202.949 212.421 202.698L218.623 135.689L250.319 136.515L250.515 136.52L253.633 203.491C253.645 203.748 253.605 204.006 253.515 204.247C253.425 204.488 253.287 204.709 253.109 204.895C252.931 205.082 252.717 205.23 252.481 205.331C252.244 205.433 251.989 205.485 251.731 205.485H245.167C244.727 205.484 244.3 205.331 243.959 205.051C243.618 204.771 243.385 204.382 243.299 203.949Z" fill="#2F2E41"/>
<path d="M233.144 76.7912C238.883 76.7912 243.535 72.14 243.535 66.4024C243.535 60.6649 238.883 56.0137 233.144 56.0137C227.405 56.0137 222.753 60.6649 222.753 66.4024C222.753 72.14 227.405 76.7912 233.144 76.7912Z" fill="#A0616A"/>
<path d="M217.904 139.42C217.55 139.24 217.262 138.955 217.079 138.603C216.895 138.251 216.827 137.851 216.882 137.459C218.226 127.862 217.37 110.893 216.416 98.347C215.762 89.7491 221.542 82.0516 229.861 80.4419C229.99 80.4171 230.12 80.3928 230.249 80.3696H230.249C232.803 79.9026 235.43 80.0352 237.924 80.7571C240.417 81.4789 242.709 82.7703 244.618 84.5292C246.56 86.2921 248.067 88.4824 249.018 90.9271C249.969 93.3719 250.339 96.0042 250.099 98.6163C248.866 112.601 251.055 133.536 251.506 137.591C251.538 137.892 251.498 138.196 251.39 138.479C251.282 138.762 251.109 139.016 250.885 139.219C246.668 143.067 241.581 144.369 236.628 144.369C228.619 144.369 220.961 140.964 217.904 139.42Z" fill="#FEFC09"/>
<path d="M210.179 142.681C210.792 142.425 211.342 142.038 211.79 141.548C212.237 141.057 212.572 140.474 212.77 139.84C212.968 139.206 213.024 138.536 212.935 137.877C212.846 137.219 212.614 136.588 212.255 136.029L222.509 95.9333L212.657 95.1401L205.676 134.803C204.777 135.468 204.153 136.44 203.923 137.535C203.693 138.629 203.872 139.77 204.427 140.741C204.982 141.712 205.874 142.446 206.934 142.803C207.994 143.161 209.149 143.117 210.179 142.681Z" fill="#A0616A"/>
<path d="M221.393 102.984L211.478 100.225C211.196 100.146 210.934 100.008 210.71 99.8193C210.486 99.6305 210.306 99.3956 210.181 99.1308C210.056 98.866 209.99 98.5773 209.986 98.2846C209.983 97.9918 210.043 97.7018 210.162 97.4343L214.332 88.0606C214.742 86.6198 215.706 85.4003 217.014 84.6694C218.322 83.9385 219.867 83.756 221.309 84.1618C222.751 84.5676 223.974 85.5287 224.708 86.8342C225.443 88.1398 225.63 89.6833 225.228 91.1264L223.962 101.274C223.925 101.564 223.827 101.843 223.673 102.092C223.519 102.341 223.313 102.554 223.069 102.717C222.825 102.879 222.55 102.987 222.26 103.033C221.971 103.079 221.675 103.062 221.393 102.984V102.984Z" fill="#FEFC09"/>
<path d="M236.771 76.6444C237.755 76.6627 238.732 76.4859 239.647 76.1243C240.05 75.9692 240.467 75.8417 240.869 75.6865C244.417 74.316 246.755 70.5381 246.838 66.7361C246.922 62.9342 244.953 59.244 242.028 56.8121C239.104 54.3802 235.316 53.1316 231.524 52.8429C227.438 52.5319 222.838 53.5677 220.555 56.9693C219.948 57.8747 219.523 58.9733 219.883 60.0665C219.99 60.3964 220.183 60.6922 220.441 60.9243C221.461 61.8312 222.477 61.1493 223.516 61.0891C224.945 61.0063 226.228 62.1623 226.689 63.5166C227.15 64.8708 226.947 66.3618 226.575 67.7431C226.291 68.5743 226.112 69.4376 226.043 70.313C226.012 70.752 226.095 71.1914 226.282 71.5895C226.47 71.9877 226.756 72.3313 227.113 72.588C228.006 73.1275 229.178 72.8153 230.071 72.2767C230.964 71.7381 231.736 70.9893 232.701 70.5929C233.666 70.1966 234.962 70.2845 235.523 71.1633C235.702 71.4831 235.823 71.8317 235.88 72.1933C236.384 74.4864 236.268 74.3514 236.771 76.6444V76.6444Z" fill="#2F2E41"/>
<path d="M277.543 219H170.084C169.972 219 169.865 218.956 169.785 218.876C169.706 218.797 169.661 218.689 169.661 218.577C169.661 218.465 169.706 218.357 169.785 218.278C169.865 218.199 169.972 218.154 170.084 218.154H277.543C277.655 218.154 277.763 218.199 277.842 218.278C277.922 218.357 277.966 218.465 277.966 218.577C277.966 218.689 277.922 218.797 277.842 218.876C277.763 218.956 277.655 219 277.543 219Z" fill="#3F3D56"/>
<path d="M12.0574 82.2615C9.67266 82.2615 7.34149 81.5545 5.35866 80.2299C3.37584 78.9053 1.83041 77.0226 0.917818 74.8199C0.00522339 72.6171 -0.233552 70.1933 0.231685 67.8549C0.696922 65.5165 1.84527 63.3685 3.53153 61.6826C5.21778 59.9967 7.3662 58.8486 9.7051 58.3835C12.044 57.9184 14.4683 58.1571 16.6715 59.0695C18.8747 59.9819 20.7578 61.527 22.0827 63.5094C23.4076 65.4918 24.1148 67.8225 24.1148 70.2067C24.1111 73.4027 22.8396 76.4668 20.5792 78.7267C18.3188 80.9867 15.2541 82.2579 12.0574 82.2615ZM12.0574 59.4208C9.92368 59.4208 7.8379 60.0534 6.06379 61.2385C4.28969 62.4237 2.90693 64.1082 2.0904 66.0791C1.27387 68.05 1.06023 70.2187 1.47649 72.3109C1.89276 74.4032 2.92023 76.325 4.42899 77.8335C5.93774 79.3419 7.86001 80.3692 9.95271 80.7853C12.0454 81.2015 14.2146 80.9879 16.1858 80.1716C18.1571 79.3552 19.842 77.9727 21.0274 76.199C22.2129 74.4253 22.8456 72.3399 22.8456 70.2067C22.8423 67.3471 21.7046 64.6056 19.6822 62.5835C17.6597 60.5615 14.9176 59.4241 12.0574 59.4208Z" fill="#E6E6E6"/>
<path d="M375.943 82.1912C373.558 82.1912 371.227 81.4842 369.244 80.1596C367.261 78.835 365.716 76.9523 364.803 74.7496C363.89 72.5468 363.652 70.123 364.117 67.7846C364.582 65.4462 365.731 63.2982 367.417 61.6123C369.103 59.9264 371.251 58.7783 373.59 58.3132C375.929 57.848 378.354 58.0868 380.557 58.9992C382.76 59.9116 384.643 61.4567 385.968 63.4391C387.293 65.4215 388 67.7522 388 70.1364C387.996 73.3324 386.725 76.3965 384.464 78.6564C382.204 80.9164 379.139 82.1876 375.943 82.1912ZM375.943 59.3505C373.809 59.3505 371.723 59.9831 369.949 61.1682C368.175 62.3534 366.792 64.0379 365.976 66.0088C365.159 67.9796 364.945 70.1483 365.362 72.2406C365.778 74.3329 366.805 76.2547 368.314 77.7632C369.823 79.2716 371.745 80.2988 373.838 80.715C375.931 81.1312 378.1 80.9176 380.071 80.1013C382.042 79.2849 383.727 77.9024 384.913 76.1287C386.098 74.355 386.731 72.2696 386.731 70.1364C386.728 67.2768 385.59 64.5352 383.567 62.5132C381.545 60.4912 378.803 59.3537 375.943 59.3505Z" fill="#E6E6E6"/>
</g>
<defs>
<clipPath id="clip0">
<rect width="388" height="219" fill="white"/>
</clipPath>
</defs>
</svg>
