<svg width="318" height="264" viewBox="0 0 318 264" fill="none" xmlns="http://www.w3.org/2000/svg">
<g clip-path="url(#clip0)">
<path opacity="0.1" d="M297.003 145.877C284.789 165.657 287.077 192.604 292.442 213.851C294.237 220.965 296.305 228.475 294.77 236.437C292.893 246.172 286.05 253.817 279.124 258.195C266.498 266.156 252.081 265.935 241.582 257.611C232.516 250.421 226.546 237.881 217.289 231.076C201.811 219.686 180.557 226.59 162.102 237.234C149.051 244.748 134.687 254.308 122.624 248.895C114.137 245.094 108.845 234.37 106.375 222.699C105.183 217.065 104.462 210.911 101.729 206.618C100.102 204.067 97.866 202.359 95.5476 200.958C74.3891 188.187 45.7617 198.865 25.3573 184.402C11.5755 174.637 3.74108 154.468 1.16583 132.902C-1.40941 111.335 0.708084 88.2583 3.35907 65.5377C5.24605 49.3841 7.79824 32.103 16.2682 18.9658C25.2289 5.07034 39.3532 -1.14387 51.6301 0.1748C63.907 1.49346 74.5669 9.28018 83.7548 18.7976C95.238 30.692 105.595 45.883 120.457 49.7203C130.58 52.3346 141.635 49.3083 152.401 47.5973C170.375 44.7358 188.098 45.5566 205.697 46.6314C222.545 47.6599 239.495 48.939 255.193 54.873C266.301 59.0763 274.827 67.8256 285.194 73.5156C291.951 77.2244 299.575 77.6958 305.871 82.6408C313.627 88.733 320.338 99.978 317.233 114.193C314.272 127.716 303.484 135.381 297.003 145.877Z" fill="#6C63FF"/>
<path d="M251.492 10.9449H63.581V229.359H251.492V10.9449Z" fill="url(#paint0_linear)"/>
<path d="M249.305 13.4866H65.771V226.81H249.305V13.4866Z" fill="#F7F7FD"/>
<path d="M123.253 37.5325H76.8557V41.2314H123.253V37.5325Z" fill="#E2E2EC"/>
<path d="M156.099 46.5753H76.8557V50.2741H156.099V46.5753Z" fill="#E2E2EC"/>
<path d="M240.516 33.9985H207.587V62.4421H240.516V33.9985Z" fill="white"/>
<path d="M240.341 34.1633V62.2772H207.739V34.1633H240.341ZM240.67 33.8336H207.409V62.6069H240.67V33.8336Z" fill="#E2E2EC"/>
<path d="M207.258 33.9985H174.33V62.4421H207.258V33.9985Z" fill="white"/>
<path d="M207.08 34.1633V62.2772H174.478V34.1633H207.08ZM207.409 33.8336H174.149V62.6069H207.409V33.8336Z" fill="#E2E2EC"/>
<path d="M240.516 62.7717H207.587V91.2153H240.516V62.7717Z" fill="white"/>
<path d="M240.341 62.9366V91.0505H207.739V62.9366H240.341ZM240.67 62.6069H207.409V91.3802H240.67V62.6069Z" fill="#E2E2EC"/>
<path d="M207.258 62.7717H174.33V91.2153H207.258V62.7717Z" fill="white"/>
<path d="M207.08 62.9366V91.0505H174.478V62.9366H207.08ZM207.409 62.6069H174.149V91.3802H207.409V62.6069Z" fill="#E2E2EC"/>
<path d="M174 62.7717H141.072V91.2153H174V62.7717Z" fill="white"/>
<path d="M173.836 62.9366V91.0505H141.234V62.9366H173.836ZM174.165 62.6069H140.904V91.3802H174.165V62.6069Z" fill="#E2E2EC"/>
<path d="M140.743 62.7717H107.815V91.2153H140.743V62.7717Z" fill="white"/>
<path d="M140.578 62.9366V91.0505H107.976V62.9366H140.578ZM140.908 62.6069H107.647V91.3802H140.908V62.6069Z" fill="#E2E2EC"/>
<path d="M107.485 62.7717H74.5571V91.2153H107.485V62.7717Z" fill="white"/>
<path d="M107.321 62.9366V91.0505H74.7185V62.9366H107.321ZM107.65 62.6069H74.3892V91.3802H107.65V62.6069Z" fill="#E2E2EC"/>
<path d="M240.516 91.5417H207.587V119.985H240.516V91.5417Z" fill="white"/>
<path d="M240.341 91.7099V119.824H207.739V91.7099H240.341ZM240.67 91.3802H207.409V120.154H240.67V91.3802Z" fill="#E2E2EC"/>
<path d="M207.258 91.5417H174.33V119.985H207.258V91.5417Z" fill="white"/>
<path d="M207.08 91.7099V119.824H174.478V91.7099H207.08ZM207.409 91.3802H174.149V120.154H207.409V91.3802Z" fill="#E2E2EC"/>
<path d="M174 91.5417H141.072V119.985H174V91.5417Z" fill="white"/>
<path d="M173.836 91.7099V119.824H141.234V91.7099H173.836ZM174.165 91.3802H140.904V120.154H174.165V91.3802Z" fill="#E2E2EC"/>
<path d="M140.743 91.5417H107.815V119.985H140.743V91.5417Z" fill="white"/>
<path d="M140.578 91.7099V119.824H107.976V91.7099H140.578ZM140.908 91.3802H107.647V120.154H140.908V91.3802Z" fill="#E2E2EC"/>
<path d="M107.485 91.5417H74.5571V119.985H107.485V91.5417Z" fill="white"/>
<path d="M107.321 91.7099V119.824H74.7185V91.7099H107.321ZM107.65 91.3802H74.3892V120.154H107.65V91.3802Z" fill="#E2E2EC"/>
<path d="M240.516 120.315H207.587V148.759H240.516V120.315Z" fill="white"/>
<path d="M240.341 120.48V148.594H207.739V120.48H240.341ZM240.67 120.15H207.409V148.923H240.67V120.15Z" fill="#E2E2EC"/>
<path d="M207.258 120.315H174.33V148.759H207.258V120.315Z" fill="white"/>
<path d="M207.08 120.48V148.594H174.478V120.48H207.08ZM207.409 120.15H174.149V148.923H207.409V120.15Z" fill="#E2E2EC"/>
<path d="M174 120.315H141.072V148.759H174V120.315Z" fill="white"/>
<path d="M173.836 120.48V148.594H141.234V120.48H173.836ZM174.165 120.15H140.904V148.923H174.165V120.15Z" fill="#E2E2EC"/>
<path d="M140.743 120.315H107.815V148.759H140.743V120.315Z" fill="white"/>
<path d="M140.578 120.48V148.594H107.976V120.48H140.578ZM140.908 120.15H107.647V148.923H140.908V120.15Z" fill="#E2E2EC"/>
<path d="M107.485 120.315H74.5571V148.759H107.485V120.315Z" fill="white"/>
<path d="M107.321 120.48V148.594H74.7185V120.48H107.321ZM107.65 120.15H74.3892V148.923H107.65V120.15Z" fill="#E2E2EC"/>
<path d="M240.516 149.085H207.587V177.529H240.516V149.085Z" fill="white"/>
<path d="M240.341 149.253V177.364H207.739V149.253H240.341ZM240.67 148.923H207.409V177.693H240.67V148.923Z" fill="#E2E2EC"/>
<path d="M207.258 149.085H174.33V177.529H207.258V149.085Z" fill="white"/>
<path d="M207.08 149.253V177.364H174.478V149.253H207.08ZM207.409 148.923H174.149V177.693H207.409V148.923Z" fill="#E2E2EC"/>
<path d="M174 149.085H141.072V177.529H174V149.085Z" fill="white"/>
<path d="M173.836 149.253V177.364H141.234V149.253H173.836ZM174.165 148.923H140.904V177.693H174.165V148.923Z" fill="#E2E2EC"/>
<path d="M140.743 149.085H107.815V177.529H140.743V149.085Z" fill="white"/>
<path d="M140.578 149.253V177.364H107.976V149.253H140.578ZM140.908 148.923H107.647V177.693H140.908V148.923Z" fill="#E2E2EC"/>
<path d="M107.485 149.085H74.5571V177.529H107.485V149.085Z" fill="white"/>
<path d="M107.321 149.253V177.364H74.7185V149.253H107.321ZM107.65 148.923H74.3892V177.693H107.65V148.923Z" fill="#E2E2EC"/>
<path d="M240.516 177.858H207.587V206.302H240.516V177.858Z" fill="white"/>
<path d="M240.341 178.023V206.137H207.739V178.023H240.341ZM240.67 177.693H207.409V206.467H240.67V177.693Z" fill="#E2E2EC"/>
<path d="M207.258 177.858H174.33V206.302H207.258V177.858Z" fill="white"/>
<path d="M207.08 178.023V206.137H174.478V178.023H207.08ZM207.409 177.693H174.149V206.467H207.409V177.693Z" fill="#E2E2EC"/>
<path d="M174 177.858H141.072V206.302H174V177.858Z" fill="white"/>
<path d="M173.836 178.023V206.137H141.234V178.023H173.836ZM174.165 177.693H140.904V206.467H174.165V177.693Z" fill="#E2E2EC"/>
<path d="M140.743 177.858H107.815V206.302H140.743V177.858Z" fill="white"/>
<path d="M140.578 178.023V206.137H107.976V178.023H140.578ZM140.908 177.693H107.647V206.467H140.908V177.693Z" fill="#E2E2EC"/>
<path d="M107.485 177.858H74.5571V206.302H107.485V177.858Z" fill="white"/>
<path d="M107.321 178.023V206.137H74.7185V178.023H107.321ZM107.65 177.693H74.3892V206.467H107.65V177.693Z" fill="#E2E2EC"/>
<path d="M78.9008 68.9761C79.9375 68.9761 80.7779 68.1348 80.7779 67.097C80.7779 66.0592 79.9375 65.2179 78.9008 65.2179C77.8641 65.2179 77.0237 66.0592 77.0237 67.097C77.0237 68.1348 77.8641 68.9761 78.9008 68.9761Z" fill="#FC6681"/>
<path d="M83.5902 68.9761C84.6269 68.9761 85.4673 68.1348 85.4673 67.097C85.4673 66.0592 84.6269 65.2179 83.5902 65.2179C82.5535 65.2179 81.7131 66.0592 81.7131 67.097C81.7131 68.1348 82.5535 68.9761 83.5902 68.9761Z" fill="#FFD037"/>
<path d="M145.185 96.8329C146.222 96.8329 147.062 95.9916 147.062 94.9538C147.062 93.916 146.222 93.0747 145.185 93.0747C144.149 93.0747 143.308 93.916 143.308 94.9538C143.308 95.9916 144.149 96.8329 145.185 96.8329Z" fill="#6C63FF"/>
<path d="M149.878 96.8329C150.915 96.8329 151.755 95.9916 151.755 94.9538C151.755 93.916 150.915 93.0747 149.878 93.0747C148.841 93.0747 148.001 93.916 148.001 94.9538C148.001 95.9916 148.841 96.8329 149.878 96.8329Z" fill="#6C63FF"/>
<path d="M245.551 150.667C246.587 150.667 247.428 149.826 247.428 148.788C247.428 147.75 246.587 146.909 245.551 146.909C244.514 146.909 243.674 147.75 243.674 148.788C243.674 149.826 244.514 150.667 245.551 150.667Z" fill="#6C63FF"/>
<path d="M246.489 148.478C247.526 148.478 248.366 147.637 248.366 146.599C248.366 145.562 247.526 144.72 246.489 144.72C245.453 144.72 244.612 145.562 244.612 146.599C244.612 147.637 245.453 148.478 246.489 148.478Z" fill="#6C63FF"/>
<path d="M247.428 146.599C248.465 146.599 249.305 145.758 249.305 144.72C249.305 143.682 248.465 142.841 247.428 142.841C246.391 142.841 245.551 143.682 245.551 144.72C245.551 145.758 246.391 146.599 247.428 146.599Z" fill="#6C63FF"/>
<path d="M212.408 68.9761C213.445 68.9761 214.286 68.1348 214.286 67.097C214.286 66.0592 213.445 65.2179 212.408 65.2179C211.372 65.2179 210.531 66.0592 210.531 67.097C210.531 68.1348 211.372 68.9761 212.408 68.9761Z" fill="#6C63FF"/>
<path d="M217.098 68.9761C218.135 68.9761 218.975 68.1348 218.975 67.097C218.975 66.0592 218.135 65.2179 217.098 65.2179C216.061 65.2179 215.221 66.0592 215.221 67.097C215.221 68.1348 216.061 68.9761 217.098 68.9761Z" fill="#6C63FF"/>
<path d="M221.791 68.9761C222.827 68.9761 223.668 68.1348 223.668 67.097C223.668 66.0592 222.827 65.2179 221.791 65.2179C220.754 65.2179 219.914 66.0592 219.914 67.097C219.914 68.1348 220.754 68.9761 221.791 68.9761Z" fill="#6C63FF"/>
<path d="M226.48 68.9761C227.517 68.9761 228.357 68.1348 228.357 67.097C228.357 66.0592 227.517 65.2179 226.48 65.2179C225.443 65.2179 224.603 66.0592 224.603 67.097C224.603 68.1348 225.443 68.9761 226.48 68.9761Z" fill="#6C63FF"/>
<path d="M212.408 127.192C213.445 127.192 214.286 126.35 214.286 125.313C214.286 124.275 213.445 123.434 212.408 123.434C211.372 123.434 210.531 124.275 210.531 125.313C210.531 126.35 211.372 127.192 212.408 127.192Z" fill="#6C63FF"/>
<path d="M217.098 127.192C218.135 127.192 218.975 126.35 218.975 125.313C218.975 124.275 218.135 123.434 217.098 123.434C216.061 123.434 215.221 124.275 215.221 125.313C215.221 126.35 216.061 127.192 217.098 127.192Z" fill="#6C63FF"/>
<path d="M221.791 127.192C222.827 127.192 223.668 126.35 223.668 125.313C223.668 124.275 222.827 123.434 221.791 123.434C220.754 123.434 219.914 124.275 219.914 125.313C219.914 126.35 220.754 127.192 221.791 127.192Z" fill="#6C63FF"/>
<path d="M226.48 127.192C227.517 127.192 228.357 126.35 228.357 125.313C228.357 124.275 227.517 123.434 226.48 123.434C225.443 123.434 224.603 124.275 224.603 125.313C224.603 126.35 225.443 127.192 226.48 127.192Z" fill="#6C63FF"/>
<path d="M112.043 96.8329C113.08 96.8329 113.92 95.9916 113.92 94.9538C113.92 93.916 113.08 93.0747 112.043 93.0747C111.006 93.0747 110.166 93.916 110.166 94.9538C110.166 95.9916 111.006 96.8329 112.043 96.8329Z" fill="#FFD037"/>
<path d="M78.9008 125.316C79.9375 125.316 80.7779 124.475 80.7779 123.437C80.7779 122.399 79.9375 121.558 78.9008 121.558C77.8641 121.558 77.0237 122.399 77.0237 123.437C77.0237 124.475 77.8641 125.316 78.9008 125.316Z" fill="#FC6681"/>
<path d="M243.931 153.503C245.989 154.719 249.2 155.51 253.267 152.896L253.227 158.685C253.517 162.641 258.42 177.117 258.42 177.117L261.878 189.017C264.356 197.425 265.635 206.141 265.679 214.906C265.679 217.811 265.949 220.804 266.782 223.056C268.623 228.037 266.057 234.455 264.944 236.845C263.071 237.479 261.166 238.016 259.237 238.454C259.064 238.494 258.893 238.546 258.727 238.609L258.704 238.576C258.704 238.576 253.514 240.637 251.208 240.353C249.489 240.142 248.413 242.288 249.759 243.867C248.488 244.197 247.184 244.431 246.305 244.322C244 244.039 242.844 248.008 247.171 249.142C251.498 250.276 276.016 249.142 276.016 249.142C276.705 248.797 277.261 248.232 277.595 247.536C277.928 246.84 278.022 246.053 277.86 245.298C279.744 245.226 280.919 245.17 280.919 245.17C280.919 245.17 285.246 243.192 280.919 237.795L280.689 237.97L279.763 235.243V231.561C279.763 231.561 285.243 205.188 283.514 202.069C281.785 198.95 280.919 183.07 280.919 183.07L281.505 165.773C283.07 162.542 283.87 157.478 284.275 153.519C284.863 151.63 285.235 149.68 285.381 147.707C285.451 146.777 285.507 145.802 285.543 144.789C285.557 142.57 285.194 140.363 284.469 138.265C286.116 135.892 288.793 132.223 291.003 130.053C294.464 126.651 293.598 122.679 293.598 122.679L292.155 113.036L288.694 96.589C289.129 92.0264 288.177 89.3989 287.127 87.9154C287.377 86.4418 287.611 84.9682 287.785 83.488C288.553 77.0511 288.211 70.5302 286.774 64.2091C286.274 62.0037 285.592 59.7422 284.048 58.0708C282.299 56.1785 279.46 55.0246 278.808 52.5455C278.647 51.9291 278.64 51.273 278.407 50.6796C277.774 49.0577 275.772 48.4676 274.02 48.2566C270.898 47.8775 266.383 47.5973 263.383 48.817C261.289 49.6742 258.404 52.0346 257.258 54.5664C256.599 55.7301 256.293 56.9532 256.573 58.1037C256.683 58.5276 256.851 58.9346 257.07 59.3136C256.623 60.5262 256.396 61.8089 256.398 63.1015C256.409 65.3233 257.087 67.4906 258.345 69.321C259.604 71.1514 261.383 72.5602 263.452 73.364C263.521 73.5816 263.584 73.7958 263.637 74.0068C263.768 74.5148 263.862 75.0315 263.92 75.5529C263.864 76.5419 263.801 77.5606 263.755 78.5661C263.722 78.7046 263.687 78.8408 263.65 78.9749C261.169 80.0744 258.751 81.3092 256.405 82.6737C258.137 85.2254 256.115 96.0021 256.115 96.0021C251.788 98.5538 247.461 105.078 252.078 111.882C256.695 118.686 254.096 126.058 254.096 126.058L253.375 137.145V137.164L253.23 139.383H253.286L253.23 140.224L253.356 140.247V141.15C251.33 141.895 248.37 143.398 246.605 146.177C245.77 147.544 244.754 148.792 243.585 149.886C243.316 150.119 243.107 150.412 242.975 150.743C242.843 151.073 242.792 151.43 242.825 151.784C242.859 152.138 242.977 152.478 243.169 152.777C243.362 153.076 243.623 153.325 243.931 153.503ZM278.759 124.044C278.585 122.126 278.939 120.196 279.783 118.466C280.461 118.479 281.141 118.486 281.822 118.489C281.891 118.967 281.973 119.422 282.072 119.837C282.658 122.336 280.317 123.533 278.756 124.04L278.759 124.044Z" fill="url(#paint1_linear)"/>
<path d="M279.329 233.951L280.438 237.284L276.816 240.91L264.882 243.689L256.277 242.855L256.833 239.799C256.997 239.142 257.34 238.543 257.822 238.068C258.304 237.593 258.908 237.26 259.566 237.106C263.103 236.275 269.848 234.376 271.264 231.742L279.329 233.951Z" fill="#DB8B8B"/>
<path opacity="0.1" d="M279.329 233.951L280.438 237.284L276.816 240.91L264.882 243.689L256.277 242.855L256.833 239.799C256.997 239.142 257.34 238.543 257.822 238.068C258.304 237.593 258.908 237.26 259.566 237.106C263.103 236.275 269.848 234.376 271.264 231.742L279.329 233.951Z" fill="black"/>
<path d="M259.066 242.008L260.732 239.786L259.066 237.211C259.066 237.211 254.07 239.229 251.851 238.952C249.631 238.675 248.521 242.578 252.684 243.676C256.846 244.774 280.438 243.676 280.438 243.676C280.438 243.676 284.601 241.731 280.438 236.453L276.816 239.232C276.816 239.232 270.71 242.565 267.658 242.011L259.066 242.008Z" fill="#2E3037"/>
<path d="M251.571 246.725L260.176 247.56L272.11 244.78L275.733 241.154L275.439 240.271L275.024 239.031L274.61 237.824L266.561 235.603C266.15 236.274 265.586 236.839 264.915 237.251C262.3 239.041 257.604 240.333 254.847 240.979C254.736 241.007 254.626 241.041 254.518 241.082C253.934 241.278 253.409 241.618 252.991 242.071C252.574 242.524 252.276 243.075 252.127 243.673L251.571 246.725Z" fill="#DB8B8B"/>
<path opacity="0.1" d="M251.571 246.725L260.176 247.56L272.11 244.78L275.733 241.154L275.439 240.271L272.127 242.822C272.127 242.822 266.021 246.155 262.968 245.601H254.347L256.013 243.379L254.518 241.072C253.934 241.268 253.409 241.608 252.991 242.061C252.574 242.514 252.276 243.065 252.127 243.663L251.571 246.725Z" fill="black"/>
<path d="M254.347 245.898L256.013 243.676L254.347 241.101C254.347 241.101 249.351 243.119 247.131 242.842C244.912 242.565 243.802 246.468 247.965 247.566C252.127 248.664 275.719 247.566 275.719 247.566C275.719 247.566 279.882 245.621 275.719 240.343L272.097 243.122C272.097 243.122 265.991 246.455 262.939 245.901L254.347 245.898Z" fill="#2E3037"/>
<path d="M261.285 84.7473C261.285 84.7473 274.61 86.1352 272.667 80.5803C272.123 79.005 271.982 77.3188 272.255 75.6749C272.601 73.6367 273.406 71.7043 274.61 70.0244L262.119 71.9694C262.867 73.2224 263.437 74.5739 263.811 75.9848C265.3 81.8759 261.285 84.7473 261.285 84.7473Z" fill="#DB8B8B"/>
<path d="M284.044 148.096C284.044 148.096 283.768 160.043 280.992 165.878L280.435 182.826C280.435 182.826 281.268 198.387 282.935 201.443C284.601 204.499 279.312 230.338 279.312 230.338V234.785C279.312 234.785 270.421 238.118 267.931 234.228L270.43 201.162L269.321 155.319L284.044 148.096Z" fill="#474463"/>
<path opacity="0.1" d="M284.044 148.096C284.044 148.096 283.768 160.043 280.992 165.878L280.435 182.826C280.435 182.826 281.268 198.387 282.935 201.443C284.601 204.499 279.312 230.338 279.312 230.338V234.785C279.312 234.785 270.421 238.118 267.931 234.228L270.43 201.162L269.321 155.319L284.044 148.096Z" fill="black"/>
<path d="M289.597 109.752L291.263 114.2L292.649 123.648C292.837 124.964 292.708 126.306 292.273 127.562C291.838 128.818 291.11 129.953 290.15 130.871C286.821 134.204 282.378 141.15 282.378 141.15L277.109 125.326C277.109 125.326 282.378 124.492 281.552 120.879C280.725 117.266 280.992 110.573 280.992 110.573L289.597 109.752Z" fill="#CB6BE6"/>
<path opacity="0.05" d="M289.597 109.752L291.263 114.2L292.649 123.648C292.837 124.964 292.708 126.306 292.273 127.562C291.838 128.818 291.11 129.953 290.15 130.871C286.821 134.204 282.378 141.15 282.378 141.15L277.109 125.326C277.109 125.326 282.378 124.492 281.552 120.879C280.725 117.266 280.992 110.573 280.992 110.573L289.597 109.752Z" fill="#CB6BE6"/>
<path opacity="0.1" d="M264.928 237.254C268.488 242.859 274.03 239.684 275.011 239.051L274.61 237.824L266.561 235.603C266.154 236.274 265.594 236.84 264.928 237.254Z" fill="black"/>
<path d="M253.794 158.932C254.07 162.822 258.789 176.991 258.789 176.991L262.119 188.651C264.504 196.896 265.736 205.432 265.777 214.016C265.777 216.861 266.037 219.795 266.841 222C269.061 228.113 264.621 236.45 264.621 236.45C268.507 243.396 275.159 238.672 275.159 238.672V234.228C275.159 234.228 280.429 210.053 279.045 205.333C277.662 200.612 277.102 187.827 277.102 187.827V164.751C281.549 160.316 284.252 154.428 284.72 148.162C284.785 147.252 284.838 146.296 284.874 145.304C285.098 139.04 280.817 131.685 279.144 129.068C278.742 128.435 278.486 128.079 278.486 128.079L253.978 137.81L253.922 137.833V138.783V140.883L253.794 158.932Z" fill="#474463"/>
<path opacity="0.1" d="M262.119 71.9662C262.867 73.2191 263.437 74.5706 263.811 75.9815C265.168 76.4968 266.614 76.7349 268.064 76.6817C269.515 76.6284 270.939 76.285 272.255 75.6716C272.601 73.6346 273.406 71.7033 274.61 70.0244L262.119 71.9662Z" fill="black"/>
<path d="M267.671 76.1298C273.649 76.1298 278.495 71.2783 278.495 65.2937C278.495 59.3091 273.649 54.4576 267.671 54.4576C261.693 54.4576 256.846 59.3091 256.846 65.2937C256.846 71.2783 261.693 76.1298 267.671 76.1298Z" fill="#DB8B8B"/>
<path opacity="0.1" d="M253.794 140.873L253.912 140.896C265.55 143.293 280.162 131.148 280.162 131.148C279.77 130.487 279.432 129.796 279.151 129.081C278.749 128.448 278.492 128.092 278.492 128.092L253.985 137.824L253.922 138.796L253.794 140.873Z" fill="#CB6BE6"/>
<path d="M256.846 84.4671C256.846 84.4671 272.39 75.0189 277.386 78.9089L284.324 87.8099C284.324 87.8099 288.767 89.1978 287.947 98.0889L291.263 114.2L281.272 116.702C281.272 116.702 275.443 122.26 280.162 130.317C280.162 130.317 265.451 142.541 253.794 140.042L254.627 126.984C254.627 126.984 257.126 119.761 252.684 113.092C248.241 106.423 252.407 100.034 256.57 97.5318C256.57 97.5285 258.509 86.9693 256.846 84.4671Z" fill="#CB6BE6"/>
<path d="M256.013 141.15C256.013 141.15 250.184 142.261 247.408 146.708C246.607 148.042 245.63 149.262 244.504 150.334C244.25 150.565 244.054 150.851 243.93 151.17C243.806 151.489 243.758 151.833 243.79 152.174C243.822 152.515 243.933 152.844 244.114 153.135C244.295 153.425 244.541 153.67 244.833 153.849C247.036 155.167 250.629 155.988 255.167 152.256C262.952 145.874 256.013 141.15 256.013 141.15Z" fill="#DB8B8B"/>
<path opacity="0.1" d="M264.618 89.7484C264.618 89.7484 270.17 89.1913 271.557 103.641C272.943 118.09 275.179 121.423 275.179 121.423C275.179 121.423 276.566 128.926 273.236 133.37C269.907 137.814 263.521 147.262 263.521 147.262C263.521 147.262 256.583 149.207 255.196 142.261L263.801 126.147C263.801 126.147 265.188 120.589 261.858 116.699C258.529 112.809 256.013 86.9693 264.618 89.7484Z" fill="#CB6BE6"/>
<path d="M264.052 88.9143C264.052 88.9143 269.604 88.3572 270.99 102.806C272.377 117.256 274.613 120.589 274.613 120.589C274.613 120.589 275.999 128.092 272.67 132.536C269.34 136.98 262.955 146.428 262.955 146.428C262.955 146.428 256.016 148.373 254.63 141.427L263.235 125.313C263.235 125.313 264.621 119.755 261.292 115.865C257.963 111.974 255.457 86.1352 264.052 88.9143Z" fill="#CB6BE6"/>
<path opacity="0.1" d="M259.481 99.3317C259.481 99.3317 258.928 107.936 261.417 112.67C263.907 117.404 263.917 123.506 261.417 126.846" fill="#CB6BE6"/>
<path opacity="0.1" d="M258.094 88.7759C258.094 88.7759 260.314 86.5539 266.699 86.2737C273.085 85.9935 275.858 84.0518 275.858 84.0518" fill="#CB6BE6"/>
<path opacity="0.1" d="M273.533 51.2927C275.219 51.5004 277.155 52.0807 277.755 53.6663C277.978 54.2499 277.985 54.8927 278.14 55.496C278.769 57.9223 281.499 59.0531 283.182 60.9091C284.667 62.5574 285.322 64.7629 285.816 66.9222C287.202 73.1143 287.536 79.4958 286.804 85.7989C286.264 90.4142 285.158 94.9438 284.848 99.5724C284.538 104.201 285.105 109.07 287.631 112.96C288.717 114.632 290.153 116.102 290.924 117.941C289.333 119.234 287.137 119.418 285.085 119.487C282.699 119.569 280.311 119.569 277.922 119.487C276.671 119.445 275.364 119.362 274.284 118.729C273.484 118.217 272.827 117.511 272.374 116.675C271.007 114.368 270.664 111.566 270.727 108.876C270.79 106.185 271.211 103.509 271.26 100.815C271.287 99.3482 271.171 97.7889 270.328 96.5889C269.719 95.7219 268.794 95.1383 268.003 94.4362C265.04 91.7988 264.012 87.5725 263.913 83.6C263.815 79.6276 264.47 75.6485 264.134 71.6892C264.002 70.1398 263.423 68.2771 261.901 67.9771C261.42 67.8815 260.913 67.9771 260.452 67.7925C259.231 67.3211 259.349 65.597 259 64.3343C258.608 62.9168 257.4 61.8223 257.06 60.3783C256.26 57.0158 260.535 53.0037 263.337 51.8334C266.186 50.64 270.529 50.9235 273.533 51.2927Z" fill="black"/>
<path d="M273.809 50.7389C275.495 50.9466 277.432 51.5268 278.031 53.1125C278.255 53.696 278.262 54.3389 278.416 54.9422C279.045 57.3685 281.775 58.4993 283.458 60.3553C284.943 62.0036 285.599 64.2091 286.093 66.3684C287.479 72.5605 287.813 78.942 287.081 85.2451C286.541 89.8604 285.434 94.39 285.125 99.0185C284.815 103.647 285.381 108.516 287.907 112.406C288.994 114.078 290.43 115.548 291.2 117.388C289.61 118.68 287.413 118.864 285.362 118.934C282.975 119.015 280.588 119.015 278.199 118.934C276.948 118.891 275.64 118.808 274.56 118.175C273.76 117.663 273.103 116.957 272.65 116.122C271.283 113.814 270.941 111.012 271.004 108.322C271.066 105.632 271.488 102.955 271.537 100.261C271.563 98.7944 271.448 97.235 270.605 96.0351C269.996 95.168 269.07 94.5845 268.28 93.8823C265.316 91.245 264.289 87.0187 264.19 83.0462C264.091 79.0737 264.747 75.0947 264.411 71.1354C264.279 69.5859 263.699 67.7233 262.178 67.4233C261.697 67.3277 261.19 67.4233 260.729 67.2387C259.507 66.7673 259.626 65.0431 259.277 63.7805C258.885 62.363 257.676 61.2685 257.337 59.8245C256.537 56.4619 260.811 52.4499 263.614 51.2796C266.462 50.0829 270.806 50.3664 273.809 50.7389Z" fill="#472727"/>
</g>
<defs>
<linearGradient id="paint0_linear" x1="157.538" y1="229.355" x2="157.538" y2="10.9449" gradientUnits="userSpaceOnUse">
<stop stop-color="#808080" stop-opacity="0.25"/>
<stop offset="0.54" stop-color="#808080" stop-opacity="0.12"/>
<stop offset="1" stop-color="#808080" stop-opacity="0.1"/>
</linearGradient>
<linearGradient id="paint1_linear" x1="-92731.8" y1="162805" x2="-92731.8" y2="39378" gradientUnits="userSpaceOnUse">
<stop stop-color="#808080" stop-opacity="0.25"/>
<stop offset="0.54" stop-color="#808080" stop-opacity="0.12"/>
<stop offset="1" stop-color="#808080" stop-opacity="0.1"/>
</linearGradient>
<clipPath id="clip0">
<rect width="318" height="264" fill="white" transform="translate(0.00012207)"/>
</clipPath>
</defs>
</svg>
