<svg width="276" height="218" viewBox="0 0 276 218" fill="none" xmlns="http://www.w3.org/2000/svg">
<g clip-path="url(#clip0)">
<g opacity="0.5">
<path opacity="0.5" d="M111.968 0H16.6479C15.9197 0 15.3294 0.589068 15.3294 1.31572V146.448C15.3294 147.175 15.9197 147.764 16.6479 147.764H111.968C112.696 147.764 113.286 147.175 113.286 146.448V1.31572C113.286 0.589068 112.696 0 111.968 0Z" fill="url(#paint0_linear)"/>
</g>
<path d="M110.711 1.08496H17.9019C17.1737 1.08496 16.5834 1.67403 16.5834 2.40068V144.545C16.5834 145.272 17.1737 145.861 17.9019 145.861H110.711C111.439 145.861 112.029 145.272 112.029 144.545V2.40068C112.029 1.67403 111.439 1.08496 110.711 1.08496Z" fill="#F2F2F2"/>
<g opacity="0.5">
<path opacity="0.5" d="M43.8992 27.7559H27.4476C26.7195 27.7559 26.1292 28.3449 26.1292 29.0716V43.5854C26.1292 44.3121 26.7195 44.9011 27.4476 44.9011H43.8992C44.6274 44.9011 45.2177 44.3121 45.2177 43.5854V29.0716C45.2177 28.3449 44.6274 27.7559 43.8992 27.7559Z" fill="#6C63FF"/>
</g>
<path d="M101.66 27.7559H51.7719C51.3156 27.7559 50.9457 28.125 50.9457 28.5804V28.8377C50.9457 29.293 51.3156 29.6622 51.7719 29.6622H101.66C102.116 29.6622 102.486 29.293 102.486 28.8377V28.5804C102.486 28.125 102.116 27.7559 101.66 27.7559Z" fill="#E0E0E0"/>
<path d="M92.9639 33.4692H51.7719C51.3156 33.4692 50.9457 33.8384 50.9457 34.2938V34.551C50.9457 35.0064 51.3156 35.3756 51.7719 35.3756H92.9639C93.4202 35.3756 93.7902 35.0064 93.7902 34.551V34.2938C93.7902 33.8384 93.4202 33.4692 92.9639 33.4692Z" fill="#E0E0E0"/>
<g opacity="0.5">
<path opacity="0.5" d="M43.8992 54.4238H27.4476C26.7195 54.4238 26.1292 55.0129 26.1292 55.7395V70.2534C26.1292 70.98 26.7195 71.5691 27.4476 71.5691H43.8992C44.6274 71.5691 45.2177 70.98 45.2177 70.2534V55.7395C45.2177 55.0129 44.6274 54.4238 43.8992 54.4238Z" fill="#6C63FF"/>
</g>
<path d="M101.66 54.4238H51.7719C51.3156 54.4238 50.9457 54.793 50.9457 55.2483V55.5056C50.9457 55.961 51.3156 56.3302 51.7719 56.3302H101.66C102.116 56.3302 102.486 55.961 102.486 55.5056V55.2483C102.486 54.793 102.116 54.4238 101.66 54.4238Z" fill="#E0E0E0"/>
<path d="M101.66 60.1372H51.7719C51.3156 60.1372 50.9457 60.5064 50.9457 60.9617V61.219C50.9457 61.6744 51.3156 62.0435 51.7719 62.0435H101.66C102.116 62.0435 102.486 61.6744 102.486 61.219V60.9617C102.486 60.5064 102.116 60.1372 101.66 60.1372Z" fill="#E0E0E0"/>
<g opacity="0.5">
<path opacity="0.5" d="M43.8992 81.0923H27.4476C26.7195 81.0923 26.1292 81.6814 26.1292 82.408V96.9218C26.1292 97.6485 26.7195 98.2376 27.4476 98.2376H43.8992C44.6274 98.2376 45.2177 97.6485 45.2177 96.9218V82.408C45.2177 81.6814 44.6274 81.0923 43.8992 81.0923Z" fill="#6C63FF"/>
</g>
<path d="M101.66 81.0923H51.7719C51.3156 81.0923 50.9457 81.4614 50.9457 81.9168V82.1741C50.9457 82.6295 51.3156 82.9986 51.7719 82.9986H101.66C102.116 82.9986 102.486 82.6295 102.486 82.1741V81.9168C102.486 81.4614 102.116 81.0923 101.66 81.0923Z" fill="#E0E0E0"/>
<path d="M55.8475 86.8081H51.7719C51.3156 86.8081 50.9457 87.1773 50.9457 87.6326V87.8899C50.9457 88.3453 51.3156 88.7144 51.7719 88.7144H55.8475C56.3038 88.7144 56.6737 88.3453 56.6737 87.8899V87.6326C56.6737 87.1773 56.3038 86.8081 55.8475 86.8081Z" fill="#E0E0E0"/>
<g opacity="0.5">
<path opacity="0.5" d="M171.454 47.5762H77.6023C76.8741 47.5762 76.2838 48.1652 76.2838 48.8919V133.115C76.2838 133.842 76.8741 134.431 77.6023 134.431H171.454C172.182 134.431 172.772 133.842 172.772 133.115V48.8919C172.772 48.1652 172.182 47.5762 171.454 47.5762Z" fill="url(#paint1_linear)"/>
</g>
<path d="M170.127 48.4478H79.0936C78.3654 48.4478 77.7751 49.0368 77.7751 49.7635V131.259C77.7751 131.986 78.3654 132.575 79.0936 132.575H170.127C170.855 132.575 171.445 131.986 171.445 131.259V49.7635C171.445 49.0368 170.855 48.4478 170.127 48.4478Z" fill="white"/>
<g opacity="0.5">
<path opacity="0.5" d="M105.779 66.5229H88.2907C87.5625 66.5229 86.9722 67.112 86.9722 67.8387V83.2823C86.9722 84.0089 87.5625 84.598 88.2907 84.598H105.779C106.508 84.598 107.098 84.0089 107.098 83.2823V67.8387C107.098 67.112 106.508 66.5229 105.779 66.5229Z" fill="#6C63FF"/>
</g>
<path d="M166.602 66.5229H114.01C113.527 66.5229 113.137 66.913 113.137 67.3942V67.6603C113.137 68.1415 113.527 68.5316 114.01 68.5316H166.602C167.084 68.5316 167.475 68.1415 167.475 67.6603V67.3942C167.475 66.913 167.084 66.5229 166.602 66.5229Z" fill="#E0E0E0"/>
<path d="M166.602 72.5488H114.01C113.527 72.5488 113.137 72.9389 113.137 73.4201V73.6862C113.137 74.1674 113.527 74.5575 114.01 74.5575H166.602C167.084 74.5575 167.475 74.1674 167.475 73.6862V73.4201C167.475 72.9389 167.084 72.5488 166.602 72.5488Z" fill="#E0E0E0"/>
<path d="M166.602 94.416H85.8325C85.3502 94.416 84.9593 94.8061 84.9593 95.2873V95.5534C84.9593 96.0346 85.3502 96.4247 85.8325 96.4247H166.602C167.084 96.4247 167.475 96.0346 167.475 95.5534V95.2873C167.475 94.8061 167.084 94.416 166.602 94.416Z" fill="#E0E0E0"/>
<path d="M166.602 100.442H85.8325C85.3502 100.442 84.9593 100.832 84.9593 101.313V101.579C84.9593 102.06 85.3502 102.451 85.8325 102.451H166.602C167.084 102.451 167.475 102.06 167.475 101.579V101.313C167.475 100.832 167.084 100.442 166.602 100.442Z" fill="#E0E0E0"/>
<path d="M166.602 108.474H85.8325C85.3502 108.474 84.9593 108.864 84.9593 109.345V109.611C84.9593 110.092 85.3502 110.482 85.8325 110.482H166.602C167.084 110.482 167.475 110.092 167.475 109.611V109.345C167.475 108.864 167.084 108.474 166.602 108.474Z" fill="#E0E0E0"/>
<path d="M146.476 114.5H85.8325C85.3502 114.5 84.9593 114.89 84.9593 115.371V115.637C84.9593 116.119 85.3502 116.509 85.8325 116.509H146.476C146.958 116.509 147.349 116.119 147.349 115.637V115.371C147.349 114.89 146.958 114.5 146.476 114.5Z" fill="#E0E0E0"/>
<g opacity="0.5">
<path opacity="0.5" d="M175.105 80.0773L175.448 78.5511L174.967 80.0422C162.47 76.674 149.588 74.9402 136.643 74.8846C43.3777 74.3349 -2.28882e-05 156.591 -2.28882e-05 156.591L88.3844 203.126C88.3844 203.126 99.2252 169.578 137.728 170.672C140.376 170.744 143.018 170.974 145.638 171.362L133.924 207.772C133.424 208.483 133.071 209.287 132.888 210.137C132.705 210.986 132.694 211.864 132.857 212.717C133.02 213.571 133.353 214.383 133.836 215.106C134.319 215.829 134.943 216.448 135.67 216.926C136.398 217.403 137.214 217.73 138.07 217.888C138.927 218.045 139.806 218.029 140.656 217.84C141.506 217.652 142.31 217.295 143.019 216.791C143.729 216.287 144.329 215.646 144.786 214.906V214.889C145.394 213.903 145.725 212.772 145.744 211.614C145.744 211.418 145.744 211.222 145.723 211.029L154.191 173.271C179.418 181.013 187.062 203.123 187.062 203.123L276 158.754C276 158.754 242.599 98.3687 175.105 80.0773Z" fill="url(#paint2_linear)"/>
</g>
<path d="M136.661 75.7971C44.5848 75.262 1.75794 156.462 1.75794 156.462L89.0173 202.398C89.0173 202.398 99.7233 169.277 137.733 170.345C140.411 170.417 143.081 170.653 145.729 171.052L174.624 80.9254C162.247 77.5768 149.485 75.8528 136.661 75.7971Z" fill="#FEFC09"/>
<path d="M174.624 80.9258L145.729 171.061C177.261 175.842 186.446 202.399 186.446 202.399L274.242 158.6C274.242 158.6 241.254 98.9833 174.624 80.9258Z" fill="#E0E0E0"/>
<path d="M145.635 210.208L174.97 79.417L133.974 206.992C133.472 207.694 133.117 208.489 132.93 209.331C132.743 210.173 132.728 211.043 132.886 211.891C133.044 212.739 133.372 213.546 133.85 214.264C134.328 214.982 134.947 215.597 135.668 216.071C136.39 216.545 137.2 216.869 138.05 217.023C138.9 217.177 139.773 217.159 140.615 216.969C141.458 216.779 142.254 216.421 142.955 215.917C143.656 215.413 144.248 214.773 144.695 214.035V214.018C145.295 213.045 145.622 211.929 145.641 210.787C145.659 210.585 145.65 210.398 145.635 210.208Z" fill="#535461"/>
<g opacity="0.7">
<path opacity="0.7" d="M156.239 75.6422L155.471 75.4989L156.986 69.9436C159.371 52.1083 150.361 50.2985 146.983 50.2371C146.595 50.0953 146.198 49.9752 145.797 49.8775V47.7723C147.922 47.249 149.847 46.1153 151.334 44.5117C152.821 42.908 153.804 40.9047 154.162 38.7494H154.191C154.727 38.7494 155.164 37.9337 155.164 36.9279C155.185 36.3947 155.036 35.8686 154.739 35.425C154.778 35.0352 154.797 34.6453 154.797 34.2555C154.798 32.6813 154.479 31.1234 153.857 29.6763C153.236 28.2293 152.327 26.9233 151.185 25.8378C151.029 25.06 150.75 24.312 150.358 23.6216C149.529 22.1597 148.149 20.6451 148.712 19.0633L145.07 19.4376L145.035 17.043C143.898 17.2476 143.42 18.5604 142.746 19.4961C141.123 21.7474 137.868 22.0602 135.715 23.8145C134.982 24.3993 133.336 26.2238 133.649 27.4138C132.203 29.3994 131.425 31.7919 131.428 34.2467C131.428 34.6366 131.448 35.0264 131.487 35.4163C131.19 35.8599 131.041 36.3859 131.062 36.9191C131.062 37.9249 131.498 38.7406 132.035 38.7406H132.064C132.422 40.8959 133.405 42.8993 134.892 44.5029C136.378 46.1066 138.303 47.2402 140.429 47.7635V49.8687C140.027 49.9664 139.631 50.0865 139.242 50.2283C135.864 50.2897 126.854 52.0879 129.239 69.9349L130.754 75.4901L130.394 75.5574C129.858 75.6572 129.347 75.8614 128.89 76.1583C128.433 76.4552 128.039 76.839 127.731 77.2878C127.423 77.7366 127.206 78.2416 127.093 78.7739C126.981 79.3063 126.974 79.8556 127.074 80.3904L133.06 112.316C133.121 112.642 133.31 112.932 133.585 113.12C133.859 113.308 134.198 113.379 134.525 113.318L135.577 113.123V113.742C134.993 114.03 134.502 114.475 134.158 115.027C133.814 115.579 133.632 116.215 133.631 116.865V117.26H140.687V116.865C140.686 116.262 140.529 115.67 140.231 115.145C139.933 114.621 139.503 114.183 138.984 113.874V112.485L139.945 112.307C140.273 112.246 140.563 112.058 140.751 111.783C140.94 111.509 141.011 111.172 140.95 110.845L135.343 80.8524H150.892L145.29 110.848C145.229 111.175 145.301 111.512 145.489 111.786C145.677 112.06 145.967 112.249 146.295 112.31L147.256 112.488V113.877C146.737 114.186 146.307 114.624 146.009 115.148C145.711 115.673 145.554 116.265 145.553 116.868V117.263H152.609V116.868C152.608 116.218 152.426 115.582 152.082 115.03C151.738 114.478 151.247 114.033 150.663 113.745V113.126L151.715 113.321C152.043 113.382 152.381 113.311 152.655 113.123C152.93 112.934 153.119 112.645 153.18 112.319L159.227 79.9928C159.318 79.5113 159.312 79.0167 159.211 78.5374C159.109 78.0581 158.914 77.6034 158.637 77.1994C158.359 76.7953 158.004 76.4498 157.593 76.1826C157.182 75.9154 156.721 75.7318 156.239 75.6422Z" fill="url(#paint3_linear)"/>
</g>
<path d="M139.143 109.059H135.867V113.497H139.143V109.059Z" fill="#FDB797"/>
<path d="M150.376 109.059H147.1V113.497H150.376V109.059Z" fill="#FDB797"/>
<path d="M153.889 72.6279H132.357V80.3351H153.889V72.6279Z" fill="#4D8AF0"/>
<g opacity="0.05">
<path opacity="0.05" d="M153.889 72.6279H132.357V80.3351H153.889V72.6279Z" fill="black"/>
</g>
<path opacity="0.1" d="M132.357 74.0284C132.357 74.0284 140.391 75.8967 143.122 75.8967C145.852 75.8967 153.886 74.0284 153.886 74.0284V72.8589H132.357V74.0284Z" fill="black"/>
<path d="M153.886 73.794C153.886 73.794 145.852 75.6623 143.122 75.6623C140.391 75.6623 132.357 73.794 132.357 73.794V60.9496C132.357 58.1006 133.491 55.3683 135.51 53.3538C137.529 51.3393 140.267 50.2075 143.122 50.2075C145.976 50.2075 148.714 51.3393 150.733 53.3538C152.752 55.3683 153.886 58.1006 153.886 60.9496V73.794Z" fill="#F55F44"/>
<path d="M140.549 44.834H145.697V51.0149C145.697 51.6051 145.462 52.171 145.044 52.5883C144.626 53.0055 144.059 53.24 143.467 53.24H142.782C142.19 53.24 141.623 53.0055 141.205 52.5883C140.787 52.171 140.552 51.6051 140.552 51.0149V44.834H140.549Z" fill="#FDB797"/>
<path d="M139.758 110.655L135.143 111.514C134.75 111.585 134.344 111.498 134.015 111.272C133.686 111.046 133.459 110.699 133.385 110.307L127.883 80.8816C127.762 80.2375 127.77 79.5759 127.905 78.9347C128.041 78.2935 128.301 77.6852 128.672 77.1446C129.044 76.604 129.518 76.1417 130.068 75.784C130.618 75.4264 131.234 75.1805 131.879 75.0603L133.069 74.8381C133.462 74.7671 133.868 74.8542 134.197 75.0804C134.526 75.3066 134.753 75.6536 134.827 76.0456L140.98 108.889C141.016 109.085 141.014 109.286 140.972 109.481C140.931 109.677 140.851 109.862 140.737 110.026C140.624 110.19 140.479 110.33 140.311 110.438C140.143 110.546 139.955 110.62 139.758 110.655Z" fill="#4D8AF0"/>
<path d="M146.473 110.655L151.088 111.515C151.481 111.585 151.887 111.498 152.216 111.272C152.546 111.046 152.772 110.699 152.846 110.307L158.442 80.3904C158.661 79.2199 158.404 78.0108 157.73 77.0288C157.055 76.0469 156.017 75.3725 154.844 75.1538L153.162 74.841C152.769 74.77 152.363 74.8572 152.034 75.0834C151.705 75.3096 151.479 75.6565 151.404 76.0485L145.252 108.892C145.215 109.088 145.218 109.289 145.26 109.484C145.302 109.678 145.382 109.863 145.495 110.027C145.609 110.191 145.754 110.331 145.921 110.438C146.089 110.546 146.277 110.62 146.473 110.655Z" fill="#4D8AF0"/>
<path opacity="0.1" d="M140.549 48.7285C142.24 49.1436 144.006 49.1436 145.697 48.7285V45.0679H140.549V48.7285Z" fill="black"/>
<path d="M143.121 46.7021C149.326 46.7021 154.355 41.6832 154.355 35.4922C154.355 29.3011 149.326 24.2822 143.121 24.2822C136.917 24.2822 131.888 29.3011 131.888 35.4922C131.888 41.6832 136.917 46.7021 143.121 46.7021Z" fill="#333333"/>
<path d="M143.122 48.8045C149.067 48.8045 153.886 43.9951 153.886 38.0624C153.886 32.1297 149.067 27.3203 143.122 27.3203C137.176 27.3203 132.357 32.1297 132.357 38.0624C132.357 43.9951 137.176 48.8045 143.122 48.8045Z" fill="#FDB797"/>
<path d="M136.013 25.4547C138.085 23.7677 141.217 23.4665 142.776 21.2999C143.423 20.3994 143.883 19.1334 144.976 18.9375L145.008 21.2415L148.524 20.8818C147.982 22.4022 149.31 23.8641 150.109 25.2676C150.697 26.3046 151.018 27.4709 151.044 28.6621C149.828 29.3901 148.319 28.5949 146.966 28.1709C145.612 27.747 144.25 27.7148 142.864 27.6768C142.156 27.6277 141.446 27.667 140.748 27.7937C140.145 27.9554 139.556 28.1696 138.99 28.4341C138.059 28.8229 135.114 30.2936 134.25 29.3463C133.277 28.2733 135.214 26.1067 136.013 25.4547Z" fill="#333333"/>
<path opacity="0.1" d="M136.599 32.6735C137.188 32.9956 137.836 33.1946 138.504 33.2583C141.262 33.6346 144.07 33.3201 146.676 32.3431C147.103 33.422 148.14 34.1647 149.251 34.5155C150.361 34.8664 151.539 34.8839 152.702 34.9015C152.958 34.9302 153.216 34.8813 153.444 34.7611C153.962 34.4132 153.71 33.6121 153.409 33.0682L151.908 30.3549C151.466 29.5538 151.009 28.7351 150.323 28.1299C149.462 27.3697 148.319 27.013 147.194 26.7879C144.531 26.2587 141.782 26.3498 139.16 27.0539C136.356 27.7937 132.755 30.352 136.599 32.6735Z" fill="black"/>
<path d="M136.599 32.4396C137.188 32.7617 137.836 32.9607 138.504 33.0244C141.262 33.4008 144.07 33.0863 146.676 32.1092C147.103 33.1881 148.14 33.9308 149.251 34.2816C150.361 34.6325 151.539 34.65 152.702 34.6676C152.958 34.6963 153.216 34.6474 153.444 34.5272C153.962 34.1793 153.71 33.3782 153.409 32.8343L151.908 30.121C151.466 29.3199 151.009 28.5012 150.323 27.896C149.462 27.1358 148.319 26.7791 147.194 26.554C144.531 26.0249 141.782 26.1159 139.16 26.82C136.356 27.5539 132.755 30.121 136.599 32.4396Z" fill="#333333"/>
<path d="M153.772 39.8138C154.29 39.8138 154.709 39.0297 154.709 38.0624C154.709 37.0951 154.29 36.311 153.772 36.311C153.254 36.311 152.834 37.0951 152.834 38.0624C152.834 39.0297 153.254 39.8138 153.772 39.8138Z" fill="#FDB797"/>
<path d="M132.474 39.8138C132.992 39.8138 133.412 39.0297 133.412 38.0624C133.412 37.0951 132.992 36.311 132.474 36.311C131.956 36.311 131.537 37.0951 131.537 38.0624C131.537 39.0297 131.956 39.8138 132.474 39.8138Z" fill="#FDB797"/>
<path d="M140.59 50.9213C140.59 50.9213 126.972 48.8045 129.782 69.8238L131.419 75.8498L136.107 75.6627C136.107 75.6627 133.066 68.6455 134.935 63.9849C136.805 59.3244 140.59 50.9213 140.59 50.9213Z" fill="#F55F44"/>
<path d="M145.653 50.9213C145.653 50.9213 159.271 48.8045 156.461 69.8238L154.824 75.8498L150.136 75.6627C150.136 75.6627 153.177 68.6455 151.308 63.9849C149.438 59.3244 145.653 50.9213 145.653 50.9213Z" fill="#F55F44"/>
<path d="M133.995 79.1655C135.417 79.1655 136.57 78.0148 136.57 76.5954C136.57 75.176 135.417 74.0254 133.995 74.0254C132.572 74.0254 131.419 75.176 131.419 76.5954C131.419 78.0148 132.572 79.1655 133.995 79.1655Z" fill="#FDB797"/>
<path d="M152.717 79.1655C154.139 79.1655 155.292 78.0148 155.292 76.5954C155.292 75.176 154.139 74.0254 152.717 74.0254C151.295 74.0254 150.142 75.176 150.142 76.5954C150.142 78.0148 151.295 79.1655 152.717 79.1655Z" fill="#FDB797"/>
<path d="M136.936 111.628H137.842C138.619 111.628 139.364 111.936 139.914 112.485C140.463 113.033 140.772 113.777 140.772 114.552V115.353H133.995V114.552C133.995 114.167 134.071 113.786 134.219 113.431C134.367 113.075 134.584 112.752 134.857 112.481C135.13 112.209 135.455 111.994 135.812 111.848C136.168 111.701 136.551 111.627 136.936 111.628Z" fill="#333333"/>
<path d="M148.404 111.628H149.31C150.087 111.628 150.832 111.936 151.381 112.485C151.931 113.033 152.239 113.777 152.239 114.552V115.353H145.463V114.552C145.463 114.167 145.539 113.786 145.687 113.431C145.835 113.075 146.052 112.752 146.325 112.481C146.598 112.209 146.923 111.994 147.279 111.848C147.636 111.701 148.018 111.627 148.404 111.628Z" fill="#333333"/>
<path opacity="0.1" d="M134.698 62.1167C134.698 62.1167 133.76 67.0199 135.401 69.1339L134.698 62.1167Z" fill="black"/>
<path opacity="0.1" d="M151.548 62.1167C151.548 62.1167 152.486 67.0199 150.845 69.1339L151.548 62.1167Z" fill="black"/>
</g>
<defs>
<linearGradient id="paint0_linear" x1="64.3062" y1="147.764" x2="64.3062" y2="0" gradientUnits="userSpaceOnUse">
<stop stop-color="#808080" stop-opacity="0.25"/>
<stop offset="0.54" stop-color="#808080" stop-opacity="0.12"/>
<stop offset="1" stop-color="#808080" stop-opacity="0.1"/>
</linearGradient>
<linearGradient id="paint1_linear" x1="41085.9" y1="39981.8" x2="41085.9" y2="14180.6" gradientUnits="userSpaceOnUse">
<stop stop-color="#808080" stop-opacity="0.25"/>
<stop offset="0.54" stop-color="#808080" stop-opacity="0.12"/>
<stop offset="1" stop-color="#808080" stop-opacity="0.1"/>
</linearGradient>
<linearGradient id="paint2_linear" x1="165600" y1="118051" x2="165600" y2="47999.1" gradientUnits="userSpaceOnUse">
<stop stop-color="#808080" stop-opacity="0.25"/>
<stop offset="0.54" stop-color="#808080" stop-opacity="0.12"/>
<stop offset="1" stop-color="#808080" stop-opacity="0.1"/>
</linearGradient>
<linearGradient id="paint3_linear" x1="20067.4" y1="48104.5" x2="20067.4" y2="13752.2" gradientUnits="userSpaceOnUse">
<stop stop-color="#808080" stop-opacity="0.25"/>
<stop offset="0.54" stop-color="#808080" stop-opacity="0.12"/>
<stop offset="1" stop-color="#808080" stop-opacity="0.1"/>
</linearGradient>
<clipPath id="clip0">
<rect width="276" height="218" fill="white"/>
</clipPath>
</defs>
</svg>
