<svg width="307" height="220" viewBox="0 0 307 220" fill="none" xmlns="http://www.w3.org/2000/svg">
<g clip-path="url(#clip0)">
<path opacity="0.1" d="M32.239 199.361C45.305 199.361 55.8971 197.657 55.8971 195.556C55.8971 193.454 45.305 191.751 32.239 191.751C19.1731 191.751 8.58099 193.454 8.58099 195.556C8.58099 197.657 19.1731 199.361 32.239 199.361Z" fill="#6C63FF"/>
<path opacity="0.1" d="M244.476 220C267.643 220 286.424 218.174 286.424 215.922C286.424 213.669 267.643 211.843 244.476 211.843C221.308 211.843 202.527 213.669 202.527 215.922C202.527 218.174 221.308 220 244.476 220Z" fill="#6C63FF"/>
<path d="M282.455 28.9116H34.4714C32.6228 28.9116 31.1242 30.4121 31.1242 32.263V170.006C31.1242 171.857 32.6228 173.357 34.4714 173.357H282.455C284.303 173.357 285.802 171.857 285.802 170.006V32.263C285.802 30.4121 284.303 28.9116 282.455 28.9116Z" fill="url(#paint0_linear)"/>
<path d="M282.08 30.9429H34.8761C33.0275 30.9429 31.5289 32.4433 31.5289 34.2942V169.526C31.5289 171.377 33.0275 172.877 34.8761 172.877H282.08C283.928 172.877 285.427 171.377 285.427 169.526V34.2942C285.427 32.4433 283.928 30.9429 282.08 30.9429Z" fill="white"/>
<path d="M282.08 30.9429H34.8761C33.0275 30.9429 31.5289 32.4433 31.5289 34.2942V169.526C31.5289 171.377 33.0275 172.877 34.8761 172.877H282.08C283.928 172.877 285.427 171.377 285.427 169.526V34.2942C285.427 32.4433 283.928 30.9429 282.08 30.9429Z" fill="white"/>
<path opacity="0.04" d="M282.08 30.9429H34.8761C33.0275 30.9429 31.5289 32.4433 31.5289 34.2942V169.526C31.5289 171.377 33.0275 172.877 34.8761 172.877H282.08C283.928 172.877 285.427 171.377 285.427 169.526V34.2942C285.427 32.4433 283.928 30.9429 282.08 30.9429Z" fill="white"/>
<path d="M284.138 29.314H32.8179C32.476 29.314 32.1482 29.4499 31.9064 29.692C31.6647 29.934 31.5289 30.2623 31.5289 30.6046V36.0596H285.416V30.6046C285.416 30.2642 285.282 29.9375 285.042 29.6958C284.803 29.454 284.478 29.3168 284.138 29.314Z" fill="#5A5773"/>
<path d="M36.5992 34.4311C37.5613 34.4311 38.3412 33.6502 38.3412 32.687C38.3412 31.7237 37.5613 30.9429 36.5992 30.9429C35.6372 30.9429 34.8573 31.7237 34.8573 32.687C34.8573 33.6502 35.6372 34.4311 36.5992 34.4311Z" fill="white"/>
<path d="M41.2891 34.4311C42.2511 34.4311 43.031 33.6502 43.031 32.687C43.031 31.7237 42.2511 30.9429 41.2891 30.9429C40.327 30.9429 39.5471 31.7237 39.5471 32.687C39.5471 33.6502 40.327 34.4311 41.2891 34.4311Z" fill="white"/>
<path d="M45.9788 34.4311C46.9408 34.4311 47.7207 33.6502 47.7207 32.687C47.7207 31.7237 46.9408 30.9429 45.9788 30.9429C45.0168 30.9429 44.2369 31.7237 44.2369 32.687C44.2369 33.6502 45.0168 34.4311 45.9788 34.4311Z" fill="white"/>
<path opacity="0.2" d="M120.576 48.7461H52.4401V54.5365H120.576V48.7461Z" fill="#6C63FF"/>
<path opacity="0.1" d="M264.516 71.9639H52.4401V161.036H264.516V71.9639Z" fill="#5A5773"/>
<path opacity="0.1" d="M176.613 77.773H172.981V70.7107C172.981 62.7415 166.635 56.1167 158.676 55.9959C156.757 55.9757 154.853 56.336 153.073 57.0561C151.294 57.7761 149.674 58.8416 148.308 60.1913C146.941 61.5409 145.855 63.1479 145.112 64.9197C144.369 66.6915 143.983 68.5931 143.977 70.5148V77.773H140.354C138.753 77.7779 137.218 78.417 136.086 79.5506C134.954 80.6843 134.316 82.2204 134.311 83.8236V112.861C134.316 114.465 134.954 116.001 136.086 117.134C137.218 118.268 138.753 118.907 140.354 118.912H176.613C178.214 118.907 179.748 118.268 180.879 117.134C182.011 116.001 182.649 114.464 182.653 112.861V83.8236C182.649 82.2206 182.011 80.6845 180.879 79.5508C179.748 78.4171 178.214 77.7779 176.613 77.773ZM160.6 96.6494V107.05C160.604 107.6 160.398 108.132 160.025 108.536C159.652 108.941 159.139 109.188 158.59 109.228C158.304 109.242 158.018 109.197 157.749 109.096C157.481 108.996 157.235 108.842 157.028 108.644C156.821 108.446 156.655 108.207 156.543 107.944C156.43 107.68 156.372 107.396 156.371 107.109V96.644C155.391 96.1653 154.602 95.3681 154.132 94.3824C153.662 93.3967 153.54 92.2807 153.786 91.2166C154.031 90.1525 154.629 89.203 155.483 88.5232C156.337 87.8433 157.395 87.4732 158.486 87.4732C159.577 87.4732 160.635 87.8433 161.489 88.5232C162.342 89.203 162.941 90.1525 163.186 91.2166C163.431 92.2807 163.309 93.3967 162.84 94.3824C162.37 95.3681 161.581 96.1653 160.6 96.644V96.6494ZM168.758 77.773H148.206V70.5148C148.206 67.7871 149.288 65.1712 151.214 63.2424C153.141 61.3136 155.754 60.23 158.478 60.23C161.202 60.23 163.815 61.3136 165.741 63.2424C167.668 65.1712 168.75 67.7871 168.75 70.5148L168.758 77.773Z" fill="black"/>
<path d="M176.613 77.2363H172.981V70.1741C172.981 62.2049 166.635 55.58 158.676 55.4593C156.757 55.4391 154.853 55.7994 153.073 56.5195C151.294 57.2395 149.674 58.305 148.308 59.6546C146.941 61.0043 145.855 62.6113 145.112 64.3831C144.369 66.1549 143.983 68.0565 143.977 69.9782V77.2363H140.354C138.753 77.2413 137.218 77.8804 136.086 79.014C134.954 80.1476 134.316 81.6838 134.311 83.287V112.325C134.316 113.928 134.954 115.464 136.086 116.598C137.218 117.731 138.753 118.371 140.354 118.375H176.613C178.214 118.371 179.748 117.731 180.879 116.598C182.011 115.464 182.649 113.928 182.653 112.325V83.287C182.649 81.684 182.011 80.1479 180.879 79.0142C179.748 77.8804 178.214 77.2413 176.613 77.2363ZM160.6 96.1128V106.513C160.604 107.064 160.398 107.595 160.025 108C159.652 108.404 159.139 108.652 158.59 108.692C158.304 108.705 158.018 108.66 157.749 108.56C157.481 108.459 157.235 108.305 157.028 108.107C156.821 107.909 156.655 107.671 156.543 107.407C156.43 107.143 156.372 106.859 156.371 106.572V96.1074C155.391 95.6287 154.602 94.8315 154.132 93.8458C153.662 92.8601 153.54 91.7441 153.786 90.68C154.031 89.6159 154.629 88.6664 155.483 87.9865C156.337 87.3067 157.395 86.9366 158.486 86.9366C159.577 86.9366 160.635 87.3067 161.489 87.9865C162.342 88.6664 162.941 89.6159 163.186 90.68C163.431 91.7441 163.309 92.8601 162.84 93.8458C162.37 94.8315 161.581 95.6287 160.6 96.1074V96.1128ZM168.758 77.2363H148.206V69.9782C148.206 67.2505 149.288 64.6345 151.214 62.7058C153.141 60.777 155.754 59.6934 158.478 59.6934C161.202 59.6934 163.815 60.777 165.741 62.7058C167.668 64.6345 168.75 67.2505 168.75 69.9782L168.758 77.2363Z" fill="black"/>
<path opacity="0.1" d="M264.516 63.3911H243.05V68.4651H264.516V63.3911Z" fill="#5A5773"/>
<path d="M271.821 217.15C271.68 216.439 271.438 215.751 271.103 215.108L267.887 210.3H267.906C267.906 210.3 267.399 207.885 267.906 206.699C268.412 205.513 266.1 202.596 266.1 202.596C266.1 202.596 265.818 201.864 266.552 200.962C267.287 200.061 266.1 197.421 266.1 197.421C266.1 197.421 265.537 191.907 265.48 191.064C265.424 190.221 264.971 185.553 264.971 185.553L263.899 175.654L261.991 149.42L261.956 148.929C262.192 148.814 262.318 148.742 262.318 148.742L261.938 134.236L262.267 133.938C265.146 131.33 271.784 125.293 271.717 125.161C271.65 125.03 270.913 115.081 270.827 112.591C270.753 110.821 270.367 109.079 269.685 107.444C269.519 107.114 269.039 104.938 268.841 104.018C268.787 103.765 268.753 103.607 268.753 103.607C268.753 103.607 266.807 99.8935 266.976 98.2058C267.145 96.518 267.482 95.2542 263.334 94.6639C263.334 94.6639 259.85 94.1434 257.776 92.7239C256.549 91.8737 255.208 91.2016 253.794 90.7276C253.794 90.7276 252.63 88.581 251.821 89.3082C251.478 88.5422 251.222 87.7404 251.057 86.9174L251.033 86.7672C252.57 85.6946 253.675 84.1102 254.153 82.2969C254.179 82.195 254.201 82.0903 254.225 81.9884C254.305 82.0157 254.389 82.031 254.474 82.034C255.179 82.034 255.613 81.2478 256.272 80.9983C256.54 80.8936 256.87 80.8775 257.076 80.6655C257.144 80.5838 257.195 80.4891 257.226 80.3872C257.256 80.2853 257.265 80.1782 257.253 80.0725C257.26 79.9994 257.26 79.9257 257.253 79.8525C257.255 79.8266 257.255 79.8006 257.253 79.7747V79.8015C257.074 78.8249 256.318 77.9582 256.401 76.9654C256.481 76.0316 257.301 75.2106 257.234 74.3009C257.234 74.229 257.227 74.1573 257.216 74.0863V74.1185C257.116 73.7634 256.932 73.4375 256.68 73.1686C256.391 72.7751 256.013 72.4567 255.576 72.2402C255.203 72.0765 254.772 72.039 254.423 71.8431C253.4 71.285 253.402 69.8307 252.794 68.8379C252.533 68.4235 252.163 68.0891 251.725 67.8718C251.287 67.6545 250.797 67.5626 250.31 67.6063C249.549 67.6814 248.86 68.0866 248.107 68.2181C247.078 68.4005 246.03 68.0651 245.054 67.6814C244.079 67.2977 243.09 66.8765 242.042 66.8765C240.994 66.8765 239.861 67.4131 239.545 68.4032C239.376 68.9399 239.459 69.5168 239.33 70.0614C239.1 71.022 238.258 71.7089 237.387 72.1866C236.851 72.4844 236.213 72.8252 236.047 73.3886C236.047 73.3725 236.047 73.3591 236.047 73.3457C236.035 73.3907 236.026 73.4364 236.02 73.4826C236.015 73.5424 236.015 73.6025 236.02 73.6623C236.02 74.0487 236.224 74.4163 236.361 74.7839C236.616 75.4833 236.61 76.2511 236.345 76.9466C236.146 77.4564 235.809 77.9045 235.616 78.4116C235.525 78.6479 235.465 78.8951 235.439 79.1468V79.1039C235.432 79.2183 235.432 79.333 235.439 79.4474C235.436 79.8392 235.528 80.226 235.707 80.5743C235.83 80.8148 236 81.0283 236.206 81.202C236.413 81.3757 236.652 81.5063 236.91 81.5859C237.446 81.7093 237.781 81.1834 238.347 81.3176C238.448 81.342 238.547 81.3733 238.644 81.4115C238.663 81.5322 238.682 81.653 238.703 81.771C239.045 83.5769 240.006 85.2064 241.42 86.3781C241.42 86.4425 241.442 86.5069 241.45 86.574C241.621 87.6438 241.696 88.7268 241.672 89.81C241.672 89.81 240.828 88.573 239.67 90.9611C239.67 90.9611 236.65 92.7052 235.608 92.9037C234.565 93.1023 230.864 94.3929 230.864 94.3929C230.306 94.7971 229.634 95.014 228.946 95.0127C227.791 95.0127 226.831 97.543 226.971 98.9195C227.11 100.296 226.887 101.31 225.813 101.367C224.738 101.423 225.325 103.604 225.333 103.642L225.234 104.112C225.025 105.072 224.569 107.133 224.409 107.455C223.727 109.089 223.34 110.832 223.264 112.601C223.181 115.091 222.46 125.003 222.377 125.172C222.321 125.282 226.869 129.444 230.066 132.352L230.529 132.771L229.058 146.531C229.101 147.061 229.258 147.575 229.519 148.038C229.78 148.502 230.139 148.903 230.57 149.214C230.57 149.375 230.57 149.538 230.554 149.708C230.489 151.317 230.361 153.265 230.103 153.775C229.653 154.677 229.766 159.512 229.766 159.512C229.766 159.512 229.313 169.354 228.75 170.425C228.187 171.495 228.072 173.741 228.241 174.181C228.41 174.621 227.675 186.441 227.675 186.441L227.113 191.729C227.113 191.729 227.281 196.79 226.772 196.903C226.263 197.015 225.982 200.504 225.982 200.504C225.982 200.504 224.178 202.977 224.966 203.876C225.754 204.775 224.851 205.172 224.768 205.395C224.685 205.618 223.047 206.468 224.232 209.613C224.243 209.644 224.255 209.675 224.269 209.704C223.16 211.247 219.644 216.225 219.858 216.981C220.016 217.463 220.352 217.866 220.796 218.108C221.624 218.605 223.044 218.835 225.304 218.108C229.055 216.898 228.787 216.026 228.787 216.026C228.807 215.618 228.981 215.234 229.276 214.951C229.57 214.668 229.961 214.51 230.369 214.507C231.92 214.395 233.078 212.962 233.078 212.962L232.896 212.283L232.647 211.344C232.676 211.075 232.866 210.606 233.718 210.346C235.018 209.951 234.678 207.477 234.678 207.477C234.678 207.477 234.565 204.891 235.128 204.553C235.691 204.214 235.468 199.94 235.468 199.94C235.468 199.94 236.09 196.846 236.991 194.764C237.891 192.682 238.968 180.312 238.968 180.312C238.968 180.312 239.7 174.238 240.378 172.493C241.056 170.749 241.678 165.858 241.678 165.858C241.678 165.858 245.856 157.757 245.909 155.957C245.909 155.957 246.445 154.269 246.981 156.126C247.517 157.983 249.023 162.426 249.023 162.426L250.489 167.881L252.239 176.035L253.37 182.899C253.37 182.899 253.199 185.486 253.638 186.387C254.078 187.289 254.71 189.366 254.372 189.76C254.035 190.154 255.048 192.011 255.332 192.403C255.616 192.795 255.332 201.121 255.332 201.121C255.332 201.121 256.629 208.207 258.491 209.439C258.621 209.524 258.76 209.596 258.904 209.653C258.877 210.421 258.85 211.448 258.885 211.985C258.881 212.105 258.901 212.225 258.944 212.337C259.113 212.562 261.032 214.081 261.429 214.081C261.825 214.081 263.232 215.065 263.291 215.543C263.35 216.021 267.415 218.044 267.992 218.103C268.568 218.162 271.36 218.664 271.743 217.877C271.838 217.647 271.865 217.395 271.821 217.15ZM261.833 115.8L262.123 116.049C262.123 116.049 262.42 118.37 262.632 119.065C262.843 119.76 262.589 121.112 262.589 121.112C262.608 121.617 262.709 122.115 262.886 122.588C263.138 123.095 262.377 124.198 262.377 124.198H261.699L261.487 115.51L261.833 115.8ZM241.672 89.8583V89.8073C241.667 89.8234 241.664 89.8422 241.664 89.8583H241.672ZM231.261 123.305C231.157 123.08 231.141 122.824 231.218 122.588C231.278 122.461 231.326 122.328 231.36 122.191C231.443 121.839 231.495 121.479 231.516 121.118C231.516 121.113 231.516 121.109 231.516 121.104C231.491 120.976 231.274 119.731 231.475 119.07C231.676 118.41 231.982 116.055 231.982 116.055L232.175 115.891L232.622 115.502C232.622 115.502 232.622 115.357 232.655 115.118C232.748 117.157 232.823 119.411 232.703 119.524C232.478 119.747 231.658 121.939 231.856 122.025C231.92 122.054 231.832 122.932 231.682 124.112C231.513 123.859 231.372 123.588 231.261 123.305Z" fill="url(#paint1_linear)"/>
<path d="M252.861 92.0021V95.34L246.022 98.7826C246.022 98.7826 239.231 94.6692 240.906 93.0324C241.978 91.9967 241.772 89.1525 241.482 87.1964C241.313 86.0588 241.118 85.2243 241.118 85.2243C241.118 85.2243 253.316 81.7361 251.473 84.3844C250.856 85.2699 250.808 86.4156 251.014 87.5506C251.433 89.8018 252.861 92.0021 252.861 92.0021Z" fill="#C37098"/>
<path d="M234.126 124.644L233.244 135.516C233.244 135.516 231.923 134.317 230.213 132.755C227.043 129.86 222.541 125.72 222.594 125.61C222.677 125.441 223.398 115.577 223.476 113.098C223.549 111.338 223.932 109.605 224.607 107.978C224.768 107.656 225.221 105.606 225.411 104.648C225.475 104.35 225.515 104.157 225.515 104.157L226.995 103.562C226.995 103.562 233.158 110.447 233.158 110.573C233.158 110.699 232.738 115.988 232.738 115.988L232.301 116.369L232.111 116.532C232.111 116.532 231.816 118.842 231.607 119.535C231.398 120.227 231.623 121.429 231.647 121.558C231.627 121.919 231.576 122.279 231.494 122.631C231.459 122.767 231.412 122.899 231.352 123.026C231.277 123.26 231.292 123.515 231.395 123.739C231.514 124.05 231.669 124.347 231.856 124.622L234.126 124.644Z" fill="#3F3D56"/>
<path d="M271.481 125.61C271.545 125.741 264.971 131.749 262.123 134.344L260.831 135.516L259.957 124.644H262.222C262.222 124.644 262.978 123.552 262.726 123.047C262.55 122.577 262.451 122.081 262.433 121.58C262.433 121.58 262.683 120.238 262.474 119.543C262.265 118.848 261.97 116.541 261.97 116.541L261.683 116.294L261.343 115.996C261.343 115.996 260.922 110.707 260.922 110.581C260.922 110.455 267.086 103.57 267.086 103.57L268.554 104.157C268.554 104.157 268.586 104.316 268.64 104.568C268.838 105.483 269.313 107.648 269.476 107.978C270.151 109.605 270.534 111.338 270.607 113.098C270.677 115.577 271.395 125.441 271.481 125.61Z" fill="#3F3D56"/>
<path d="M271.508 217.896C271.114 218.68 268.348 218.164 267.777 218.122C267.206 218.079 263.176 216.047 263.12 215.572C263.063 215.098 261.667 214.118 261.276 214.118C260.885 214.118 258.985 212.605 258.816 212.382C258.773 212.271 258.754 212.152 258.759 212.033C258.7 211.113 258.816 208.744 258.816 208.744L266.922 209.192L270.862 215.124C271.194 215.764 271.434 216.448 271.575 217.156C271.622 217.404 271.599 217.661 271.508 217.896Z" fill="#3F3D56"/>
<path opacity="0.1" d="M271.508 217.896C271.114 218.68 268.348 218.164 267.777 218.122C267.206 218.079 263.176 216.047 263.12 215.572C263.063 215.098 261.667 214.118 261.276 214.118C260.885 214.118 258.985 212.605 258.816 212.382C258.773 212.271 258.754 212.152 258.759 212.033C258.7 211.113 258.816 208.744 258.816 208.744L266.922 209.192L270.862 215.124C271.194 215.764 271.434 216.448 271.575 217.156C271.622 217.404 271.599 217.661 271.508 217.896Z" fill="black"/>
<path opacity="0.1" d="M271.508 217.896C271.114 218.68 268.348 218.164 267.777 218.121C267.206 218.079 263.176 216.047 263.119 215.572C263.063 215.097 261.667 214.118 261.276 214.118C260.884 214.118 258.984 212.605 258.816 212.382C258.773 212.271 258.754 212.152 258.759 212.033L261.386 213.697C261.386 213.697 263.063 214.77 263.511 215.406C263.958 216.042 267.485 217.365 267.777 217.392C267.994 217.413 270.31 216.968 271.575 217.155C271.622 217.404 271.599 217.66 271.508 217.896Z" fill="black"/>
<path d="M233.185 213C233.185 213 232.038 214.427 230.505 214.537C230.101 214.54 229.713 214.699 229.422 214.98C229.13 215.261 228.958 215.643 228.94 216.048C228.94 216.048 229.208 216.917 225.502 218.122C223.264 218.844 221.857 218.616 221.037 218.122C220.597 217.879 220.265 217.478 220.107 217C219.855 216.107 224.802 209.305 224.802 209.305L229.305 209.037L232.521 210.491L233.014 212.334L233.185 213Z" fill="#3F3D56"/>
<path opacity="0.1" d="M233.185 213C233.185 213 232.038 214.427 230.505 214.537C230.101 214.54 229.713 214.699 229.422 214.98C229.13 215.261 228.958 215.643 228.94 216.048C228.94 216.048 229.208 216.917 225.502 218.122C223.264 218.844 221.857 218.616 221.037 218.122C220.597 217.879 220.265 217.478 220.107 217C219.855 216.107 224.802 209.305 224.802 209.305L229.305 209.037L232.521 210.491L233.014 212.334L233.185 213Z" fill="black"/>
<path opacity="0.1" d="M233.185 212.999C233.185 212.999 232.038 214.427 230.505 214.537C230.101 214.54 229.713 214.698 229.422 214.979C229.13 215.261 228.958 215.643 228.94 216.048C228.94 216.048 229.208 216.917 225.502 218.122C223.264 218.843 221.857 218.615 221.037 218.122C223.146 217.902 227.807 216.568 228.273 216.107C228.833 215.546 229.532 214.006 230.007 213.979C230.336 213.957 232.011 212.948 233.016 212.323L233.185 212.999Z" fill="black"/>
<path d="M267.705 206.758C267.201 207.934 267.705 210.34 267.705 210.34C267.705 210.34 260.201 210.732 258.368 209.501C256.535 208.269 255.238 201.215 255.238 201.215C255.238 201.215 255.506 192.932 255.238 192.54C254.97 192.148 253.952 190.302 254.287 189.91C254.622 189.519 254.019 187.447 253.56 186.551C253.102 185.655 253.292 183.082 253.292 183.082L252.172 176.25L250.441 168.136L248.97 162.705C248.97 162.705 247.461 158.283 246.949 156.437C246.437 154.591 245.896 156.268 245.896 156.268C245.842 158.061 241.705 166.121 241.705 166.121C241.705 166.121 241.088 170.991 240.418 172.724C239.748 174.458 239.019 180.506 239.019 180.506C239.019 180.506 237.947 192.819 237.063 194.89C236.179 196.962 235.57 200.04 235.57 200.04C235.57 200.04 235.795 204.295 235.235 204.631C234.675 204.966 234.766 207.542 234.766 207.542C234.766 207.542 235.101 210.002 233.815 210.397C232.529 210.791 232.743 211.628 232.743 211.628C232.743 211.628 225.588 212.804 224.414 209.667C223.24 206.53 224.861 205.696 224.95 205.47C225.038 205.245 225.931 204.856 225.148 203.957C224.366 203.058 226.153 200.6 226.153 200.6C226.153 200.6 226.435 197.131 226.936 197.018C227.437 196.906 227.273 191.869 227.273 191.869L227.831 186.607C227.831 186.607 228.56 174.852 228.391 174.404C228.222 173.956 228.335 171.721 228.895 170.648C229.455 169.574 229.9 159.786 229.9 159.786C229.9 159.786 229.787 154.975 230.235 154.079C230.503 153.572 230.615 151.621 230.679 150.03C230.728 148.814 230.738 147.808 230.738 147.808L236.999 145.457L245.038 142.884L251.802 146.131L261.699 148.033L261.822 149.743L263.712 175.853L264.784 185.703C264.784 185.703 265.231 190.348 265.288 191.188C265.344 192.027 265.901 197.515 265.901 197.515C265.901 197.515 267.075 200.144 266.349 201.04C265.623 201.937 265.901 202.65 265.901 202.65C265.901 202.65 268.209 205.583 267.705 206.758Z" fill="#3F3D56"/>
<path opacity="0.1" d="M251.478 84.3847C250.862 85.2702 250.813 86.4159 251.02 87.5509C249.611 88.5457 247.916 89.0496 246.193 88.9851C244.471 88.9207 242.818 88.2914 241.487 87.1941C241.319 86.0564 241.123 85.2219 241.123 85.2219C241.123 85.2219 253.322 81.7391 251.478 84.3847Z" fill="black"/>
<path d="M254.33 80.961C254.33 82.516 253.869 84.036 253.006 85.3289C252.143 86.6217 250.917 87.6294 249.482 88.2244C248.048 88.8195 246.469 88.9752 244.946 88.6718C243.422 88.3685 242.023 87.6197 240.925 86.5202C239.827 85.4207 239.079 84.0199 238.776 82.4948C238.473 80.9698 238.629 79.389 239.223 77.9525C239.817 76.5159 240.824 75.288 242.115 74.4242C243.406 73.5603 244.924 73.0992 246.477 73.0992C247.51 73.0942 248.533 73.2942 249.488 73.6875C250.443 74.0809 251.311 74.6598 252.041 75.3908C252.771 76.1218 253.349 76.9905 253.742 77.9466C254.135 78.9027 254.334 79.9272 254.33 80.961Z" fill="#C37098"/>
<path opacity="0.1" d="M255.964 94.0255L253.392 139.895L239.416 136.957L236.648 118.569L239.389 93.8833L241.453 94.1489L245.092 94.6131L248.696 94.8358L252.604 94.4012L255.964 94.0255Z" fill="black"/>
<path d="M255.964 94.3607L253.392 140.23L239.416 137.292L236.648 118.904L239.389 94.2212L241.453 94.4841L245.092 94.9483L248.696 95.1711L252.604 94.7364L255.964 94.3607Z" fill="#FEFC09"/>
<path d="M244.476 95.5923L249.508 95.7613L248.093 97.7442C248.093 97.7442 248.193 101.75 248.865 102.899C249.538 104.047 249.34 121.789 249.34 121.789L248 124.335L245.708 121.48L245.738 98.0555L244.476 95.5923Z" fill="#3F3D56"/>
<path opacity="0.1" d="M244.476 95.5923L249.508 95.7613L248.093 97.7442C248.093 97.7442 248.193 101.75 248.865 102.899C249.538 104.047 249.34 121.789 249.34 121.789L248 124.335L245.708 121.48L245.738 98.0555L244.476 95.5923Z" fill="black"/>
<path opacity="0.1" d="M252.357 90.3872L247.662 95.5927L250.344 98.3913L254.79 94.0525L252.357 90.3872Z" fill="black"/>
<path d="M252.357 90.0518L247.662 95.2572L250.344 98.0558L254.79 93.717L252.357 90.0518Z" fill="#FEFC09"/>
<path opacity="0.1" d="M245.679 95.3404L240.925 90.583L240.477 93.073L242.659 98.5307L245.679 95.3404Z" fill="black"/>
<path d="M245.845 95.0049L241.093 90.2476L240.646 92.7376L242.827 98.1953L245.845 95.0049Z" fill="#FEFC09"/>
<path opacity="0.1" d="M261.847 149.75C259.565 150.839 257.121 151.547 254.611 151.846C249.999 152.434 246.981 146.557 246.981 146.557L245.221 148.852C244.66 151.288 236.136 151.902 232.671 150.979C231.952 150.802 231.275 150.481 230.682 150.038C230.73 148.822 230.741 147.816 230.741 147.816L237.001 145.465L245.041 142.892L251.805 146.139L261.702 148.041L261.847 149.75Z" fill="black"/>
<path opacity="0.1" d="M255.964 94.3634L253.394 140.23L239.416 137.292L236.642 118.907L239.381 94.2212L241.445 94.4895C241.392 95.3887 241.291 96.2844 241.142 97.1727C240.807 98.7424 242.876 109.88 242.876 109.88C242.876 109.88 246.807 122.371 248.576 120.57C250.345 118.77 252.864 109.263 252.864 109.263C254.571 105.738 252.893 95.8472 252.767 95.6487C252.679 95.3562 252.625 95.0546 252.606 94.7498L255.964 94.3634Z" fill="black"/>
<path opacity="0.1" d="M262.002 129.857L262.12 134.351L260.828 135.524L259.957 124.644H261.887L262.002 129.857Z" fill="black"/>
<path opacity="0.1" d="M231.65 121.566C231.63 121.927 231.579 122.287 231.497 122.639C231.497 122.54 231.497 122.484 231.475 122.475C231.395 122.454 231.491 122.044 231.65 121.566Z" fill="black"/>
<path opacity="0.1" d="M234.126 124.644L233.244 135.516C233.244 135.516 231.923 134.317 230.213 132.755L230.417 130.828C230.417 130.828 231.138 126.095 231.4 123.761C231.519 124.072 231.674 124.368 231.861 124.644H234.126Z" fill="black"/>
<path d="M241.707 90.4137C241.707 90.4137 240.871 89.1821 239.724 91.5594C239.724 91.5594 236.733 93.2955 235.704 93.4914C234.675 93.6872 231.014 94.9752 231.014 94.9752C230.462 95.3753 229.797 95.5904 229.114 95.5896C227.967 95.5896 227.016 98.1092 227.155 99.4803C227.295 100.851 227.072 101.86 226.011 101.917C224.95 101.973 225.534 104.181 225.534 104.181L232.606 112.298C232.606 112.298 233.054 119.771 232.831 119.996C232.609 120.222 231.797 122.411 231.993 122.486C232.188 122.561 230.921 130.826 230.921 130.826L229.216 146.863C229.216 146.863 229.216 149.547 232.684 150.472C236.152 151.398 244.682 150.786 245.231 148.35L246.992 146.053C246.992 146.053 250.01 151.932 254.622 151.344C259.234 150.757 262.171 149.077 262.171 149.077L261.667 129.857L261.332 116.004L268.533 104.157C268.533 104.157 266.603 100.462 266.772 98.7907C266.941 97.1191 267.273 95.8526 263.165 95.265C263.165 95.265 259.7 94.7471 257.658 93.3331C256.444 92.4894 255.118 91.821 253.718 91.3475C253.718 91.3475 252.566 89.2009 251.765 89.9361C251.765 89.9361 252.569 92.9708 252.502 93.4243C252.435 93.8778 252.628 95.9277 252.754 96.1397C252.88 96.3517 254.557 106.229 252.85 109.754C252.85 109.754 250.345 119.261 248.562 121.061C246.78 122.862 242.862 110.372 242.862 110.372C242.862 110.372 240.793 99.2308 241.128 97.6638C241.463 96.0968 241.707 90.4137 241.707 90.4137Z" fill="#3F3D56"/>
<path d="M247.689 127.107C248.368 127.107 248.919 126.555 248.919 125.875C248.919 125.195 248.368 124.644 247.689 124.644C247.009 124.644 246.459 125.195 246.459 125.875C246.459 126.555 247.009 127.107 247.689 127.107Z" fill="#3F3D56"/>
<path d="M247.689 132.913C248.368 132.913 248.919 132.362 248.919 131.682C248.919 131.002 248.368 130.45 247.689 130.45C247.009 130.45 246.459 131.002 246.459 131.682C246.459 132.362 247.009 132.913 247.689 132.913Z" fill="#3F3D56"/>
<path opacity="0.1" d="M247.689 127.107C248.368 127.107 248.919 126.555 248.919 125.875C248.919 125.195 248.368 124.644 247.689 124.644C247.009 124.644 246.459 125.195 246.459 125.875C246.459 126.555 247.009 127.107 247.689 127.107Z" fill="black"/>
<path opacity="0.1" d="M247.689 132.913C248.368 132.913 248.919 132.362 248.919 131.682C248.919 131.002 248.368 130.45 247.689 130.45C247.009 130.45 246.459 131.002 246.459 131.682C246.459 132.362 247.009 132.913 247.689 132.913Z" fill="black"/>
<path opacity="0.1" d="M258.743 205.079C258.743 205.079 263.792 205.47 264.293 205.862C264.794 206.254 258.743 205.079 258.743 205.079Z" fill="black" stroke="#6C63FF" stroke-miterlimit="10"/>
<path opacity="0.1" d="M228.683 201.104C228.683 201.104 229.755 202.446 229.299 203.063C228.844 203.68 228.683 201.104 228.683 201.104Z" fill="black" stroke="#FEFC09" stroke-miterlimit="10"/>
<path opacity="0.1" d="M229.969 205.942C229.969 205.942 231.926 204.654 232.708 205.51C233.491 206.366 229.969 205.942 229.969 205.942Z" fill="black" stroke="#FEFC09" stroke-miterlimit="10"/>
<path opacity="0.1" d="M254.329 80.9606C254.331 81.6315 254.246 82.2997 254.078 82.9489C253.912 82.8734 253.774 82.7492 253.681 82.5929C253.588 82.4366 253.545 82.2556 253.558 82.0742C253.593 81.7549 253.804 81.4624 253.759 81.1458C253.692 80.6574 253.102 80.4589 252.791 80.0725C252.408 79.6056 252.491 78.9268 252.523 78.323C252.555 77.7193 252.403 76.9814 251.837 76.7748C251.668 76.7131 251.483 76.7077 251.32 76.638C250.875 76.4502 250.738 75.8974 250.441 75.5164C249.846 74.749 248.664 74.7651 247.761 75.13C247.368 75.3187 246.965 75.4871 246.555 75.6345C246.35 75.707 246.131 75.7361 245.914 75.72C245.697 75.7038 245.485 75.6427 245.293 75.5405C245.116 75.4278 244.974 75.2722 244.792 75.1595C244.186 74.7946 243.393 75.1595 242.868 75.6291C242.342 76.0986 241.922 76.7292 241.26 77.0163C240.962 77.1505 240.595 77.231 240.456 77.5208C240.387 77.6785 240.357 77.8508 240.37 78.0225C240.37 79.0663 240.493 80.1262 240.276 81.1485C240.137 81.8059 239.676 82.5518 239.009 82.4713C238.925 82.459 238.844 82.4383 238.765 82.4096C238.564 81.3349 238.589 80.2301 238.839 79.1658C239.088 78.1014 239.557 77.1009 240.215 76.2282C240.872 75.3554 241.705 74.6296 242.658 74.0971C243.612 73.5646 244.666 73.2371 245.753 73.1355C246.841 73.034 247.937 73.1606 248.973 73.5073C250.008 73.854 250.96 74.4132 251.768 75.1491C252.575 75.885 253.221 76.7814 253.663 77.7812C254.105 78.7809 254.334 79.862 254.335 80.9553L254.329 80.9606Z" fill="black"/>
<path d="M238.414 81.9644C238.615 82.01 238.805 82.1146 239.011 82.1415C239.679 82.222 240.139 81.476 240.279 80.8186C240.496 79.7963 240.383 78.7365 240.375 77.6927C240.36 77.5211 240.389 77.3485 240.458 77.1909C240.611 76.9011 240.978 76.8206 241.262 76.6865C241.911 76.3967 242.334 75.7795 242.87 75.2993C243.406 74.819 244.186 74.4648 244.792 74.8297C244.971 74.937 245.116 75.098 245.293 75.2107C245.486 75.3114 245.698 75.3717 245.916 75.3878C246.133 75.404 246.352 75.3757 246.558 75.3046C246.973 75.1812 247.362 74.9638 247.761 74.8002C248.656 74.4352 249.841 74.4218 250.441 75.1839C250.738 75.5676 250.875 76.1176 251.32 76.3055C251.483 76.3752 251.668 76.3833 251.837 76.445C252.403 76.657 252.547 77.3895 252.523 77.9932C252.499 78.5969 252.419 79.2758 252.791 79.7427C253.102 80.1237 253.692 80.3222 253.759 80.816C253.802 81.1326 253.592 81.4277 253.558 81.7443C253.55 81.862 253.565 81.9801 253.603 82.0918C253.641 82.2034 253.701 82.3064 253.779 82.3948C253.857 82.4832 253.952 82.5551 254.058 82.6065C254.164 82.6579 254.279 82.6877 254.396 82.6942C255.093 82.6942 255.525 81.9134 256.176 81.6639C256.444 81.5592 256.768 81.5431 256.98 81.3311C257.059 81.2292 257.114 81.1114 257.143 80.9859C257.172 80.8603 257.173 80.73 257.146 80.604C257.015 79.5763 256.192 78.6828 256.28 77.6524C256.363 76.665 257.277 75.8037 257.084 74.8324C256.986 74.4742 256.802 74.1454 256.548 73.8745C256.261 73.4846 255.887 73.1676 255.455 72.9487C255.082 72.7878 254.651 72.7502 254.311 72.5543C253.298 71.9989 253.3 70.5499 252.703 69.5625C252.446 69.1544 252.083 68.8249 251.651 68.61C251.22 68.3952 250.739 68.3033 250.259 68.3443C249.506 68.4195 248.822 68.8193 248.077 68.9534C247.056 69.1359 246.022 68.8005 245.054 68.4168C244.087 68.0331 243.109 67.6118 242.072 67.6118C241.035 67.6118 239.912 68.1485 239.595 69.1305C239.429 69.6672 239.512 70.2414 239.384 70.7807C239.159 71.7386 238.312 72.4201 237.46 72.8951C236.873 73.2224 236.168 73.5981 236.098 74.2662C236.053 74.6902 236.286 75.0712 236.433 75.4817C236.684 76.1762 236.678 76.9376 236.417 77.6283C236.221 78.1354 235.895 78.5808 235.696 79.0853C235.555 79.4276 235.489 79.796 235.501 80.1661C235.513 80.5361 235.603 80.8994 235.766 81.2318C235.891 81.4743 236.064 81.6886 236.274 81.8616C236.485 82.0346 236.729 82.1627 236.991 82.2381C237.519 82.3642 237.851 81.8409 238.414 81.9644Z" fill="#3F3D56"/>
<g opacity="0.1">
<path opacity="0.1" d="M240.279 80.234C240.139 80.8914 239.676 81.6373 239.009 81.5568C238.802 81.53 238.615 81.4254 238.411 81.3797C237.851 81.2563 237.519 81.7822 236.991 81.6481C236.728 81.5728 236.484 81.4447 236.273 81.2717C236.062 81.0987 235.889 80.8844 235.763 80.6419C235.623 80.3688 235.538 80.0705 235.514 79.7645C235.461 80.2396 235.547 80.7199 235.763 81.1463C235.889 81.3888 236.062 81.6031 236.273 81.7761C236.484 81.9492 236.728 82.0772 236.991 82.1525C237.527 82.2759 237.851 81.75 238.411 81.8842C238.607 81.9525 238.806 82.0108 239.009 82.0586C239.676 82.1418 240.139 81.3959 240.279 80.7385C240.389 80.1577 240.432 79.5662 240.407 78.9756C240.405 79.3982 240.362 79.8196 240.279 80.234Z" fill="black"/>
<path opacity="0.1" d="M236.607 76.1927C236.642 75.753 236.581 75.3111 236.431 74.8967C236.309 74.6212 236.206 74.3379 236.122 74.0488C236.111 74.0939 236.102 74.1396 236.096 74.1857C236.05 74.6069 236.286 74.9906 236.431 75.4012C236.524 75.6561 236.584 75.9222 236.607 76.1927Z" fill="black"/>
<path opacity="0.1" d="M257.082 74.7788C256.956 75.5408 256.339 76.2573 256.278 77.0596C256.263 77.1969 256.263 77.3354 256.278 77.4728C256.412 76.5363 257.24 75.7072 257.082 74.7788Z" fill="black"/>
<path opacity="0.1" d="M257.127 80.4404C257.105 80.5526 257.052 80.6565 256.975 80.741C256.776 80.9529 256.439 80.969 256.171 81.0737C255.519 81.3232 255.099 82.1121 254.391 82.104C254.21 82.0938 254.036 82.0288 253.893 81.9176C253.749 81.8065 253.643 81.6545 253.587 81.4815C253.571 81.5397 253.558 81.5988 253.55 81.6586C253.542 81.7761 253.558 81.8939 253.596 82.0052C253.634 82.1166 253.694 82.2193 253.772 82.3073C253.85 82.3954 253.944 82.4671 254.05 82.5184C254.156 82.5696 254.271 82.5993 254.388 82.6058C255.088 82.6058 255.517 81.825 256.168 81.5781C256.436 81.4735 256.763 81.4574 256.972 81.2454C257.051 81.1435 257.106 81.0257 257.135 80.9001C257.164 80.7746 257.165 80.6443 257.138 80.5182C257.135 80.486 257.13 80.4646 257.127 80.4404Z" fill="black"/>
<path opacity="0.1" d="M253.767 80.2175C253.7 79.7292 253.11 79.5306 252.799 79.1443C252.609 78.8905 252.505 78.5817 252.504 78.2642C252.483 78.7632 252.491 79.2731 252.799 79.6487C253.107 80.0244 253.576 80.1853 253.726 80.5717C253.764 80.4578 253.778 80.3371 253.767 80.2175Z" fill="black"/>
<path opacity="0.1" d="M252.521 77.4084C252.542 76.8047 252.397 76.0668 251.832 75.8602C251.666 75.7985 251.481 75.7904 251.317 75.7233C250.872 75.5355 250.733 74.9828 250.438 74.6017C249.841 73.837 248.659 73.8504 247.758 74.2154C247.356 74.379 246.973 74.5964 246.555 74.7198C246.35 74.7924 246.131 74.8215 245.914 74.8053C245.697 74.7891 245.485 74.7281 245.293 74.6259C245.116 74.5132 244.971 74.3576 244.792 74.2449C244.183 73.88 243.39 74.2449 242.868 74.7144C242.345 75.184 241.922 75.8119 241.26 76.1017C240.959 76.2358 240.595 76.3163 240.44 76.6061C240.371 76.7641 240.343 76.9363 240.357 77.1079C240.357 77.2125 240.357 77.3172 240.357 77.4218C240.36 77.3137 240.387 77.2076 240.434 77.1106C240.59 76.8208 240.954 76.7403 241.254 76.6061C241.903 76.3163 242.326 75.6992 242.862 75.2189C243.398 74.7386 244.178 74.3844 244.786 74.7493C244.966 74.8566 245.111 75.0176 245.288 75.1277C245.48 75.2304 245.691 75.2919 245.909 75.3081C246.126 75.3242 246.344 75.2948 246.55 75.2216C246.959 75.0756 247.361 74.9081 247.753 74.7198C248.651 74.3549 249.833 74.3388 250.433 75.1035C250.728 75.4845 250.867 76.0373 251.312 76.2251C251.475 76.2949 251.66 76.3029 251.826 76.3646C252.285 76.5364 252.467 77.0515 252.507 77.5613L252.521 77.4084Z" fill="black"/>
</g>
<g opacity="0.1">
<path opacity="0.1" d="M239.322 80.2174C239.337 79.7721 239.497 79.3437 239.776 78.9968C240.055 78.6499 240.44 78.4031 240.871 78.2936C242.066 78.0011 243.32 78.0579 244.484 78.4572C247.027 79.2998 244.162 82.3318 244.162 82.3318C244.162 82.3318 242.257 84.21 240.48 82.898C239.955 82.5008 239.588 81.9305 239.443 81.288C239.356 80.938 239.315 80.578 239.322 80.2174Z" fill="black"/>
<path opacity="0.1" d="M253.303 80.2175C253.288 79.7718 253.128 79.3432 252.848 78.9962C252.568 78.6493 252.183 78.4027 251.751 78.2937C250.557 78.0017 249.305 78.0585 248.142 78.4573C245.598 79.2999 248.463 82.3319 248.463 82.3319C248.463 82.3319 250.366 84.2102 252.145 82.8981C252.67 82.5009 253.038 81.9306 253.182 81.2881C253.269 80.9381 253.31 80.5782 253.303 80.2175Z" fill="black"/>
<path opacity="0.1" d="M244.004 78.2102V78.3363H248.648V78.186L244.004 78.2102Z" fill="black"/>
<path opacity="0.1" d="M245.486 79.5548H245.633V79.1282C245.633 79.1282 246.105 78.7606 246.887 79.1282V79.5092H247.155V79.2596H247.024C247.024 79.2596 247.078 78.7418 246.204 78.825C246.204 78.825 245.502 78.7579 245.518 79.2033H245.357L245.486 79.5548Z" fill="black"/>
</g>
<path d="M239.322 80.0432C239.337 79.5978 239.497 79.1695 239.776 78.8225C240.055 78.4756 240.44 78.2288 240.871 78.1193C242.066 77.8288 243.319 77.8855 244.484 78.283C247.027 79.1282 244.162 82.1575 244.162 82.1575C244.162 82.1575 242.257 84.0358 240.48 82.7237C239.954 82.3275 239.586 81.7568 239.443 81.1138C239.355 80.7638 239.315 80.4038 239.322 80.0432Z" fill="black"/>
<path d="M253.303 80.0432C253.288 79.5975 253.128 79.1689 252.848 78.8219C252.568 78.4749 252.183 78.2284 251.751 78.1193C250.557 77.8287 249.305 77.8855 248.142 78.283C245.598 79.1282 248.463 82.1576 248.463 82.1576C248.463 82.1576 250.366 84.0358 252.145 82.7238C252.671 82.3276 253.039 81.7568 253.182 81.1138C253.27 80.7639 253.31 80.4038 253.303 80.0432Z" fill="black"/>
<path d="M244.004 78.0417V78.1705H248.648V78.0176L244.004 78.0417Z" fill="black"/>
<path d="M245.486 79.3858H245.633V78.9592C245.633 78.9592 246.105 78.5943 246.887 78.9592V79.3429H247.155V79.0907H247.024C247.024 79.0907 247.078 78.5755 246.204 78.656C246.204 78.656 245.502 78.5916 245.518 79.0343H245.357L245.486 79.3858Z" fill="black"/>
</g>
<defs>
<linearGradient id="paint0_linear" x1="158.462" y1="173.357" x2="158.462" y2="28.9116" gradientUnits="userSpaceOnUse">
<stop stop-color="#808080" stop-opacity="0.25"/>
<stop offset="0.54" stop-color="#808080" stop-opacity="0.12"/>
<stop offset="1" stop-color="#808080" stop-opacity="0.1"/>
</linearGradient>
<linearGradient id="paint1_linear" x1="49318.9" y1="129716" x2="49318.9" y2="43950.6" gradientUnits="userSpaceOnUse">
<stop stop-color="#808080" stop-opacity="0.25"/>
<stop offset="0.54" stop-color="#808080" stop-opacity="0.12"/>
<stop offset="1" stop-color="#808080" stop-opacity="0.1"/>
</linearGradient>
<clipPath id="clip0">
<rect width="307" height="220" fill="white"/>
</clipPath>
</defs>
</svg>
