<svg width="427" height="188" viewBox="0 0 427 188" fill="none" xmlns="http://www.w3.org/2000/svg">
<g clip-path="url(#clip0)">
<path d="M209.385 109.508H159.947L159.423 94.3005C159.4 93.6412 159.52 92.9849 159.776 92.3767C160.031 91.7685 160.415 91.2228 160.901 90.7772C161.387 90.3316 161.964 89.9967 162.592 89.7955C163.219 89.5944 163.883 89.5317 164.538 89.6118L193.307 93.1362H193.311C197.576 93.1477 201.663 94.8501 204.676 97.8705C207.688 100.891 209.382 104.983 209.385 109.25V109.508Z" fill="#CB6BE6"/>
<path opacity="0.1" d="M363.41 96.8257C350.274 109.412 352.736 126.56 358.505 140.08C360.435 144.607 362.659 149.386 361.009 154.452C358.99 160.647 351.631 165.511 344.183 168.297C330.604 173.363 315.099 173.223 303.809 167.926C294.059 163.351 287.638 155.371 277.682 151.041C261.037 143.793 238.179 148.186 218.332 154.959C204.297 159.74 188.849 165.824 175.876 162.379C166.749 159.961 161.058 153.136 158.402 145.71C157.12 142.125 156.344 138.209 153.404 135.477C151.655 133.854 149.25 132.767 146.757 131.875C124.002 123.749 93.2152 130.543 71.2716 121.34C56.45 115.127 48.0246 102.293 45.2551 88.5689C42.4856 74.8452 44.7628 60.1607 47.6138 45.7028C49.6431 35.4237 52.3878 24.4271 61.4968 16.0675C71.1334 7.22531 86.3233 3.27099 99.5263 4.1101C112.729 4.94922 124.193 9.90418 134.074 15.9605C146.424 23.5293 157.562 33.1958 173.545 35.6377C184.432 37.3012 196.321 35.3754 207.899 34.2867C227.229 32.4658 246.29 32.9882 265.216 33.672C283.335 34.3265 301.563 35.1405 318.446 38.9165C330.392 41.5912 339.561 47.1587 350.71 50.7794C357.977 53.1395 366.176 53.4394 372.947 56.5861C381.288 60.4628 388.506 67.6183 385.166 76.664C381.982 85.2691 370.38 90.1464 363.41 96.8257Z" fill="#6C63FF"/>
<path d="M187.35 55.5653H152.87C152.411 55.5652 151.957 55.6555 151.533 55.831C151.11 56.0065 150.725 56.2638 150.4 56.5882C150.076 56.9126 149.819 57.2977 149.643 57.7216C149.468 58.1455 149.378 58.5998 149.378 59.0586V93.5545C149.378 94.0133 149.468 94.4676 149.643 94.8914C149.819 95.3153 150.076 95.7005 150.4 96.0249C150.725 96.3493 151.11 96.6066 151.533 96.7821C151.957 96.9576 152.411 97.0479 152.87 97.0477H187.35C187.809 97.0479 188.263 96.9576 188.686 96.7821C189.11 96.6066 189.495 96.3493 189.819 96.0249C190.144 95.7005 190.401 95.3153 190.576 94.8915C190.752 94.4676 190.842 94.0133 190.842 93.5545V59.0586C190.842 58.5998 190.752 58.1455 190.576 57.7216C190.401 57.2977 190.144 56.9126 189.819 56.5882C189.495 56.2638 189.11 56.0065 188.686 55.831C188.263 55.6555 187.809 55.5652 187.35 55.5653Z" fill="#CCCCCC"/>
<path d="M179.585 81.3602L163.305 84.5319C162.339 84.7189 161.339 84.515 160.523 83.965C159.707 83.415 159.143 82.5638 158.954 81.5981L157.703 75.1691C157.516 74.203 157.72 73.2021 158.269 72.3861C158.819 71.5701 159.67 71.0056 160.635 70.8164L176.915 67.6448C177.88 67.4577 178.881 67.6616 179.697 68.2116C180.512 68.7616 181.076 69.6128 181.265 70.5785L182.517 77.0076C182.704 77.9737 182.5 78.9745 181.95 79.7905C181.401 80.6065 180.55 81.171 179.585 81.3602Z" fill="#3F3D56"/>
<path d="M176.327 73.7647L163.903 76.1852C163.676 76.2295 163.441 76.1816 163.249 76.0522C163.057 75.9227 162.924 75.7223 162.88 75.4949C162.835 75.2676 162.883 75.0319 163.013 74.8399C163.142 74.6478 163.342 74.5151 163.57 74.4708L175.994 72.0503C176.221 72.006 176.457 72.0539 176.648 72.1833C176.84 72.3128 176.973 72.5132 177.017 72.7406C177.062 72.9679 177.014 73.2035 176.884 73.3956C176.755 73.5877 176.555 73.7204 176.327 73.7647Z" fill="white"/>
<path d="M173.913 77.3492L167.486 78.6012C167.259 78.6454 167.024 78.5976 166.832 78.4681C166.64 78.3387 166.507 78.1382 166.463 77.9109C166.418 77.6835 166.466 77.4479 166.596 77.2558C166.725 77.0638 166.925 76.931 167.153 76.8867L173.579 75.6348C173.691 75.6128 173.807 75.6133 173.919 75.6361C174.032 75.659 174.139 75.7037 174.234 75.7678C174.329 75.8319 174.41 75.9141 174.473 76.0097C174.537 76.1053 174.581 76.2125 174.603 76.325C174.624 76.4376 174.624 76.5534 174.601 76.6658C174.578 76.7782 174.534 76.885 174.47 76.9801C174.405 77.0752 174.323 77.1567 174.228 77.22C174.132 77.2834 174.025 77.3273 173.913 77.3492Z" fill="white"/>
<path d="M190.842 59.0586V63.6435H149.378V59.0586C149.378 58.5998 149.468 58.1455 149.643 57.7216C149.819 57.2977 150.076 56.9126 150.4 56.5882C150.725 56.2638 151.11 56.0065 151.533 55.831C151.957 55.6555 152.411 55.5652 152.87 55.5653H187.35C187.809 55.5652 188.263 55.6555 188.686 55.831C189.11 56.0065 189.495 56.2638 189.819 56.5882C190.144 56.9126 190.401 57.2977 190.576 57.7216C190.752 58.1455 190.842 58.5998 190.842 59.0586Z" fill="#B3B3B3"/>
<path d="M273.641 65.0793C273.402 64.3063 272.996 63.5951 272.452 62.996C271.908 62.3968 271.24 61.9243 270.493 61.6116C269.747 61.2989 268.942 61.1536 268.134 61.1861C267.325 61.2186 266.534 61.4279 265.815 61.7995L218.378 44.7722L216.289 56.6281L263.575 69.6373C264.279 70.8037 265.386 71.6714 266.687 72.0757C267.987 72.4801 269.391 72.3932 270.632 71.8313C271.872 71.2695 272.864 70.2718 273.419 69.0274C273.973 67.783 274.052 66.3782 273.641 65.0793Z" fill="#FFB8B8"/>
<path opacity="0.2" d="M273.641 65.0793C273.402 64.3063 272.996 63.5951 272.452 62.996C271.908 62.3968 271.24 61.9243 270.493 61.6116C269.747 61.2989 268.942 61.1536 268.134 61.1861C267.325 61.2186 266.534 61.4279 265.815 61.7995L218.378 44.7722L216.289 56.6281L263.575 69.6373C264.279 70.8037 265.386 71.6714 266.687 72.0757C267.987 72.4801 269.391 72.3932 270.632 71.8313C271.872 71.2695 272.864 70.2718 273.419 69.0274C273.973 67.783 274.052 66.3782 273.641 65.0793Z" fill="black"/>
<path d="M226.798 46.9325L222.319 58.6405C222.191 58.9736 221.993 59.2753 221.739 59.5251C221.484 59.7749 221.179 59.9668 220.844 60.0879C220.508 60.209 220.151 60.2563 219.795 60.2267C219.44 60.1971 219.095 60.0912 218.785 59.9163L207.898 53.786C206.198 53.1238 204.83 51.8144 204.094 50.1448C203.358 48.4752 203.313 46.5816 203.97 44.8792C204.627 43.1768 205.932 41.8046 207.599 41.0633C209.266 40.322 211.158 40.2721 212.862 40.9246L225.019 43.6221C225.367 43.6994 225.694 43.8509 225.979 44.0662C226.263 44.2815 226.497 44.5556 226.666 44.8697C226.835 45.1839 226.934 45.5308 226.957 45.8867C226.98 46.2427 226.926 46.5994 226.798 46.9325Z" fill="#CB6BE6"/>
<path d="M277.375 75.92L260.377 83.6497L262.609 92.0549C266.918 108.286 268.062 125.196 265.977 141.86L278.405 144.456L288.707 118.175L285.101 88.2875L277.375 75.92Z" fill="#FEFC09"/>
<path d="M310.726 114.826C299.558 114.826 290.457 122.948 290.015 133.119H331.437C330.995 122.948 321.894 114.826 310.726 114.826Z" fill="#3F3D56"/>
<path d="M302.032 116.579C301.451 70.6656 275.315 74.8895 275.315 74.8895C275.315 74.8895 275.803 89.1807 276.038 89.6252C292.694 121.152 265.206 158.112 230.217 151.312C229.557 151.184 228.924 151.054 228.316 150.922C223.882 149.996 219.968 147.415 217.369 143.705C214.77 139.994 213.681 135.432 214.324 130.947C217.771 103.257 200.628 103.747 200.628 103.747H175.561L162.543 92.0257C162.084 91.6119 161.53 91.3171 160.93 91.167C160.331 91.0169 159.703 91.016 159.103 91.1645C158.503 91.3131 157.948 91.6064 157.488 92.0189C157.027 92.4314 156.675 92.9505 156.461 93.5308L154.786 98.0785C154.786 98.0785 130.062 100.655 132.123 124.875H139.766C139.748 125.563 139.776 126.251 139.849 126.936L196.894 126.472C200.238 126.445 203.19 129.155 203.204 132.501C203.207 133.315 203.046 134.122 202.731 134.873C202.415 135.624 201.952 136.303 201.368 136.871C200.784 137.438 200.091 137.882 199.332 138.176C198.573 138.469 197.762 138.606 196.948 138.579L187.751 138.273C184.918 150.898 191.872 159.4 199.534 164.747C206.747 169.707 215.307 172.338 224.06 172.283H249.046C281.496 172.283 287.161 144.972 287.161 144.972C304.159 137.757 302.032 116.579 302.032 116.579Z" fill="#3F3D56"/>
<path d="M309.181 187.227C325.182 187.227 338.154 174.249 338.154 158.241C338.154 142.232 325.182 129.255 309.181 129.255C293.18 129.255 280.208 142.232 280.208 158.241C280.208 174.249 293.18 187.227 309.181 187.227Z" fill="#3F3D56"/>
<path d="M309.181 165.345C313.103 165.345 316.282 162.164 316.282 158.241C316.282 154.317 313.103 151.136 309.181 151.136C305.259 151.136 302.08 154.317 302.08 158.241C302.08 162.164 305.259 165.345 309.181 165.345Z" fill="white"/>
<path d="M162.899 187.227C181.318 187.227 196.25 172.288 196.25 153.861C196.25 135.433 181.318 120.494 162.899 120.494C144.479 120.494 129.547 135.433 129.547 153.861C129.547 172.288 144.479 187.227 162.899 187.227Z" fill="#3F3D56"/>
<path d="M162.899 162.039C167.413 162.039 171.073 158.377 171.073 153.861C171.073 149.344 167.413 145.683 162.899 145.683C158.384 145.683 154.724 149.344 154.724 153.861C154.724 158.377 158.384 162.039 162.899 162.039Z" fill="white"/>
<path d="M260.426 85.9336L254.31 69.3151C253.991 68.449 253.846 67.5286 253.883 66.6063C253.92 65.6841 254.138 64.7782 254.524 63.9403C254.911 63.1024 255.459 62.3489 256.137 61.7229C256.815 61.0968 257.609 60.6105 258.475 60.2917L276.008 53.8342C277.532 53.273 279.151 53.0175 280.772 53.0822C282.394 53.1469 283.988 53.5307 285.461 54.2114C286.935 54.8922 288.26 55.8567 289.362 57.0499C290.463 58.2431 291.318 59.6416 291.879 61.1655C292.385 62.5333 292.643 63.9803 292.642 65.4387C292.635 67.2905 292.216 69.1176 291.416 70.7871C290.615 72.4567 289.452 73.9268 288.012 75.0905C286.972 75.9252 285.803 76.5847 284.551 77.043L260.426 85.9336Z" fill="#3F3D56"/>
<path d="M292.384 65.4387C292.383 67.2528 291.975 69.0435 291.191 70.679C290.406 72.3145 289.265 73.7533 287.851 74.8895C285.683 74.3172 283.665 73.2792 281.937 71.8477C280.21 70.4162 278.815 68.6256 277.849 66.6003C276.884 64.5749 276.371 62.3635 276.346 60.1197C276.321 57.8759 276.784 55.6536 277.705 53.6072C279.471 53.2228 281.302 53.2392 283.061 53.6551C284.821 54.071 286.465 54.8759 287.873 56.0107C289.281 57.1454 290.417 58.5813 291.197 60.2127C291.978 61.8442 292.384 63.6299 292.384 65.4387Z" fill="#FEFC09"/>
<path d="M136.501 128.224C140.484 128.224 143.712 124.302 143.712 119.464C143.712 114.626 140.484 110.703 136.501 110.703C132.518 110.703 129.29 114.626 129.29 119.464C129.29 124.302 132.518 128.224 136.501 128.224Z" fill="#FEFC09"/>
<path d="M231.822 150.473H238.137L241.141 134.088L231.821 134.088L231.822 150.473Z" fill="#FFB8B8"/>
<path d="M230.211 148.41L242.647 148.41H242.648C243.688 148.41 244.719 148.615 245.68 149.013C246.642 149.412 247.516 149.996 248.252 150.732C248.988 151.468 249.571 152.342 249.97 153.304C250.368 154.266 250.573 155.297 250.573 156.339V156.596L230.212 156.597L230.211 148.41Z" fill="#2F2E41"/>
<path d="M239.152 143.748C239.078 143.748 239.004 143.745 238.93 143.737L230.191 143.101C229.838 143.068 229.496 142.955 229.194 142.769C228.891 142.583 228.635 142.331 228.446 142.031C228.256 141.73 228.138 141.391 228.1 141.037C228.063 140.684 228.107 140.327 228.229 139.994L239.925 113.706C240.008 113.471 240.042 113.222 240.025 112.974C240.008 112.726 239.939 112.484 239.823 112.263C239.708 112.04 239.547 111.844 239.351 111.688C239.155 111.532 238.928 111.419 238.685 111.357C233.185 109.918 219.074 106.089 206.86 101.608C201.627 99.6881 198.331 96.9137 197.064 93.3619C195.393 88.6793 197.864 84.4089 197.97 84.2298L198.053 84.0894L209.547 85.1346L222.007 86.1949L249.313 100.844C251.602 102.082 253.34 104.137 254.181 106.599C255.023 109.061 254.907 111.75 253.856 114.131L241.267 142.374C241.085 142.783 240.788 143.13 240.413 143.374C240.037 143.618 239.599 143.748 239.152 143.748Z" fill="#2F2E41"/>
<path d="M211.546 33.1247C218.532 33.1247 224.196 27.4582 224.196 20.4682C224.196 13.4782 218.532 7.81165 211.546 7.81165C204.559 7.81165 198.895 13.4782 198.895 20.4682C198.895 27.4582 204.559 33.1247 211.546 33.1247Z" fill="#FFB8B8"/>
<path d="M228.216 152.019H234.531L237.536 135.634L228.215 135.634L228.216 152.019Z" fill="#FFB8B8"/>
<path d="M226.606 149.956L239.042 149.956H239.042C240.083 149.956 241.113 150.161 242.075 150.559C243.036 150.958 243.91 151.542 244.646 152.278C245.382 153.014 245.966 153.888 246.364 154.85C246.762 155.812 246.967 156.843 246.967 157.885V158.142L226.606 158.143L226.606 149.956Z" fill="#2F2E41"/>
<path d="M235.546 145.294C235.473 145.294 235.399 145.29 235.325 145.283L226.586 144.647C226.232 144.614 225.891 144.5 225.588 144.315C225.286 144.129 225.03 143.877 224.84 143.576C224.651 143.276 224.532 142.936 224.495 142.583C224.457 142.23 224.501 141.873 224.623 141.54L236.319 115.251C236.403 115.017 236.437 114.768 236.419 114.52C236.402 114.272 236.333 114.03 236.218 113.809C236.103 113.586 235.942 113.39 235.746 113.234C235.549 113.078 235.322 112.965 235.079 112.902C229.579 111.464 215.469 107.635 203.254 103.154C198.021 101.234 194.725 98.4596 193.458 94.9078C191.788 90.2252 194.259 85.9548 194.365 85.7757L194.448 85.6353L205.942 86.6805L218.402 87.7408L245.708 102.39C247.996 103.628 249.734 105.682 250.576 108.145C251.417 110.607 251.301 113.296 250.25 115.677L237.661 143.92C237.479 144.329 237.182 144.676 236.807 144.92C236.432 145.164 235.994 145.294 235.546 145.294Z" fill="#2F2E41"/>
<path d="M215.447 40.3016L202.055 35.6638C202.055 35.6638 193.648 42.1258 197.687 58.1563C199.795 66.4287 199.181 75.1608 195.935 83.0562C195.545 84.0331 195.094 84.985 194.587 85.9065C194.587 85.9065 209.524 103.942 223.431 90.5443L218.023 64.5212C218.023 64.5212 226.521 47.2583 215.447 40.3016Z" fill="#CB6BE6"/>
<path d="M213.116 33.5552C211.316 30.8589 209.895 27.1202 211.877 24.5548C213.834 22.0225 217.694 22.3956 220.69 21.2751C224.865 19.7144 227.286 14.8083 226.53 10.4146C225.775 6.02087 222.25 2.37862 218.05 0.888331C213.85 -0.60196 209.114 -0.117283 205.002 1.59888C199.939 3.71149 195.596 7.79821 193.775 12.975C191.953 18.1518 192.927 24.3675 196.705 28.3465C200.756 32.6124 207.112 33.7493 212.993 33.6803" fill="#2F2E41"/>
<path d="M201.348 10.5556C199.08 12.4034 195.618 11.5827 193.183 9.96098C190.747 8.33928 188.771 6.03006 186.136 4.75858C181.49 2.51701 175.873 4.00714 171.352 6.49008C166.831 8.97302 162.823 12.4033 158.047 14.3517C153.271 16.3002 147.177 16.3965 143.56 12.7174C142.671 15.2969 142.598 18.0883 143.352 20.7108C144.107 23.3332 145.651 25.659 147.776 27.3707C149.9 29.0824 152.5 30.0967 155.222 30.2752C157.944 30.4537 160.655 29.7877 162.984 28.3681C168.217 25.1791 171.107 18.4928 176.977 16.7327C180.225 15.7587 183.712 16.5432 186.995 17.3929C190.277 18.2425 193.7 19.1606 197.012 18.4373C200.325 17.7139 203.424 14.7357 203.002 11.3699L201.348 10.5556Z" fill="#2F2E41"/>
<path d="M273.011 64.5638C272.679 63.8262 272.188 63.1706 271.575 62.6432C270.961 62.1157 270.239 61.7293 269.46 61.5111C268.681 61.2929 267.864 61.2482 267.066 61.3802C266.268 61.5122 265.508 61.8176 264.841 62.275L215.667 51.2334L215.055 63.2566L263.584 70.3295C264.427 71.4002 265.633 72.1245 266.973 72.3652C268.314 72.606 269.696 72.3464 270.858 71.6357C272.02 70.925 272.881 69.8126 273.278 68.5092C273.675 67.2058 273.58 65.802 273.011 64.5638Z" fill="#FFB8B8"/>
<path d="M224.289 52.3379L221.287 64.5094C221.202 64.8557 221.043 65.1795 220.821 65.4588C220.599 65.7381 220.32 65.9663 220.002 66.1278C219.684 66.2894 219.335 66.3805 218.979 66.395C218.623 66.4094 218.268 66.3469 217.938 66.2116L206.378 61.4721C204.608 61.0258 203.088 59.8955 202.151 58.3291C201.213 56.7627 200.935 54.8882 201.377 53.1169C201.819 51.3456 202.946 49.8222 204.51 48.8809C206.073 47.9397 207.946 47.6575 209.718 48.0962L222.115 49.2724C222.47 49.3062 222.813 49.4161 223.122 49.5947C223.43 49.7732 223.697 50.0163 223.903 50.3072C224.11 50.5981 224.251 50.9301 224.317 51.2805C224.384 51.631 224.374 51.9916 224.289 52.3379V52.3379Z" fill="#CB6BE6"/>
<path d="M267.331 74.1166C269.322 74.1166 270.936 72.5016 270.936 70.5094C270.936 68.5172 269.322 66.9022 267.331 66.9022C265.34 66.9022 263.725 68.5172 263.725 70.5094C263.725 72.5016 265.34 74.1166 267.331 74.1166Z" fill="#FEFC09"/>
<path d="M347 187.5C347 187.632 346.969 187.759 346.915 187.853C346.861 187.947 346.787 188 346.711 188H107.29C107.213 188 107.139 187.947 107.085 187.854C107.031 187.76 107 187.633 107 187.5C107 187.367 107.031 187.24 107.085 187.146C107.139 187.053 107.213 187 107.29 187H346.711C346.787 187 346.861 187.053 346.915 187.147C346.969 187.241 347 187.368 347 187.5Z" fill="#3F3D56"/>
</g>
<defs>
<clipPath id="clip0">
<rect width="427" height="188" fill="white" transform="translate(0.00012207)"/>
</clipPath>
</defs>
</svg>
