<svg width="467" height="371" viewBox="0 0 467 371" fill="none" xmlns="http://www.w3.org/2000/svg">
<g clip-path="url(#clip0)">
<path d="M348.365 366.544C341.901 361.083 337.974 352.456 339.004 344.058C340.034 335.66 346.411 327.939 354.684 326.156C362.956 324.373 372.387 329.309 374.899 337.389C376.282 321.812 377.876 305.582 386.159 292.317C393.659 280.306 406.65 271.712 420.729 270.174C434.808 268.636 449.632 274.444 458.412 285.554C467.193 296.664 469.343 312.816 463.193 325.571C458.663 334.967 450.317 341.96 441.572 347.649C413.314 365.878 379.422 373.291 346.132 368.524" fill="#FA7998"/>
<path d="M444.49 274.766C432.873 284.226 422.216 294.806 412.672 306.354C397.736 324.364 385.65 344.557 376.835 366.229C376.189 367.81 378.757 368.499 379.395 366.935C393.819 331.714 416.845 300.67 446.368 276.643C447.693 275.564 445.805 273.695 444.49 274.766Z" fill="white"/>
<path d="M114.176 370.281H77.5161C76.2773 370.28 75.0897 369.787 74.2138 368.912C73.3379 368.036 72.8452 366.848 72.8438 365.61V289.431C72.8452 288.193 73.3379 287.005 74.2138 286.129C75.0897 285.254 76.2773 284.761 77.5161 284.76H114.176C115.415 284.761 116.602 285.254 117.478 286.129C118.354 287.005 118.847 288.193 118.848 289.431V365.61C118.847 366.848 118.354 368.036 117.478 368.912C116.602 369.787 115.415 370.28 114.176 370.281Z" fill="#FEFC09"/>
<path d="M201.153 371H164.493C163.064 370.998 161.694 370.43 160.683 369.42C159.672 368.409 159.104 367.039 159.102 365.61V217.564C159.104 216.135 159.672 214.765 160.683 213.754C161.694 212.744 163.064 212.176 164.493 212.174H201.153C202.583 212.176 203.953 212.744 204.964 213.754C205.974 214.765 206.543 216.135 206.544 217.564V365.61C206.543 367.039 205.974 368.409 204.964 369.42C203.953 370.43 202.583 370.998 201.153 371ZM164.493 213.611C163.445 213.613 162.44 214.029 161.699 214.77C160.958 215.511 160.541 216.516 160.54 217.564V365.61C160.541 366.658 160.958 367.663 161.699 368.404C162.44 369.145 163.445 369.561 164.493 369.563H201.153C202.201 369.561 203.206 369.145 203.948 368.404C204.689 367.663 205.106 366.658 205.107 365.61V217.564C205.106 216.516 204.689 215.511 203.948 214.77C203.206 214.029 202.201 213.613 201.153 213.611H164.493Z" fill="#3F3D56"/>
<path d="M288.131 371H251.471C250.041 370.998 248.671 370.43 247.66 369.42C246.65 368.409 246.081 367.039 246.08 365.61V123.418C246.081 121.989 246.65 120.619 247.66 119.609C248.671 118.598 250.041 118.03 251.471 118.028H288.131C289.56 118.03 290.93 118.598 291.941 119.609C292.952 120.619 293.52 121.989 293.522 123.418V365.61C293.52 367.039 292.952 368.409 291.941 369.42C290.93 370.43 289.56 370.998 288.131 371ZM251.471 119.466C250.423 119.467 249.418 119.884 248.676 120.625C247.935 121.366 247.518 122.37 247.517 123.418V365.61C247.518 366.658 247.935 367.663 248.676 368.404C249.418 369.145 250.423 369.561 251.471 369.563H288.131C289.179 369.561 290.184 369.145 290.925 368.404C291.666 367.663 292.083 366.658 292.084 365.61V123.418C292.083 122.37 291.666 121.366 290.925 120.625C290.184 119.884 289.179 119.467 288.131 119.466H251.471Z" fill="#3F3D56"/>
<path d="M375.92 370.641H339.26C338.021 370.639 336.833 370.147 335.958 369.271C335.082 368.395 334.589 367.208 334.587 365.969V24.6012C334.589 23.3627 335.082 22.1754 335.958 21.2997C336.833 20.4239 338.021 19.9313 339.26 19.9299H375.92C377.158 19.9313 378.346 20.4239 379.222 21.2997C380.098 22.1754 380.591 23.3627 380.592 24.6012V365.969C380.591 367.208 380.098 368.395 379.222 369.271C378.346 370.147 377.158 370.639 375.92 370.641Z" fill="#FEFC09"/>
<path d="M466.144 370.695H0.856027C0.62946 370.694 0.412392 370.604 0.252417 370.443C0.0924425 370.283 0.00262451 370.066 0.00262451 369.839C0.00262451 369.613 0.0924425 369.395 0.252417 369.235C0.412392 369.075 0.62946 368.984 0.856027 368.984H466.144C466.371 368.984 466.588 369.075 466.748 369.235C466.908 369.395 466.998 369.613 466.998 369.839C466.998 370.066 466.908 370.283 466.748 370.443C466.588 370.604 466.371 370.694 466.144 370.695Z" fill="#3F3D56"/>
<path d="M467.361 340.301H414.786V370.633H467.361V340.301Z" fill="#CB6BE6"/>
<path d="M359.4 363.616C358.928 365.221 358.709 367.093 359.689 368.449C360.231 369.128 360.944 369.651 361.755 369.962C363.841 370.779 366.086 371.108 368.319 370.925C368.747 370.945 369.174 370.876 369.574 370.723C369.973 370.569 370.337 370.335 370.641 370.034C375.822 365.745 379.325 359.768 380.537 353.153C380.635 352.811 380.617 352.447 380.484 352.117C380.314 351.861 380.075 351.659 379.795 351.532C378.643 350.81 377.4 350.243 376.1 349.845C368.982 348.007 361.163 357.616 359.4 363.616Z" fill="#2F2E41"/>
<path d="M434.038 341.121C434.994 342.231 436.173 343.129 437.497 343.756C438.162 344.063 438.888 344.217 439.62 344.204C440.352 344.192 441.072 344.014 441.726 343.684C443.684 342.569 444.238 339.979 444.082 337.731C443.793 333.574 441.807 329.828 439.525 326.432C438.803 325.358 437.205 322.16 435.802 322.121C435.136 322.102 432.644 324.518 431.967 324.978C429.493 326.658 427.779 327.86 428.294 331.085C428.868 334.682 431.617 338.531 434.038 341.121Z" fill="#2F2E41"/>
<path d="M412.348 169.185C401.816 168.368 391.757 168.671 381.206 168.129C380.32 168.084 380.747 178.233 379.828 183.744C379.356 186.577 363.475 352.509 365.446 352.845C370.508 353.904 375.628 354.663 380.779 355.116C382.869 355.3 402.347 247.183 401.413 238.396C403.964 242.136 412.946 259.405 417.488 279.27C423.48 305.48 425.244 335.125 428.969 333.462C431.367 330.17 434.621 327.596 438.377 326.021C444.534 323.731 434.557 197.655 424.015 191.859C423.885 188.169 423.75 184.388 422.36 180.968C420.398 176.143 416.528 172.291 412.348 169.185Z" fill="#2F2E41"/>
<path d="M409.753 88.7012C404.287 79.4653 393.473 79.0348 393.473 79.0348C393.473 79.0348 382.935 77.6873 376.175 91.7537C369.874 104.865 361.178 117.524 374.775 120.593L377.231 112.949L378.752 121.162C380.688 121.301 382.63 121.335 384.569 121.262C399.13 120.791 412.998 121.399 412.551 116.174C411.957 109.228 415.012 97.588 409.753 88.7012Z" fill="#2F2E41"/>
<path d="M389.588 120.169C389.615 121.209 389.607 122.305 389.09 123.208C388.066 124.997 385.566 125.265 384.062 126.675C382.481 128.158 382.302 130.564 382.226 132.731C382.148 134.996 382.081 137.336 382.907 139.446C383.414 140.609 384.054 141.709 384.815 142.723C385.733 144.047 386.659 145.364 387.594 146.676C388.094 147.414 388.65 148.113 389.259 148.765C390.934 150.47 393.231 151.415 395.524 152.088C397.006 152.524 398.606 152.863 400.077 152.39C401.049 152.01 401.946 151.459 402.724 150.762C403.86 149.947 404.87 148.968 405.72 147.858C406.955 146.067 407.297 143.825 407.553 141.664C408.309 135.277 408.604 128.842 408.434 122.412C408.465 121.711 408.339 121.013 408.066 120.366C407.305 118.88 405.265 118.562 404.19 117.283C403.272 116.19 403.234 114.629 403.242 113.201L403.262 109.565C403.294 109.259 403.232 108.95 403.085 108.679C402.952 108.533 402.791 108.415 402.612 108.332C402.433 108.248 402.24 108.201 402.042 108.192C399.783 107.817 397.491 107.664 395.202 107.735C393.346 107.792 389.784 107.636 388.179 108.67C386.722 109.609 388.546 112.2 388.883 113.656C389.337 115.798 389.573 117.98 389.588 120.169Z" fill="#FFB8B8"/>
<path d="M393.849 113.925C401.965 113.925 408.545 107.345 408.545 99.2289C408.545 91.1124 401.965 84.5327 393.849 84.5327C385.732 84.5327 379.153 91.1124 379.153 99.2289C379.153 107.345 385.732 113.925 393.849 113.925Z" fill="#FFB8B8"/>
<path d="M390.521 131.012C382.936 106.975 378.94 140.737 374.157 149.955C374.202 156.311 374.374 173.891 375.86 180.554C381.635 206.438 410.231 204.406 418.83 182.576C423.411 170.947 413.249 142.128 413.594 128.681C401.001 115.921 400.224 156.402 390.521 131.012Z" fill="white"/>
<path d="M382.194 122.767C365.759 130.755 373.6 152.217 367.643 166.263C362.885 185.533 350.784 191.592 378.451 192.041C384.412 174.427 378.589 155.294 386.717 137.359C387.277 130.335 389.686 127.693 389.473 121.744C387.879 119.276 383.751 122.002 382.194 122.767Z" fill="#CB6BE6"/>
<path d="M407.336 87.8111L396.652 82.2143L381.898 84.5039L378.846 97.9864L386.445 97.6937L388.567 92.7405V97.6118L392.073 97.4773L394.109 89.5915L395.38 97.9864L407.845 97.7316L407.336 87.8111Z" fill="#2F2E41"/>
<path d="M400.728 129.532C409.187 128.545 400.94 118.386 407.654 118.559C427.76 115.177 433.775 127.63 426.128 145.01C419.119 158.931 443.913 178.487 430.062 186.277C425.146 188.081 418.108 193.757 413.303 191.286C405.59 171.9 405.312 149.75 400.728 129.532Z" fill="#CB6BE6"/>
<path d="M424.273 184.875C421.328 186.284 418.998 188.524 417.026 191.126C416.609 191.677 417.168 192.705 418.419 192.688C419.583 192.672 420.278 191.18 421.442 191.164C421.798 194.275 422.442 197.346 423.366 200.337C425.688 198.298 427.078 195.428 428.408 192.639L431.038 187.126C432.003 185.102 432.969 183.077 433.839 181.011C434.075 180.527 434.222 180.005 434.27 179.469C434.385 175.913 430.878 175.891 429.366 178.117C427.712 180.551 427.197 183.477 424.273 184.875Z" fill="#FFB8B8"/>
<path d="M424.878 123.73C427.126 126.066 429.39 128.422 431.135 131.154C432.88 133.887 441.908 158.46 442.274 158.981C443.577 160.905 442.055 165.877 441.978 166.162C441.827 167.055 439.944 175.971 439.472 177.939C439.142 179.317 439.146 180.752 438.93 182.152C438.714 183.552 438.227 184.992 437.149 185.911C437.012 186.043 436.843 186.137 436.658 186.185C436.06 186.302 435.653 185.61 435.443 185.037C434.791 183.255 434.133 181.438 432.983 179.928C431.834 178.418 430.091 177.236 428.194 177.242C428.037 176.866 427.972 176.459 428.004 176.053C428.036 175.648 428.165 175.255 428.379 174.91C428.76 174.192 429.317 173.585 429.737 172.89C430.268 171.943 430.629 170.91 430.804 169.838C431.742 164.915 430.798 159.819 428.161 155.557C427.548 154.547 426.806 153.62 425.955 152.8C425.028 151.931 423.944 151.233 423.088 150.295C421.769 148.733 420.972 146.798 420.808 144.761C420.65 142.737 420.704 140.702 420.968 138.689C421.353 134.695 421.848 130.695 422.418 126.723C422.462 126.206 422.596 125.7 422.814 125.229C423.262 124.393 424.02 124.133 424.878 123.73Z" fill="#CB6BE6"/>
<path d="M375.811 178.915C374.299 176.689 370.792 176.711 370.907 180.267C370.955 180.803 371.101 181.325 371.338 181.809C372.208 183.875 373.174 185.9 374.139 187.924L376.768 193.437C378.098 196.226 379.489 199.096 381.811 201.135C382.735 198.144 383.379 195.073 383.735 191.962C384.898 191.978 385.594 193.47 386.757 193.486C388.008 193.503 388.568 192.475 388.151 191.924C386.179 189.322 383.849 187.082 380.904 185.673C377.98 184.275 377.465 181.349 375.811 178.915Z" fill="#FFB8B8"/>
<path d="M382.362 126.027C382.58 126.498 382.714 127.004 382.758 127.521C383.329 131.493 383.823 135.493 384.208 139.487C384.473 141.5 384.527 143.535 384.369 145.559C384.205 147.596 383.407 149.531 382.088 151.093C381.233 152.031 380.149 152.729 379.222 153.598C378.371 154.418 377.629 155.344 377.016 156.355C374.379 160.617 373.435 165.713 374.372 170.636C374.547 171.708 374.909 172.741 375.44 173.688C375.86 174.383 376.417 174.99 376.797 175.708C377.012 176.053 377.14 176.445 377.173 176.851C377.205 177.257 377.14 177.664 376.983 178.04C375.085 178.034 373.343 179.216 372.193 180.726C371.044 182.236 370.385 184.053 369.733 185.835C369.524 186.408 369.116 187.1 368.518 186.983C368.334 186.935 368.165 186.841 368.028 186.709C366.949 185.79 366.463 184.35 366.247 182.95C366.031 181.55 366.035 180.115 365.705 178.737C365.233 176.768 363.35 167.853 363.199 166.96C363.122 166.675 361.6 161.703 362.903 159.779C363.269 159.258 372.296 134.685 374.042 131.952C375.787 129.22 378.051 126.864 380.299 124.528C381.157 124.931 381.915 125.191 382.362 126.027Z" fill="#CB6BE6"/>
</g>
<defs>
<clipPath id="clip0">
<rect width="467" height="371" fill="white" transform="translate(0.00012207)"/>
</clipPath>
</defs>
</svg>
