<svg width="150" height="150" viewBox="0 0 150 150" fill="none" xmlns="http://www.w3.org/2000/svg">
<path d="M96 63.7213V62.2059C95.9997 61.0903 95.571 60.0205 94.8082 59.2318C94.0454 58.4431 93.0109 58 91.9323 58H34.0677C32.9891 58 31.9546 58.4431 31.1918 59.2318C30.429 60.0205 30.0003 61.0903 30 62.2059V65L96 63.7213Z" fill="#33323D"/>
<path d="M51.0039 56.2221C51.0039 56.2221 50.8389 66.6839 52.6538 70.1262C54.4687 73.5685 55.2465 88.5434 55.2465 88.5434C55.2465 88.5434 74.2724 90.5548 87.5306 86.1345C100.789 81.7142 129 79.9063 129 79.9063L124.246 47.1586C124.246 47.1586 100.759 45.6193 87.3986 52.1318C74.0379 58.6442 51.0039 56.2221 51.0039 56.2221Z" fill="#8DD070"/>
<path opacity="0.1" d="M51.0039 56.2221C51.0039 56.2221 50.8389 66.6839 52.6538 70.1262C54.4687 73.5685 55.2465 88.5434 55.2465 88.5434C55.2465 88.5434 74.2724 90.5548 87.5306 86.1345C100.789 81.7142 129 79.9063 129 79.9063L124.246 47.1586C124.246 47.1586 100.759 45.6193 87.3986 52.1318C74.0379 58.6442 51.0039 56.2221 51.0039 56.2221Z" fill="black"/>
<path d="M54.1194 59.6579C54.1194 59.6579 53.5127 68.231 55.0347 70.9702C56.5567 73.7095 56.6276 85.9381 56.6276 85.9381C56.6276 85.9381 74.0808 86.7444 86.4959 82.5362C98.9109 78.328 125 75.5983 125 75.5983L122.035 49.0011C122.035 49.0011 100.449 48.7798 87.8497 54.7033C75.2508 60.6268 54.1194 59.6579 54.1194 59.6579Z" fill="#8DD070"/>
<path opacity="0.1" d="M87.7121 77.8559C90.1676 77.55 91.6265 73.0327 90.9705 67.7661C90.3145 62.4995 87.7921 58.478 85.3365 58.7839C82.881 59.0897 81.4221 63.6071 82.0781 68.8737C82.7341 74.1403 85.2565 78.1617 87.7121 77.8559Z" fill="black"/>
<path opacity="0.2" d="M111.529 32C111.529 32 88.5273 37.8021 77.6806 48.0151C66.8339 58.228 44 63.0639 44 63.0639C44 63.0639 47.0081 72.9027 49.7904 75.5646C52.5728 78.2264 57.85 92 57.85 92C57.85 92 76.7123 88.0143 88.0936 79.7871C99.4749 71.5599 126 61.1693 126 61.1693L111.529 32Z" fill="black"/>
<path d="M43 61.0634C43 61.0634 46.0069 70.9035 48.787 73.5654C51.567 76.2274 56.8467 90 56.8467 90C56.8467 90 75.7116 86.0154 87.0943 77.788C98.4769 69.5607 125 59.1735 125 59.1735L110.528 30C110.528 30 87.5279 35.8023 76.681 46.0154C65.8342 56.2285 43 61.0634 43 61.0634Z" fill="#8DD070"/>
<path opacity="0.1" d="M43 61.0634C43 61.0634 46.0069 70.9035 48.787 73.5654C51.567 76.2274 56.8467 90 56.8467 90C56.8467 90 75.7116 86.0154 87.0943 77.788C98.4769 69.5607 125 59.1735 125 59.1735L110.528 30C110.528 30 87.5279 35.8023 76.681 46.0154C65.8342 56.2285 43 61.0634 43 61.0634Z" fill="black"/>
<path d="M48 63.8187C48 63.8187 50.0543 72.1432 52.3357 74.2789C54.617 76.4146 58.4305 88 58.4305 88C58.4305 88 75.202 83.4446 85.6671 75.6654C96.1323 67.8861 120 57.3543 120 57.3543L109.04 33C109.04 33 88.5341 39.3678 78.4203 48.8317C68.3065 58.2957 48 63.8187 48 63.8187Z" fill="#8DD070"/>
<path opacity="0.1" d="M85.531 70.345C87.7742 69.3003 87.7765 64.5533 85.5361 59.7421C83.2957 54.9309 79.6609 51.8774 77.4177 52.922C75.1744 53.9667 75.1721 58.7137 77.4126 63.5249C79.653 68.3361 83.2877 71.3896 85.531 70.345Z" fill="black"/>
<path opacity="0.1" d="M98 65.0757V105.504C98 105.964 97.9083 106.418 97.7303 106.842C97.5522 107.267 97.2912 107.652 96.9621 107.977C96.6331 108.301 96.2424 108.559 95.8126 108.734C95.3827 108.91 94.9219 109 94.4567 109H33.5409C32.6017 109 31.7011 108.631 31.037 107.976C30.373 107.32 30 106.431 30 105.504V61C31.7455 61.6398 31.7455 61.6398 33.5409 61.5859H94.4567C95.3952 61.5859 96.2954 61.9534 96.9597 62.6076C97.624 63.2619 97.9981 64.1495 98 65.0757Z" fill="black"/>
<path d="M98 65.1617V106.432C97.9997 107.378 97.6262 108.286 96.9618 108.955C96.2973 109.624 95.3962 110 94.4567 110H33.5409C32.6017 110 31.7011 109.624 31.037 108.954C30.373 108.285 30 107.378 30 106.432V61C31.7455 61.6519 31.7455 61.6519 33.5409 61.5981H94.4567C95.3954 61.5981 96.2958 61.9734 96.9601 62.6415C97.6244 63.3096 97.9984 64.216 98 65.1617Z" fill="#504F60"/>
<path opacity="0.1" d="M98 80V94H85.4061C83.6992 93.9752 82.07 93.2268 80.8711 91.9168C79.6722 90.6067 79 88.8404 79 87C79 85.1596 79.6722 83.3933 80.8711 82.0832C82.07 80.7732 83.6992 80.0248 85.4061 80H98Z" fill="black"/>
<path d="M98 80V93H85.4061C83.6992 92.977 82.07 92.2822 80.8711 91.0659C79.6722 89.8497 79 88.2098 79 86.5012C79 84.7926 79.6722 83.1527 80.8711 81.9364C82.07 80.7202 83.6992 80.0254 85.4061 80.0024L98 80Z" fill="#33323D"/>
<path opacity="0.1" d="M85.5 89C86.8807 89 88 88.1046 88 87C88 85.8954 86.8807 85 85.5 85C84.1193 85 83 85.8954 83 87C83 88.1046 84.1193 89 85.5 89Z" fill="black"/>
<path d="M85.5 89C86.8807 89 88 87.8807 88 86.5C88 85.1193 86.8807 84 85.5 84C84.1193 84 83 85.1193 83 86.5C83 87.8807 84.1193 89 85.5 89Z" fill="#6C63FF"/>
</svg>
