<svg width="323" height="253" viewBox="0 0 323 253" fill="none" xmlns="http://www.w3.org/2000/svg">
<g clip-path="url(#clip0)">
<path opacity="0.1" d="M113.303 248.1C144.42 248.1 169.646 243.316 169.646 237.415C169.646 231.514 144.42 226.731 113.303 226.731C82.1859 226.731 56.9604 231.514 56.9604 237.415C56.9604 243.316 82.1859 248.1 113.303 248.1Z" fill="#6C63FF"/>
<path opacity="0.1" d="M232.343 252.369C263.46 252.369 288.686 247.586 288.686 241.685C288.686 235.784 263.46 231 232.343 231C201.226 231 176 235.784 176 241.685C176 247.586 201.226 252.369 232.343 252.369Z" fill="#6C63FF"/>
<path opacity="0.1" d="M187.665 35.6799C166.958 34.9625 147.236 28.2686 128.404 20.947C109.572 13.6253 90.919 5.51582 70.7079 1.63721C57.7084 -0.857785 42.8404 -1.2133 32.3685 5.75603C22.287 12.4819 19.0299 24.0601 17.2798 34.812C15.9616 42.9023 15.1873 51.4186 18.7964 58.9932C21.3047 64.2523 25.752 68.6721 28.8299 73.7102C39.5386 91.236 31.9686 112.849 20.3673 129.961C14.9282 137.987 8.60922 145.655 4.4083 154.191C0.207389 162.726 -1.73469 172.539 1.94151 181.27C5.58251 189.918 14.2627 196.4 23.666 200.964C42.7636 210.237 65.2592 212.888 87.2108 214.394C135.788 217.718 184.622 216.28 233.328 214.836C251.354 214.304 269.456 213.763 287.188 210.973C297.036 209.423 307.2 206.963 314.351 201.025C323.425 193.489 325.674 180.729 319.592 171.281C309.392 155.427 281.198 151.491 274.06 134.48C270.138 125.115 274.166 114.687 279.87 106.004C292.105 87.3734 312.611 71.0294 313.689 49.7371C314.431 35.113 304.574 20.4666 289.331 13.5453C273.356 6.2909 251.2 7.2037 239.419 19.2111C227.277 31.5611 205.95 36.3173 187.665 35.6799Z" fill="#6C63FF"/>
<path d="M148.241 130.915C145.042 135.498 133.54 133.071 133.54 133.071L124.626 124.721L123.426 123.59L125.439 119.311C125.439 119.311 126.079 119.487 127.176 119.801C132.938 121.476 150.942 127.062 148.241 130.915Z" fill="#EFB7B9"/>
<path opacity="0.1" d="M127.17 119.801C126.776 121.172 125.698 123.225 124.626 124.721L123.426 123.59L125.439 119.311C125.439 119.311 126.085 119.487 127.17 119.801Z" fill="black"/>
<path d="M96.5987 71.5477C96.5987 71.5477 88.3825 75.1957 88.7856 84.1539C89.0757 89.9253 89.7038 95.6746 90.6669 101.372C90.6669 101.372 88.9872 114.853 95.9812 118.328C102.975 121.803 109.448 124.66 109.448 124.66C109.448 124.66 120.39 125.839 121.75 126.325C123.11 126.812 127.359 119.369 126.575 118.209C125.791 117.05 115.748 114.619 114.468 112.685C113.188 110.75 110.229 109.555 110.229 109.555C110.229 109.555 107.173 107.704 106.965 106.032C106.757 104.36 107.563 103.115 107.768 102.381C107.973 101.648 108.491 94.5663 108.491 94.5663C108.491 94.5663 111.94 69.3601 96.5987 71.5477Z" fill="#CB6BE6"/>
<path opacity="0.1" d="M102.022 101.004C102.022 101.004 90.7501 102.894 91.8411 106.843C91.8411 106.843 95.9332 102.58 102.022 101.004Z" fill="black"/>
<path opacity="0.1" d="M102.108 102.602C102.108 102.602 95.9108 107.666 97.1234 107.925C98.336 108.185 102.108 102.602 102.108 102.602Z" fill="black"/>
<path opacity="0.1" d="M105.087 104.367C105.087 104.367 103.426 107.772 104.447 107.541C105.468 107.31 105.087 104.367 105.087 104.367Z" fill="black"/>
<path opacity="0.1" d="M127.586 120.163L126.901 119.968C127.096 119.327 127.151 118.808 126.991 118.568C126.207 117.409 116.17 114.981 114.893 113.043C113.617 111.106 110.654 109.914 110.654 109.914C110.654 109.914 107.599 108.063 107.391 106.391C107.183 104.719 107.989 103.473 108.194 102.74C108.398 102.007 108.917 94.9219 108.917 94.9219C108.917 94.9219 112.356 69.7189 97.0147 71.9064C97.0147 71.9064 88.7984 75.5576 89.1983 84.5159C89.4885 90.2874 90.1178 96.0368 91.0828 101.734C91.0828 101.734 89.4031 115.215 96.3972 118.69C103.391 122.165 109.864 125.022 109.864 125.022C109.864 125.022 120.803 126.197 122.166 126.687C122.681 126.873 123.612 125.916 124.524 124.599L125.042 125.083L133.956 133.429C133.956 133.429 145.458 135.86 148.657 131.277C151.361 127.421 133.361 121.835 127.586 120.163Z" fill="black"/>
<path d="M91.8699 37.9246C91.5567 37.9859 91.2567 38.1019 90.9837 38.2673C90.6637 38.5331 90.6637 38.9879 90.5837 39.385C90.4898 39.9375 90.2709 40.4612 89.9438 40.916C90.3079 40.9427 90.6731 40.8823 91.0092 40.7398C90.9545 41.1782 90.8471 41.6084 90.6893 42.021C90.8887 42.026 91.0852 41.9734 91.2555 41.8695C91.4257 41.7655 91.5624 41.6146 91.6491 41.4348C91.8184 41.0739 91.9524 40.6974 92.0491 40.3107C92.0791 40.195 92.1313 40.0862 92.2027 39.9904C92.497 39.6413 93.0441 39.7982 93.4984 39.843C93.8765 39.875 94.2563 39.8051 94.5983 39.6406C94.9404 39.4762 95.2323 39.2232 95.4437 38.9078C95.9269 38.1744 95.9557 36.2975 94.8038 36.099C93.6008 35.9004 92.8522 37.5594 91.8699 37.9246Z" fill="#965D7B"/>
<g opacity="0.1">
<path opacity="0.1" d="M90.9516 38.6612C90.9804 38.5043 90.9996 38.341 91.0348 38.184C90.7309 38.4499 90.7149 38.9015 90.6349 39.3018C90.5946 39.5328 90.5313 39.7592 90.4461 39.9776C90.698 39.5756 90.8697 39.1286 90.9516 38.6612Z" fill="black"/>
<path opacity="0.1" d="M91.054 41.3068C91.2133 40.8947 91.3208 40.4643 91.374 40.0256C91.0536 40.1606 90.7068 40.2209 90.3597 40.2018C90.2587 40.427 90.1355 40.6416 89.9918 40.8424C90.3546 40.8705 90.7188 40.8111 91.054 40.6694C91.0009 41.1081 90.8934 41.5384 90.7341 41.9505C90.9334 41.9552 91.1298 41.9024 91.2999 41.7985C91.4701 41.6946 91.6069 41.5439 91.6939 41.3644C91.7736 41.2188 91.838 41.0653 91.8859 40.9064C91.792 41.0377 91.6666 41.1433 91.5212 41.2133C91.3758 41.2832 91.2151 41.3154 91.054 41.3068Z" fill="black"/>
<path opacity="0.1" d="M93.8632 39.1289C93.4088 39.084 92.8585 38.9271 92.5642 39.2762C92.4941 39.3728 92.4421 39.4813 92.4106 39.5965C92.3818 39.6797 92.3562 39.7662 92.3338 39.8527C92.6378 39.6125 93.1305 39.7406 93.5432 39.7822C93.9212 39.8131 94.3006 39.7428 94.6424 39.5784C94.9843 39.4141 95.2763 39.1617 95.4885 38.847C95.5855 38.6915 95.6578 38.5219 95.7029 38.3442C95.4837 38.6157 95.2014 38.8292 94.8807 38.966C94.5599 39.1028 94.2105 39.1587 93.8632 39.1289Z" fill="black"/>
</g>
<path d="M101.5 64.3766L106.38 70.2505L105.743 76.179L99.8462 66.9388L101.5 64.3766Z" fill="#CB6BE6"/>
<path opacity="0.1" d="M106.376 70.2505L105.778 75.8267L105.74 76.179L100.419 67.8388L99.8462 66.9388L100.013 66.6794L101.497 64.3766L101.827 64.7737L106.376 70.2505Z" fill="#CB6BE6"/>
<path d="M108.91 56.424C107.259 56.898 105.682 58.525 104.309 60.5012C103.382 61.8647 102.552 63.2924 101.827 64.7737C101.376 65.6769 100.979 66.5449 100.649 67.3008L100.419 67.8388C99.8622 69.1552 99.5518 70.036 99.5518 70.036C99.5518 70.036 86.9139 60.5236 88.9136 59.883C89.5855 59.6685 90.4685 58.2272 91.342 56.4112L91.4508 56.1806C92.0043 55.0148 92.5482 53.7144 93.0313 52.4909C94.0199 49.9767 94.7526 47.7924 94.7526 47.7924C94.7526 47.7924 113.949 54.9827 108.91 56.424Z" fill="#EFB7B9"/>
<path d="M116.471 47.2576C116.471 47.2576 119.389 52.5422 123.308 51.8216C127.227 51.1009 125.615 48.9839 125.615 48.9839L116.471 47.2576Z" fill="#444053"/>
<path d="M110.817 230.186C108.232 231.368 102.387 230.186 102.387 230.186L99.923 230.033C96.7235 229.828 91.3676 229.482 89.4735 229.328C86.7091 229.101 87.3874 227.967 87.3874 227.967V221.116L100.8 217.715C100.8 217.715 106.101 219.531 107.554 221.116C108.933 222.628 109.739 221.465 112.199 221.901C112.321 221.923 112.449 221.949 112.583 221.981C114.919 222.516 116.186 222.727 116.935 224.665C117.085 225.072 117.206 225.489 117.296 225.914C117.987 229.033 113.399 229.011 110.817 230.186Z" fill="#A36468"/>
<path opacity="0.1" d="M116.935 224.665C116.454 224.965 115.949 225.225 115.424 225.44C113.665 226.244 111.991 227.224 110.212 227.983C108.434 228.742 106.517 229.283 104.591 229.139C103.583 229.065 102.553 228.819 101.59 229.107C100.994 229.337 100.433 229.649 99.923 230.033C96.7235 229.828 91.3676 229.482 89.4735 229.328C86.7091 229.101 87.3874 227.967 87.3874 227.967V227.166C87.4866 227.166 87.5986 227.137 87.7266 227.128C88.3887 227.117 89.048 227.216 89.6782 227.419C91.0668 227.797 92.449 228.169 93.8376 228.54C93.9518 228.109 94.1525 227.705 94.4275 227.354C94.7025 227.002 95.0461 226.711 95.4373 226.497C96.2298 226.076 97.1194 225.871 98.0161 225.904C100.169 225.933 102.207 226.955 104.357 227.057C104.959 227.113 105.564 227.011 106.114 226.763C106.408 226.615 106.667 226.401 106.955 226.237C107.416 226.014 107.903 225.849 108.405 225.747C109.815 225.396 111.199 224.949 112.548 224.408C112.932 224.258 113.38 223.986 113.329 223.576C113.262 223.031 112.407 222.967 112.183 222.468C112.144 222.377 112.126 222.279 112.13 222.181C112.134 222.083 112.161 221.987 112.209 221.901C112.331 221.923 112.459 221.949 112.593 221.981C114.919 222.516 116.186 222.727 116.935 224.665Z" fill="black"/>
<path d="M108.085 245.176C105.045 246.566 98.1665 245.176 98.1665 245.176L95.2709 245.006C91.5211 244.766 85.2054 244.365 82.9753 244.176C79.7215 243.907 80.5213 242.575 80.5213 242.575V234.501L96.3044 230.497C96.3044 230.497 102.543 232.633 104.252 234.501C105.874 236.278 106.811 234.911 109.72 235.423C109.864 235.449 110.014 235.481 110.171 235.516C112.919 236.156 114.41 236.397 115.29 238.677C115.468 239.156 115.61 239.647 115.716 240.147C116.509 243.818 111.124 243.789 108.085 245.176Z" fill="#A36468"/>
<path opacity="0.1" d="M115.284 238.677C114.718 239.03 114.124 239.336 113.508 239.59C111.438 240.535 109.467 241.688 107.375 242.581C105.282 243.475 103.026 244.109 100.758 243.942C99.5742 243.856 98.3616 243.558 97.2386 243.904C96.5349 244.178 95.8727 244.549 95.2709 245.006C91.5211 244.766 85.2054 244.365 82.9753 244.176C79.7215 243.907 80.5213 242.575 80.5213 242.575V241.633C80.6538 241.612 80.7873 241.597 80.9213 241.588C81.7007 241.574 82.4771 241.69 83.2185 241.931L88.1105 243.251C88.2468 242.742 88.4853 242.266 88.8115 241.852C89.1377 241.439 89.5448 241.096 90.0078 240.845C90.9403 240.348 91.9881 240.107 93.0441 240.147C95.5781 240.182 97.9745 241.383 100.505 241.505C101.21 241.569 101.92 241.451 102.566 241.162C102.914 240.986 103.206 240.733 103.558 240.544C104.099 240.279 104.672 240.085 105.263 239.968C106.913 239.551 108.533 239.024 110.113 238.392C110.564 238.213 111.092 237.892 111.032 237.412C110.952 236.771 109.947 236.694 109.681 236.105C109.637 235.999 109.616 235.884 109.622 235.768C109.627 235.653 109.659 235.541 109.713 235.439C109.857 235.465 110.008 235.497 110.164 235.532C112.913 236.147 114.404 236.397 115.284 238.677Z" fill="black"/>
<path d="M101.206 189.77L100.352 209.893C100.352 209.893 99.0719 214.003 99.7662 215.178C100.46 216.353 101.632 217.526 101.206 218.221C100.78 218.916 95.6613 226.429 94.0071 223.547C92.353 220.664 90.7213 208.173 90.7213 208.173L92.2474 192.745L101.206 189.77Z" fill="#444053"/>
<path d="M104.911 139.633L107.285 142.81V170.444C107.285 170.444 107.979 177.811 107.285 179.332C106.591 180.853 103.071 183.896 103.071 183.896L100.112 168.683L100.752 152.589L104.911 139.633Z" fill="#444053"/>
<path opacity="0.1" d="M101.206 189.77L100.352 209.893C100.352 209.893 99.0719 214.003 99.7662 215.178C100.46 216.353 101.632 217.526 101.206 218.221C100.78 218.916 95.6613 226.429 94.0071 223.547C92.353 220.664 90.7213 208.173 90.7213 208.173L92.2474 192.745L101.206 189.77Z" fill="black"/>
<path opacity="0.1" d="M104.911 139.633L107.285 142.81V170.444C107.285 170.444 107.979 177.811 107.285 179.332C106.591 180.853 103.071 183.896 103.071 183.896L100.112 168.683L100.752 152.589L104.911 139.633Z" fill="black"/>
<path d="M107.285 127.847V142.794L104.62 154.43C104.62 154.43 103.766 182.509 104.511 185.923C105.257 189.338 101.951 192.544 101.951 192.544C101.951 192.544 100.032 192.758 100.032 194.251C100.032 195.743 96.8323 200.016 96.8323 200.016L96.9379 208.343C96.9379 208.343 98.3265 223.931 96.1924 226.92C94.0584 229.908 96.9379 230.337 96.9379 230.337C94.2727 239.09 81.4748 237.063 80.3198 236.102C79.1648 235.141 80.3198 216.245 80.3198 216.245C80.3198 216.245 83.1801 187.419 85.4198 186.138C87.6594 184.857 85.5286 183.256 86.274 181.334C87.0195 179.412 85.5286 174.182 85.5286 174.182C85.5286 174.182 84.8887 167.988 83.2889 164.999C81.6892 162.011 81.9003 153.79 81.9003 153.79C81.9003 153.79 77.4211 147.81 76.0901 145.462C74.7591 143.115 73.9017 137.029 74.2216 132.436C74.4392 129.333 76.0677 124.814 77.1011 122.213C77.597 120.967 77.9554 120.16 77.9554 120.16L78.2593 120.24L95.7349 124.82L107.285 127.847Z" fill="#444053"/>
<path opacity="0.1" d="M108.91 56.424C107.259 56.898 105.682 58.525 104.309 60.5011H103.951C101.939 60.5026 99.9626 59.9723 98.2211 58.964C96.4795 57.9556 95.0347 56.5049 94.0327 54.7585C93.614 54.0349 93.2771 53.2668 93.0281 52.4685C94.0167 49.9543 94.7494 47.77 94.7494 47.77C94.7494 47.77 113.949 54.9827 108.91 56.424Z" fill="black"/>
<path d="M115.389 48.4169C115.392 50.1694 114.993 51.8991 114.223 53.4729C113.453 55.0466 112.332 56.4224 110.947 57.4942C109.562 58.5661 107.95 59.3053 106.234 59.6551C104.519 60.0049 102.746 59.9559 101.053 59.5118C99.3591 59.0677 97.79 58.2404 96.4663 57.0936C95.1425 55.9469 94.0994 54.5112 93.4172 52.8973C92.735 51.2834 92.432 49.5342 92.5315 47.7846C92.631 46.035 93.1304 44.3316 93.9912 42.8056C94.3379 42.1856 94.7429 41.6 95.2006 41.0569C95.955 40.1571 96.8418 39.3773 97.8305 38.7444C99.5005 37.6821 101.417 37.0716 103.393 36.9726C105.37 36.8735 107.338 37.2894 109.105 38.1794C110.873 39.0695 112.379 40.4033 113.478 42.0506C114.577 43.6979 115.23 45.6023 115.373 47.5778C115.38 47.8597 115.389 48.1383 115.389 48.4169Z" fill="#EFB7B9"/>
<path opacity="0.1" d="M105.778 75.8267L105.74 76.179L100.419 67.8517C99.8622 69.168 99.5518 70.0488 99.5518 70.0488C99.5518 70.0488 86.9139 60.5236 88.9136 59.8831C89.5855 59.6685 90.4685 58.2272 91.342 56.4112L91.4507 56.1806C92.3786 58.9478 97.7697 64.4791 100.013 66.6954C100.272 66.9517 100.486 67.1631 100.652 67.3168L100.995 67.6371L101.174 67.8164C101.99 68.6588 105.432 72.374 105.778 75.8267Z" fill="black"/>
<path d="M109.755 104.082L109.173 122.841L109.07 126.181C109.07 126.181 102.172 125.541 95.7349 124.836C90.5517 124.269 85.6661 123.658 84.9142 123.299C83.9544 122.847 81.8971 122.498 80.275 122.277C79.0208 122.107 78.0354 122.018 78.0354 122.018C78.0354 122.018 77.6674 122.127 77.1011 122.229C75.8661 122.453 73.6969 122.636 72.4331 121.537C70.8174 120.131 75.0631 115.023 76.1221 113.796L76.3556 113.53L75.9557 109.831L74.9159 100.239C74.9159 100.239 74.276 94.7137 73.3161 91.7511C73.0595 90.9087 72.8744 90.0463 72.7626 89.1728C72.406 86.467 72.5887 83.7172 73.3001 81.0825C73.6041 79.9629 73.797 78.8161 73.8761 77.6587C74.036 74.6961 83.0745 63.246 85.3142 62.2051C86.3217 61.7348 87.1324 60.9255 87.605 59.9183C87.761 59.6016 87.8781 59.2671 87.9537 58.9222C88.9136 54.7585 91.342 56.4112 91.342 56.4112C91.9275 59.6684 100.992 68.2904 100.992 68.2904L101.171 68.4698C102.07 69.3922 106.076 73.7224 105.791 77.4185C105.734 78.7941 105.939 80.168 106.396 81.4668C108.239 87.2782 109.299 93.3102 109.547 99.4026L109.755 104.082Z" fill="#CB6BE6"/>
<path opacity="0.1" d="M96.9123 81.8063C96.9123 81.8063 94.6726 87.2511 92.9929 88.1318C91.3132 89.0126 97.7122 89.9895 96.9123 81.8063Z" fill="black"/>
<path opacity="0.1" d="M98.592 91.9752C98.592 91.9752 93.4728 92.6158 93.4728 93.5766C93.4728 94.5375 98.592 91.9752 98.592 91.9752Z" fill="black"/>
<path opacity="0.1" d="M103.951 98.2207C103.951 98.2207 96.5124 114.075 94.4327 114.555C92.353 115.035 103.951 98.2207 103.951 98.2207Z" fill="black"/>
<path opacity="0.1" d="M100.851 69.0944L94.6982 71.7719L87.2722 60.5428C87.4283 60.2261 87.5454 59.8917 87.621 59.5468C88.5808 55.3831 91.0092 57.0358 91.0092 57.0358C91.5947 60.293 100.659 68.915 100.659 68.915L100.851 69.0944Z" fill="black"/>
<path d="M101.171 68.4538L95.0182 71.1313L87.5922 59.9023C87.7483 59.5856 87.8654 59.2511 87.941 58.9062C88.9008 54.7425 91.3292 56.3952 91.3292 56.3952C91.9147 59.6525 100.979 68.2744 100.979 68.2744L101.171 68.4538Z" fill="#CB6BE6"/>
<path opacity="0.1" d="M109.07 126.181C109.07 126.181 102.172 125.541 95.7349 124.836L107.285 127.863V131.386C106.779 131.844 106.341 132.081 106.056 131.959C104.725 131.399 93.8632 129.637 93.8632 129.637C93.8632 129.637 87.5538 126.434 80.7454 122.591C80.5801 122.499 80.4199 122.399 80.2654 122.29C79.4716 121.75 78.7875 121.065 78.2498 120.269C76.9924 118.447 76.3781 116.105 76.1125 113.809C75.9632 112.493 75.9076 111.168 75.9461 109.844C75.9791 108.343 76.116 106.845 76.3557 105.363C75.6972 99.6218 75.3767 93.8468 75.3958 88.0679C75.4758 79.1 83.8744 75.8972 83.8744 75.8972C99.3119 74.536 94.5255 99.5179 94.5255 99.5179C94.5255 99.5179 93.6328 106.564 93.3897 107.285C93.1465 108.005 92.2731 109.206 92.3914 110.888C92.5098 112.569 95.4597 114.581 95.4597 114.581C95.4597 114.581 98.3393 115.932 99.5263 117.934C100.39 119.411 106.002 121.412 109.173 122.841L109.07 126.181Z" fill="black"/>
<path opacity="0.1" d="M114.241 41.3068C114.247 41.8343 114.137 42.3568 113.921 42.8377C113.757 43.2301 113.566 43.6111 113.351 43.9779C113.014 44.6527 112.536 45.2469 111.95 45.7202C111.211 46.2487 110.276 46.396 109.39 46.6106C108.504 46.8252 107.583 47.1679 107.077 47.9238C106.803 48.4097 106.62 48.9415 106.536 49.4932C106.452 50.0443 106.232 50.5659 105.896 51.0113C105.722 51.2287 105.48 51.382 105.209 51.4469C104.938 51.5118 104.653 51.4848 104.399 51.37C104.131 51.1894 103.929 50.9279 103.82 50.6237C103.455 49.8006 103.362 48.8878 103.215 48.0006C103.068 47.1135 102.86 46.2007 102.316 45.4864C101.772 44.7722 100.809 44.3014 99.955 44.58C99.6691 44.6902 99.4083 44.8571 99.1884 45.0706C98.9685 45.2842 98.7939 45.54 98.6752 45.8227C98.4388 46.3888 98.2764 46.983 98.1921 47.5907C97.7953 49.7643 97.3271 51.9252 96.7875 54.0732C96.771 54.1612 96.7349 54.2444 96.6819 54.3166C96.5969 54.4015 96.482 54.4497 96.362 54.4511C95.6453 54.5472 94.9574 54.0444 94.2343 54.0988C94.1598 54.1038 94.0859 54.1156 94.0135 54.134C92.8445 52.1001 92.3283 49.7556 92.5349 47.4182C92.7415 45.0807 93.6609 42.8634 95.1686 41.0665L95.2261 41.0505C95.7071 40.8796 96.1442 40.6039 96.5059 40.2434C96.9678 39.7807 97.3955 39.2851 97.7857 38.7605L98.0417 38.4402C98.7771 37.5533 99.6148 36.7567 100.537 36.0669C100.789 35.8604 101.078 35.7039 101.388 35.6057C101.654 35.5539 101.926 35.5453 102.195 35.5801C103.3 35.7129 104.414 35.7547 105.525 35.705C106.3 35.5831 107.081 35.504 107.864 35.468C109.889 35.5257 111.617 36.9573 112.897 38.5267C113.585 39.3306 114.199 40.2562 114.241 41.3068Z" fill="black"/>
<path d="M92.497 43.1099C92.0523 43.8401 91.2492 44.3366 90.9484 45.1373C90.5069 46.2999 91.2524 47.7476 90.5677 48.7853C90.3405 49.1344 89.9662 49.3938 89.8382 49.7942C89.6207 50.4699 90.2158 51.1906 90.0622 51.8856C89.9086 52.5806 88.9936 53.1667 89.2367 53.8457C89.3804 54.1418 89.6325 54.3712 89.9406 54.4863C90.4254 54.7647 90.9834 54.8887 91.5403 54.8418C92.4138 54.6977 93.0633 53.8393 93.9495 53.7752C94.6694 53.724 95.3573 54.2236 96.074 54.1308C96.1941 54.1266 96.3083 54.0774 96.394 53.993C96.4483 53.9217 96.4846 53.8381 96.4995 53.7496C97.037 51.6037 97.5063 49.4429 97.9073 47.2671C97.989 46.6593 98.1504 46.0648 98.3872 45.4992C98.5069 45.217 98.6818 44.9617 98.9016 44.7483C99.1214 44.5349 99.3816 44.3676 99.667 44.2565C100.521 43.981 101.481 44.4487 102.028 45.1629C102.575 45.8771 102.783 46.7899 102.93 47.6771C103.078 48.5643 103.17 49.4771 103.532 50.3002C103.642 50.6055 103.846 50.8679 104.114 51.0497C104.594 51.3283 105.241 51.1073 105.608 50.6909C105.946 50.2454 106.166 49.7223 106.248 49.1696C106.332 48.6189 106.515 48.0882 106.789 47.6034C107.295 46.8476 108.219 46.5049 109.102 46.2903C109.985 46.0757 110.916 45.9252 111.662 45.3967C112.248 44.9239 112.726 44.3308 113.063 43.6576C113.537 42.8312 113.978 41.9344 113.94 40.9832C113.898 39.9455 113.284 39.0199 112.628 38.2128C111.348 36.6434 109.617 35.2117 107.592 35.1573C106.809 35.1901 106.028 35.2692 105.253 35.3943C104.141 35.4443 103.027 35.4015 101.923 35.2662C101.654 35.234 101.382 35.2437 101.116 35.295C100.806 35.39 100.517 35.5469 100.269 35.7562C99.3451 36.4448 98.5064 37.2404 97.7697 38.1263C97.2948 38.7567 96.7796 39.3558 96.2276 39.9199C95.8657 40.281 95.4288 40.5576 94.9478 40.7302C94.6278 40.8199 94.3079 40.7558 94.0039 40.8551C93.0601 41.153 92.9353 42.386 92.497 43.1099Z" fill="#965D7B"/>
<path opacity="0.1" d="M123.308 51.8184C120.748 52.2892 118.627 50.217 117.453 48.7052C117.092 48.2461 116.764 47.7624 116.471 47.2576L125.256 48.9166L125.612 48.9839C125.612 48.9839 127.227 51.101 123.308 51.8184Z" fill="black"/>
<g opacity="0.1">
<path opacity="0.1" d="M90.0622 50.9696C90.098 50.5508 90.0344 50.1293 89.8766 49.7397C89.8766 49.7718 89.8478 49.8038 89.8382 49.8358C89.7007 50.265 89.8862 50.7102 90.0046 51.1554C90.03 51.0956 90.0493 51.0333 90.0622 50.9696Z" fill="black"/>
<path opacity="0.1" d="M90.8236 45.7266C90.7907 46.1695 90.7993 46.6145 90.8492 47.0558C90.882 46.6129 90.8735 46.1679 90.8236 45.7266Z" fill="black"/>
<path opacity="0.1" d="M113.044 42.732C112.707 43.4068 112.229 44.001 111.643 44.4743C110.904 45.0028 109.973 45.1501 109.083 45.3647C108.194 45.5793 107.275 45.922 106.77 46.6779C106.496 47.164 106.313 47.6957 106.229 48.2473C106.146 48.7998 105.926 49.3228 105.589 49.7686C105.221 50.185 104.575 50.4092 104.095 50.1273C103.827 49.9456 103.623 49.6831 103.513 49.3779C103.151 48.5547 103.055 47.6451 102.911 46.7548C102.767 45.8644 102.553 44.9548 102.009 44.2405C101.465 43.5263 100.502 43.0555 99.6478 43.3341C99.3622 43.4448 99.1017 43.6119 98.8818 43.8253C98.662 44.0388 98.4872 44.2944 98.368 44.5768C98.1312 45.1425 97.9698 45.7369 97.8881 46.3448C97.4892 48.5206 97.02 50.6814 96.4803 52.8273C96.4654 52.9158 96.4291 52.9993 96.3748 53.0707C96.2891 53.1551 96.1749 53.2042 96.0548 53.2084C95.3381 53.3013 94.6502 52.8017 93.9304 52.8529C93.0441 52.917 92.3946 53.7753 91.5212 53.9163C90.964 53.9663 90.4051 53.8421 89.9214 53.5607C89.699 53.465 89.4995 53.3231 89.3359 53.1444C89.2611 53.2517 89.2115 53.3746 89.191 53.5039C89.1705 53.6331 89.1796 53.7654 89.2175 53.8906C89.3585 54.1888 89.6115 54.4191 89.9214 54.5312C90.4051 54.8125 90.964 54.9367 91.5212 54.8867C92.3946 54.7458 93.0441 53.8874 93.9304 53.8234C94.6502 53.7721 95.3381 54.2718 96.0548 54.1789C96.1749 54.1747 96.2891 54.1256 96.3748 54.0412C96.4291 53.9698 96.4654 53.8863 96.4803 53.7977C97.0179 51.6625 97.4871 49.5017 97.8881 47.3152C97.9698 46.7074 98.1312 46.113 98.368 45.5473C98.4872 45.2648 98.662 45.0093 98.8818 44.7958C99.1017 44.5823 99.3622 44.4153 99.6478 44.3046C100.502 44.026 101.462 44.4968 102.009 45.211C102.556 45.9252 102.764 46.838 102.911 47.7252C103.058 48.6124 103.151 49.5252 103.513 50.3483C103.623 50.6536 103.827 50.916 104.095 51.0978C104.575 51.3764 105.221 51.1554 105.589 50.7391C105.926 50.2932 106.146 49.7703 106.229 49.2177C106.313 48.6662 106.496 48.1345 106.77 47.6483C107.275 46.8925 108.2 46.553 109.083 46.3352C109.966 46.1174 110.897 45.9733 111.643 45.4448C112.229 44.9715 112.707 44.3772 113.044 43.7025C113.518 42.8793 113.959 41.9826 113.921 41.0313C113.914 40.909 113.902 40.7871 113.882 40.6662C113.728 41.3993 113.444 42.0988 113.044 42.732Z" fill="black"/>
</g>
<path opacity="0.1" d="M113.934 42.8281C114.754 44.2884 115.24 45.9129 115.357 47.5843C112.507 45.9829 109.825 44.2245 108.472 43.6128C106.114 42.5462 97.2962 42.7064 93.9816 42.8057C94.3283 42.1856 94.7333 41.6001 95.191 41.0569C95.9484 40.1564 96.8385 39.3766 97.8305 38.7445C99.1444 37.9098 100.614 37.3521 102.151 37.1055C103.687 36.8588 105.258 36.9284 106.767 37.31C108.275 37.6917 109.69 38.3772 110.925 39.3249C112.16 40.2726 113.189 41.4624 113.95 42.8217L113.934 42.8281Z" fill="black"/>
<path opacity="0.1" d="M124.108 50.4604C122.569 50.9344 120.057 50.0184 117.453 48.7052C117.092 48.2461 116.764 47.7624 116.471 47.2576L125.256 48.9166C125.839 49.3138 125.986 49.8807 124.108 50.4604Z" fill="black"/>
<path d="M104.633 31.7239C104.633 31.7239 96.234 31.2435 93.8728 35.8075L93.4921 39.8526L92.8522 39.7822L92.7242 42.5334C92.7242 42.5334 105.56 41.9729 108.482 43.2924C111.403 44.612 120.48 51.2611 124.117 50.1401C127.755 49.0191 123.797 47.9782 123.797 47.9782C123.797 47.9782 118.79 45.8547 118.79 44.1892C118.79 42.5238 117.549 33.7256 104.633 31.7239Z" fill="#444053"/>
<path opacity="0.1" d="M88.4337 181.68C88.4337 181.68 93.7928 186.884 96.1124 186.484C96.1124 186.484 89.5535 185.923 88.4337 181.68Z" fill="black"/>
<path opacity="0.1" d="M87.3138 184.091C87.3138 184.091 87.7938 186.769 89.0736 186.506C90.3534 186.244 87.3138 184.091 87.3138 184.091Z" fill="black"/>
<path opacity="0.1" d="M95.7125 228.841C95.7125 228.841 88.1041 234.766 89.3871 234.927C90.6701 235.087 95.7125 228.841 95.7125 228.841Z" fill="black"/>
<path d="M105.89 111.243L130.526 107.23V130.579L107.119 129.352L105.89 111.243Z" fill="#6C63FF"/>
<path opacity="0.05" d="M105.89 111.243L130.526 107.23V130.579L107.119 129.352L105.89 111.243Z" fill="black"/>
<path d="M130.526 107.23L160.07 109.443L158.435 129.762L130.526 130.579V107.23Z" fill="#6C63FF"/>
<path opacity="0.1" d="M130.526 107.23L160.07 109.443L158.435 129.762L130.526 130.579V107.23Z" fill="black"/>
<path d="M135.927 113.293V145.216L124.386 144.031L119.366 143.518L117.837 143.358L112.82 142.842L105.89 142.131V111.243L130.523 112.922L135.927 113.293Z" fill="#6C63FF"/>
<path d="M160.07 109.443V140.575L150.82 142.352L146.322 143.217L135.927 145.216V113.293L160.07 109.443Z" fill="#6C63FF"/>
<path opacity="0.05" d="M160.07 109.443V140.575L150.82 142.352L146.322 143.217L135.927 145.216V113.293L160.07 109.443Z" fill="black"/>
<path opacity="0.1" d="M132.906 137.295C129.467 141.699 118.109 138.656 118.109 138.656L109.669 129.842L108.523 128.647L110.763 124.484C110.763 124.484 111.403 124.695 112.471 125.067C118.128 127.046 135.802 133.589 132.906 137.295Z" fill="black"/>
<path d="M132.586 136.655C129.147 141.058 117.789 138.016 117.789 138.016L109.349 129.202L108.203 128.007L110.443 123.843C110.443 123.843 111.083 124.055 112.151 124.426C117.808 126.406 135.482 132.949 132.586 136.655Z" fill="#EFB7B9"/>
<path opacity="0.1" d="M112.139 124.426C111.671 125.771 110.484 127.764 109.336 129.202L108.19 128.007L110.43 123.843C110.43 123.843 111.073 124.055 112.139 124.426Z" fill="black"/>
<path d="M84.1944 74.616C84.1944 74.616 75.7958 77.8189 75.7158 86.7867C75.6967 92.5657 76.0172 98.3407 76.6756 104.082C76.6756 104.082 74.276 117.454 81.0749 121.297C87.8738 125.14 94.1928 128.343 94.1928 128.343C94.1928 128.343 105.055 130.105 106.389 130.665C107.723 131.226 112.359 124.019 111.639 122.818C110.92 121.617 101.03 118.655 99.8558 116.653C98.6816 114.651 95.7893 113.303 95.7893 113.303C95.7893 113.303 92.8394 111.288 92.721 109.607C92.6026 107.925 93.4729 106.724 93.7192 106.004C93.9656 105.283 94.8582 98.2368 94.8582 98.2368C94.8582 98.2368 99.6319 73.2388 84.1944 74.616Z" fill="#CB6BE6"/>
<path opacity="0.1" d="M88.0337 104.306C88.0337 104.306 76.6756 105.587 77.5554 109.591C77.5554 109.591 81.8715 105.552 88.0337 104.306Z" fill="black"/>
<path opacity="0.1" d="M88.0337 105.907C88.0337 105.907 81.5868 110.632 82.7706 110.952C83.9544 111.272 88.0337 105.907 88.0337 105.907Z" fill="black"/>
<path opacity="0.1" d="M90.9132 107.829C90.9132 107.829 89.0736 111.141 90.1134 110.968C91.1532 110.795 90.9132 107.829 90.9132 107.829Z" fill="black"/>
<path opacity="0.1" d="M223.634 230.875C228.393 230.875 232.25 230.223 232.25 229.418C232.25 228.613 228.393 227.96 223.634 227.96C218.875 227.96 215.018 228.613 215.018 229.418C215.018 230.223 218.875 230.875 223.634 230.875Z" fill="#6C63FF"/>
<path opacity="0.1" d="M192.225 253C196.983 253 200.841 252.348 200.841 251.543C200.841 250.738 196.983 250.085 192.225 250.085C187.466 250.085 183.609 250.738 183.609 251.543C183.609 252.348 187.466 253 192.225 253Z" fill="#6C63FF"/>
<path opacity="0.1" d="M29.8001 241.665C34.5587 241.665 38.4163 241.013 38.4163 240.208C38.4163 239.403 34.5587 238.751 29.8001 238.751C25.0415 238.751 21.1839 239.403 21.1839 240.208C21.1839 241.013 25.0415 241.665 29.8001 241.665Z" fill="#6C63FF"/>
<path opacity="0.1" d="M257.577 251.543C262.336 251.543 266.193 250.89 266.193 250.085C266.193 249.281 262.336 248.628 257.577 248.628C252.819 248.628 248.961 249.281 248.961 250.085C248.961 250.89 252.819 251.543 257.577 251.543Z" fill="#6C63FF"/>
<path d="M209 134.349L197.355 136.913C196.454 137.111 195.507 136.968 194.716 136.514C193.924 136.059 193.35 135.329 193.116 134.479C192.98 133.986 192.964 133.47 193.067 132.97C193.171 132.47 193.393 131.999 193.715 131.592C194.038 131.185 194.454 130.853 194.931 130.62C195.408 130.387 195.934 130.26 196.47 130.249L207.719 130L209 134.349Z" fill="#FFB9B9"/>
<path d="M207.694 136L205 127.973L221.151 122.493L216.864 85C224.582 86.3937 228.255 92.4215 227.911 100.205L230 125.79L207.694 136Z" fill="#3F3D56"/>
<path d="M218 77H244V64.1365C244.009 60.6624 242.641 57.3249 240.192 54.8482C238.996 53.628 237.566 52.6588 235.987 51.9978C234.408 51.3369 232.712 50.9976 230.999 51C227.578 51.0063 224.297 52.3519 221.865 54.7458C219.433 57.1397 218.046 60.3897 218.004 63.7929C218.002 63.9107 218 64.0226 218 64.1365L218 77Z" fill="#2F2E41"/>
<path d="M255.728 229L247.433 228.049L237.507 161.099L216.975 228.321L208 228.593L218.198 145.889L216.703 127.012L242.13 119C260.14 131.556 259.767 175.905 255.728 229Z" fill="#2F2E41"/>
<path d="M229.5 75C234.747 75 239 70.5228 239 65C239 59.4772 234.747 55 229.5 55C224.253 55 220 59.4772 220 65C220 70.5228 224.253 75 229.5 75Z" fill="#FFB9B9"/>
<path d="M239 82.6129L223 87C225.696 81.5807 226.558 76.5217 225.098 71.9194L236.377 70C235.652 74.4008 236.593 78.9239 239 82.6129Z" fill="#FFB9B9"/>
<path d="M244.251 122.944C235.044 129.015 224.318 135.989 216.398 129.222L212.63 110.249C209.636 107.484 210.963 98.9512 215.012 86.7885C215.269 86.0164 215.692 85.3152 216.249 84.738C216.807 84.1608 217.483 83.7227 218.228 83.4569L224.471 81.2321C227.238 83.6443 231.773 82.2056 237.119 79L243.309 80.6741L246 101.6C242.115 107.634 242.794 115.669 244.251 122.944Z" fill="#3F3D56"/>
<path d="M236 130.349L225.083 132.913C224.238 133.111 223.35 132.968 222.608 132.514C221.866 132.059 221.328 131.329 221.109 130.479C220.981 129.986 220.966 129.47 221.063 128.97C221.16 128.47 221.368 127.999 221.671 127.592C221.973 127.185 222.363 126.853 222.81 126.62C223.257 126.387 223.751 126.26 224.253 126.249L234.799 126L236 130.349Z" fill="#FFB9B9"/>
<path d="M253.481 242.611C252.16 243.192 251.054 239.587 249.941 240.644C246.825 243.599 239.352 242.937 239.352 242.937C239.101 242.859 238.869 242.732 238.67 242.566C238.471 242.399 238.309 242.194 238.194 241.965C238.08 241.736 238.014 241.487 238.002 241.233C237.99 240.979 238.032 240.725 238.124 240.487C238.235 240.202 238.416 239.947 238.651 239.744C238.886 239.542 239.169 239.397 239.475 239.323L242.788 238.524L247.991 229.693L253.66 229L253.803 229.226C254.899 230.931 255.606 232.842 255.876 234.832C256.146 236.822 255.974 238.844 255.37 240.764C254.898 242.222 254.257 242.269 253.481 242.611Z" fill="#2F2E41"/>
<path d="M214.201 242.611C212.734 243.192 211.505 239.587 210.267 240.644C206.806 243.599 198.502 242.937 198.502 242.937C198.223 242.859 197.965 242.732 197.744 242.566C197.523 242.399 197.344 242.194 197.216 241.965C197.088 241.736 197.016 241.487 197.002 241.233C196.989 240.979 197.035 240.725 197.138 240.487C197.261 240.202 197.462 239.947 197.723 239.744C197.985 239.542 198.299 239.397 198.639 239.323L202.32 238.524L208.101 229.693L214.4 229L214.559 229.226C215.777 230.931 216.562 232.842 216.862 234.832C217.163 236.822 216.971 238.844 216.3 240.764C215.776 242.222 215.063 242.269 214.201 242.611Z" fill="#2F2E41"/>
<path d="M241 56.6843L238.408 65L216 64.5984C216.077 61.6889 217.053 58.8762 218.791 56.5532C220.53 54.2302 222.945 52.5129 225.699 51.6412C228.452 50.7695 231.407 50.787 234.15 51.6911C236.894 52.5952 239.288 54.3409 241 56.6843H241Z" fill="#2F2E41"/>
<path d="M235.586 133L233 124.944L248.505 119.445L242.64 81C246.222 81.6764 249.448 83.6775 251.719 86.6329C253.991 89.5883 255.154 93.298 254.994 97.0755L257 122.753L235.586 133Z" fill="#3F3D56"/>
</g>
<defs>
<clipPath id="clip0">
<rect width="323" height="253" fill="white" transform="translate(0.00012207)"/>
</clipPath>
</defs>
</svg>
