<svg width="199" height="60" viewBox="0 0 199 60" fill="none" xmlns="http://www.w3.org/2000/svg">
<rect x="1" y="1" width="198" height="58" rx="10" fill="white"/>
<path d="M179.085 43.5916H79.9988C78.8043 43.5916 77.6587 43.117 76.814 42.2724C75.9694 41.4277 75.4949 40.2821 75.4949 39.0875C75.4949 37.893 75.9694 36.7474 76.814 35.9027C77.6587 35.058 78.8043 34.5835 79.9988 34.5835H179.085C180.279 34.5835 181.425 35.058 182.269 35.9027C183.114 36.7474 183.589 37.893 183.589 39.0875C183.589 40.2821 183.114 41.4277 182.269 42.2724C181.425 43.117 180.279 43.5916 179.085 43.5916Z" fill="#CCCCCC"/>
<path d="M114.341 24.4495H79.9988C78.8043 24.4495 77.6587 23.9749 76.814 23.1303C75.9694 22.2856 75.4949 21.14 75.4949 19.9454C75.4949 18.7509 75.9694 17.6053 76.814 16.7606C77.6587 15.9159 78.8043 15.4414 79.9988 15.4414H114.341C115.536 15.4414 116.681 15.9159 117.526 16.7606C118.37 17.6053 118.845 18.7509 118.845 19.9454C118.845 21.14 118.37 22.2856 117.526 23.1303C116.681 23.9749 115.536 24.4495 114.341 24.4495Z" fill="#CCCCCC"/>
<path d="M35.1193 49.0796C45.691 49.0796 54.261 40.5094 54.261 29.9375C54.261 19.3656 45.691 10.7954 35.1193 10.7954C24.5477 10.7954 15.9777 19.3656 15.9777 29.9375C15.9777 40.5094 24.5477 49.0796 35.1193 49.0796Z" fill="#CB6BE6"/>
<path d="M189.017 0.661621H10.5496C8.01233 0.665212 5.58003 1.67473 3.78594 3.46887C1.99184 5.26301 0.982351 7.69538 0.97876 10.2327V49.6429C0.982349 52.1802 1.99184 54.6125 3.78594 56.4067C5.58003 58.2008 8.01233 59.2104 10.5496 59.214H189.017C191.554 59.2104 193.986 58.2008 195.78 56.4067C197.575 54.6125 198.584 52.1802 198.588 49.6429V10.2327C198.584 7.69538 197.575 5.26301 195.78 3.46887C193.986 1.67473 191.554 0.665212 189.017 0.661621V0.661621ZM197.462 49.6429C197.459 51.8818 196.568 54.0283 194.985 55.6114C193.402 57.1946 191.256 58.0852 189.017 58.088H10.5496C8.31069 58.0852 6.1643 57.1946 4.58118 55.6114C2.99805 54.0283 2.10746 51.8818 2.10474 49.6429V10.2327C2.10746 7.99375 2.99805 5.84728 4.58118 4.26412C6.1643 2.68095 8.31069 1.79035 10.5496 1.78763H189.017C191.256 1.79035 193.402 2.68095 194.985 4.26412C196.568 5.84728 197.459 7.99375 197.462 10.2327V49.6429Z" fill="#3F3D56"/>
</svg>
