<svg width="556" height="402" viewBox="0 0 556 402" fill="none" xmlns="http://www.w3.org/2000/svg">
<g clip-path="url(#clip0)">
<path d="M82.4264 284.966C81.9702 284.275 81.3682 283.693 80.6627 283.26C79.9572 282.828 79.1653 282.555 78.343 282.461C77.5207 282.368 76.6878 282.456 75.9031 282.719C75.1184 282.982 74.4009 283.414 73.8012 283.984L55.9238 274.756L57.0352 285.152L73.8414 292.321C74.8664 293.265 76.202 293.8 77.5952 293.825C78.9885 293.85 80.3425 293.363 81.4007 292.457C82.4589 291.55 83.1478 290.287 83.3368 288.906C83.5259 287.526 83.2019 286.124 82.4264 284.966H82.4264Z" fill="#A0616A"/>
<path opacity="0.1" d="M298.354 126.238C264.441 125.147 232.141 114.971 201.299 103.841C170.456 92.7106 139.907 80.3826 106.806 74.4864C85.5159 70.6935 61.1656 70.1531 44.0151 80.7477C27.5039 90.9724 22.1696 108.573 19.3033 124.918C17.1445 137.217 15.8764 150.163 21.7871 161.678C25.8953 169.673 33.1788 176.392 38.2197 184.051C55.758 210.693 43.3601 243.549 24.3599 269.563C15.452 281.765 5.10297 293.421 -1.77714 306.396C-8.65725 319.372 -11.8379 334.29 -5.81717 347.563C0.145938 360.709 14.362 370.563 29.7624 377.501C61.0399 391.597 97.8822 395.628 133.834 397.917C213.393 402.971 293.371 400.784 373.139 398.589C402.661 397.78 432.309 396.958 461.349 392.717C477.478 390.36 494.125 386.621 505.836 377.594C520.697 366.137 524.381 346.74 514.42 332.377C497.715 308.276 451.54 302.292 439.849 276.433C433.425 262.197 440.022 246.343 449.365 233.144C469.403 204.822 502.986 179.976 504.752 147.607C505.968 125.376 489.823 103.111 464.86 92.5889C438.697 81.5609 402.41 82.9485 383.116 101.202C363.23 119.976 328.3 127.207 298.354 126.238Z" fill="#6C63FF"/>
<path d="M66.5387 289.151C66.2152 289.299 65.8641 289.378 65.5082 289.381C65.1524 289.385 64.7997 289.314 64.4731 289.173L47.4922 281.806C41.686 279.288 36.992 274.747 34.2833 269.027L25.356 250.183C24.6972 249.337 24.2116 248.369 23.9272 247.334C23.6427 246.3 23.5649 245.22 23.6982 244.156C23.8315 243.091 24.1733 242.064 24.704 241.132C25.2347 240.199 25.944 239.381 26.7912 238.723C27.6384 238.065 28.607 237.581 29.6415 237.298C30.6761 237.015 31.7563 236.938 32.8204 237.073C33.8846 237.207 34.9117 237.55 35.8432 238.082C36.7746 238.614 37.5921 239.324 38.2489 240.173L53.9409 269.287L68.4304 280.233C68.8451 280.548 69.1532 280.982 69.313 281.478C69.4727 281.973 69.4765 282.506 69.3237 283.004L67.9015 287.597C67.7488 288.09 67.4495 288.524 67.0436 288.843C66.8881 288.965 66.7186 289.068 66.5387 289.151Z" fill="#CCCCCC"/>
<path d="M24.9631 228.021C32.5999 228.021 38.7907 221.83 38.7907 214.193C38.7907 206.556 32.5999 200.365 24.9631 200.365C17.3264 200.365 11.1356 206.556 11.1356 214.193C11.1356 221.83 17.3264 228.021 24.9631 228.021Z" fill="#A0616A"/>
<path d="M30.5641 395.591L37.4657 395.59L40.7497 368.967L30.5624 368.967L30.5641 395.591Z" fill="#A0616A"/>
<path d="M50.7774 401.999L29.0851 402L29.0847 393.619L42.3959 393.618C44.6187 393.618 46.7505 394.501 48.3224 396.073C49.8942 397.644 50.7773 399.776 50.7774 401.999L50.7774 401.999Z" fill="black"/>
<path d="M8.04454 395.591L14.9462 395.59L18.2301 368.967L8.04285 368.967L8.04454 395.591Z" fill="#A0616A"/>
<path d="M28.2579 401.999L6.56553 402L6.56515 393.619L19.8764 393.618C22.0992 393.618 24.231 394.501 25.8028 396.073C27.3747 397.644 28.2578 399.776 28.2579 401.999L28.2579 401.999Z" fill="black"/>
<path d="M5.63427 387.97C5.39645 387.699 5.21942 387.38 5.11504 387.034C5.01066 386.688 4.98134 386.325 5.02905 385.967L17.1134 295.332L47.1368 300.43L50.341 298.508L42.0552 384.503C41.9863 385.084 41.7192 385.623 41.2991 386.029C40.879 386.436 40.3315 386.685 39.7491 386.735L30.6581 387.493C30.2967 387.523 29.933 387.475 29.5916 387.352C29.2502 387.23 28.9391 387.036 28.6794 386.782C28.4196 386.529 28.2172 386.223 28.0859 385.885C27.9547 385.547 27.8975 385.185 27.9183 384.823L30.272 343.869C30.2762 343.799 30.2544 343.73 30.2108 343.676C30.1673 343.622 30.1051 343.585 30.0363 343.574C29.9675 343.563 29.897 343.577 29.8384 343.615C29.7799 343.653 29.7374 343.711 29.7192 343.778L18.0748 386.961C17.9292 387.498 17.6109 387.973 17.1689 388.312C16.7268 388.651 16.1857 388.834 15.6288 388.835H7.54041C7.1794 388.835 6.82256 388.758 6.49381 388.609C6.16506 388.46 5.872 388.242 5.63427 387.97Z" fill="black"/>
<path d="M26.4268 301.675C26.0822 301.363 25.6392 301.182 25.1747 301.163C24.7102 301.143 24.2536 301.287 23.8842 301.569L17.8817 306.238C17.5551 306.493 17.1709 306.664 16.7629 306.736C16.3549 306.807 15.9355 306.778 15.5416 306.649C15.1476 306.521 14.7912 306.298 14.5035 306C14.2158 305.702 14.0057 305.338 13.8916 304.94C10.9473 294.628 4.27668 268.672 5.92001 250.404C6.85151 240.049 15.7932 232.179 25.8526 232.839C32.7298 233.298 37.2543 237.265 39.3002 244.631C44.3235 262.716 49.844 295.889 50.8996 302.356C50.9829 302.857 50.9126 303.372 50.698 303.834C50.4833 304.295 50.1343 304.68 49.6967 304.939C46.8567 306.644 43.6118 307.557 40.2994 307.584C36.2914 307.584 31.4857 306.188 26.4268 301.675Z" fill="#CCCCCC"/>
<path d="M28.6916 308.109C28.7588 307.284 28.6444 306.454 28.3563 305.678C28.0682 304.902 27.6135 304.199 27.0242 303.618C26.4349 303.037 25.7253 302.592 24.9455 302.314C24.1657 302.037 23.3346 301.934 22.5107 302.013L14.138 283.719L8.59733 292.585L17.3976 308.598C17.6216 309.973 18.3422 311.219 19.4231 312.098C20.5039 312.978 21.8698 313.43 23.2619 313.37C24.6541 313.309 25.9757 312.741 26.9764 311.771C27.9772 310.801 28.5874 309.498 28.6916 308.109Z" fill="#A0616A"/>
<path d="M13.6079 301.596C13.2618 301.513 12.937 301.359 12.6546 301.142C12.3723 300.925 12.1386 300.652 11.969 300.339L3.15304 284.063C0.138111 278.498 -0.753059 272.028 0.64529 265.856L5.24967 245.519C5.25385 244.446 5.46935 243.385 5.88385 242.396C6.29836 241.407 6.90375 240.509 7.6654 239.754C8.42706 238.999 9.33005 238.401 10.3228 237.996C11.3155 237.59 12.3784 237.384 13.4508 237.389C14.5233 237.394 15.5842 237.611 16.5729 238.026C17.5616 238.442 18.4587 239.048 19.2129 239.81C19.9671 240.573 20.5637 241.476 20.9686 242.469C21.3734 243.463 21.5785 244.526 21.5722 245.598L15.9528 278.192L20.5995 295.747C20.7316 296.25 20.7059 296.782 20.5258 297.271C20.3457 297.759 20.0199 298.181 19.5925 298.478L15.6387 301.215C15.2145 301.508 14.711 301.666 14.1953 301.665C13.9975 301.666 13.8003 301.642 13.6079 301.596Z" fill="#CCCCCC"/>
<path opacity="0.2" d="M20.4506 259.344L15.3837 280.738L22.7025 298.754L17.6356 281.301L20.4506 259.344Z" fill="black"/>
<path d="M17.0724 225.564C15.8424 225.587 14.6201 225.365 13.4761 224.913C12.9727 224.719 12.4502 224.56 11.9477 224.366C7.51042 222.651 4.5874 217.925 4.48271 213.169C4.37802 208.413 6.84088 203.797 10.498 200.755C14.1552 197.713 18.8921 196.151 23.6354 195.79C28.7446 195.401 34.4978 196.697 37.3528 200.952C38.1127 202.085 38.6442 203.459 38.1939 204.826C38.059 205.239 37.8181 205.609 37.4953 205.899C36.2203 207.034 34.9492 206.181 33.6495 206.105C31.863 206.002 30.2584 207.448 29.6817 209.142C29.1049 210.836 29.3588 212.701 29.8245 214.429C30.1792 215.469 30.4028 216.549 30.4902 217.644C30.5278 218.193 30.4245 218.742 30.1902 219.241C29.9558 219.739 29.5982 220.168 29.1511 220.49C28.0348 221.164 26.5687 220.774 25.4517 220.1C24.3347 219.426 23.3695 218.49 22.163 217.994C20.9564 217.498 19.3354 217.608 18.6331 218.707C18.41 219.107 18.2589 219.543 18.1869 219.996C17.5573 222.864 17.702 222.695 17.0724 225.564L17.0724 225.564Z" fill="black"/>
<path d="M426.37 129.761H84.6363C83.3346 129.762 82.0866 130.28 81.1661 131.2C80.2457 132.121 79.7281 133.369 79.7269 134.671V366.245C79.7281 367.547 80.2457 368.795 81.1661 369.715C82.0866 370.636 83.3346 371.153 84.6363 371.155H426.37C427.08 371.155 427.781 371 428.426 370.703C429.07 370.406 429.642 369.972 430.103 369.432C430.142 369.389 430.177 369.344 430.21 369.297C430.503 368.938 430.74 368.538 430.913 368.109C431.161 367.519 431.287 366.885 431.285 366.245V222.088H429.883V366.245C429.884 366.93 429.682 367.6 429.303 368.171C428.967 368.673 428.51 369.083 427.974 369.364C427.479 369.62 426.928 369.754 426.37 369.753H84.6363C83.7064 369.752 82.8148 369.382 82.1573 368.724C81.4997 368.067 81.1297 367.175 81.1286 366.245V134.671C81.1297 133.741 81.4997 132.849 82.1572 132.192C82.8148 131.534 83.7064 131.164 84.6363 131.163H426.37C427.301 131.163 428.194 131.532 428.852 132.19C429.511 132.848 429.882 133.74 429.883 134.671V165.788H431.285V134.671C431.283 133.368 430.765 132.119 429.843 131.199C428.922 130.278 427.673 129.761 426.37 129.761Z" fill="#3F3D56"/>
<path d="M430.58 149.439H80.4257V150.843H430.58V149.439Z" fill="#3F3D56"/>
<path d="M92.3548 144.499C94.6801 144.499 96.5651 142.614 96.5651 140.289C96.5651 137.964 94.6801 136.079 92.3548 136.079C90.0295 136.079 88.1445 137.964 88.1445 140.289C88.1445 142.614 90.0295 144.499 92.3548 144.499Z" fill="#CCCCCC"/>
<path d="M104.459 144.499C106.785 144.499 108.67 142.614 108.67 140.289C108.67 137.964 106.785 136.079 104.459 136.079C102.134 136.079 100.249 137.964 100.249 140.289C100.249 142.614 102.134 144.499 104.459 144.499Z" fill="#CCCCCC"/>
<path d="M116.564 144.499C118.889 144.499 120.774 142.614 120.774 140.289C120.774 137.964 118.889 136.079 116.564 136.079C114.239 136.079 112.354 137.964 112.354 140.289C112.354 142.614 114.239 144.499 116.564 144.499Z" fill="#CCCCCC"/>
<path d="M201.131 342.77C199.682 342.763 198.257 342.395 196.986 341.699C195.714 341.003 194.637 340 193.851 338.783C193.064 337.565 192.594 336.171 192.483 334.726C192.371 333.281 192.622 331.831 193.212 330.507L203.242 308.127C195.343 301.14 189.021 292.551 184.697 282.932C180.374 273.312 178.147 262.882 178.166 252.336C178.166 211.133 211.687 177.61 252.89 177.61C294.093 177.61 327.613 211.133 327.613 252.336C327.613 293.539 294.093 327.062 252.89 327.062C245.682 327.054 238.513 325.999 231.61 323.927L206.011 341.258C204.572 342.239 202.872 342.766 201.131 342.77ZM252.89 188.037C239.555 188.029 226.548 192.171 215.671 199.886C204.795 207.602 196.589 218.511 192.19 231.099C187.791 243.688 187.417 257.334 191.12 270.145C194.823 282.955 202.42 294.297 212.857 302.597L216.017 305.117L205.225 329.198L229.992 312.431L232.437 313.253C241.271 316.22 250.645 317.232 259.909 316.217C269.173 315.202 278.105 312.184 286.087 307.374C294.069 302.563 300.91 296.074 306.134 288.357C311.359 280.64 314.844 271.879 316.346 262.681C317.848 253.483 317.333 244.069 314.835 235.09C312.337 226.111 307.917 217.783 301.881 210.683C295.844 203.582 288.336 197.879 279.877 193.969C271.418 190.059 262.209 188.035 252.89 188.037Z" fill="#00BB2D"/>
<path d="M252.89 259.288C258.648 259.288 263.316 254.62 263.316 248.861C263.316 243.102 258.648 238.434 252.89 238.434C247.131 238.434 242.463 243.102 242.463 248.861C242.463 254.62 247.131 259.288 252.89 259.288Z" fill="#00BB2D"/>
<path d="M223.348 259.288C229.106 259.288 233.774 254.62 233.774 248.861C233.774 243.102 229.106 238.434 223.348 238.434C217.589 238.434 212.921 243.102 212.921 248.861C212.921 254.62 217.589 259.288 223.348 259.288Z" fill="#00BB2D"/>
<path d="M282.431 259.288C288.19 259.288 292.858 254.62 292.858 248.861C292.858 243.102 288.19 238.434 282.431 238.434C276.673 238.434 272.005 243.102 272.005 248.861C272.005 254.62 276.673 259.288 282.431 259.288Z" fill="#00BB2D"/>
<path d="M525.898 167.593C525.819 167.515 525.766 167.414 525.744 167.305C525.722 167.196 525.733 167.083 525.776 166.98C525.819 166.877 525.891 166.789 525.983 166.727C526.076 166.665 526.185 166.632 526.296 166.632H540.627C540.777 166.632 540.92 166.692 541.025 166.797C541.131 166.903 541.19 167.046 541.19 167.195C541.19 167.345 541.131 167.488 541.025 167.593C540.92 167.699 540.777 167.758 540.627 167.758H526.296C526.222 167.758 526.149 167.744 526.081 167.716C526.012 167.687 525.95 167.646 525.898 167.593Z" fill="white"/>
<path d="M548.963 339.59H521.934C521.934 340.367 494.077 340.998 494.077 340.998C493.64 341.327 493.241 341.705 492.889 342.124C491.831 343.386 491.253 344.981 491.256 346.628V347.754C491.257 349.62 491.999 351.41 493.318 352.729C494.638 354.049 496.427 354.791 498.294 354.791H548.963C550.829 354.79 552.618 354.048 553.937 352.728C555.256 351.409 555.998 349.62 556 347.754V346.628C555.997 344.762 555.255 342.974 553.936 341.654C552.617 340.335 550.828 339.593 548.963 339.59Z" fill="#3F3D56"/>
<path d="M527.566 354.512H520.248V401.804H527.566V354.512Z" fill="#3F3D56"/>
<path d="M548.397 401.547C548.397 402.338 537.306 401.853 523.625 401.853C509.945 401.853 498.854 402.338 498.854 401.547C498.854 400.756 509.945 394.485 523.625 394.485C537.306 394.485 548.397 400.756 548.397 401.547Z" fill="#3F3D56"/>
<path d="M526.255 276.214C534.961 276.214 542.019 269.156 542.019 260.45C542.019 251.744 534.961 244.686 526.255 244.686C517.549 244.686 510.491 251.744 510.491 260.45C510.491 269.156 517.549 276.214 526.255 276.214Z" fill="black"/>
<path d="M487.026 395.327L480.124 395.326L476.84 368.703L487.027 368.704L487.026 395.327Z" fill="#FFB8B8"/>
<path d="M475.193 393.354H488.505V401.735H466.812C466.812 399.513 467.695 397.381 469.267 395.809C470.839 394.237 472.971 393.354 475.193 393.354Z" fill="black"/>
<path d="M476.252 391.474L469.666 389.408L474.503 363.022L484.223 366.073L476.252 391.474Z" fill="#FFB8B8"/>
<path d="M465.553 386.05L478.253 390.035L475.744 398.032L455.047 391.537C455.712 389.416 457.193 387.646 459.163 386.617C461.133 385.588 463.432 385.384 465.553 386.05Z" fill="black"/>
<path d="M530.478 334.975C530.318 333.634 530.032 332.31 529.622 331.023L528.333 329.402L524.977 325.19L524.831 325.196C524.583 325.207 523.553 325.264 521.96 325.387H521.943C520.958 325.466 519.753 325.568 518.385 325.697C518.024 325.737 517.647 325.77 517.259 325.81V331.687H524.296C524.638 331.688 524.968 331.813 525.225 332.038C525.482 332.264 525.648 332.576 525.692 332.915C525.698 332.977 525.704 333.033 525.704 333.095C525.703 333.468 525.555 333.826 525.291 334.09C525.027 334.354 524.669 334.502 524.296 334.502H483.423C482.902 334.848 482.402 335.224 481.925 335.628C480.485 336.743 479.448 338.297 478.97 340.054C476.583 350.548 472.231 370.118 470.947 375.866C470.854 376.299 470.875 376.749 471.008 377.172C471.142 377.594 471.383 377.975 471.707 378.276C471.947 378.499 472.228 378.674 472.535 378.788L477.613 380.691C477.822 380.768 478.039 380.82 478.261 380.843C478.289 380.843 478.311 380.849 478.339 380.849C478.392 380.854 478.444 380.856 478.497 380.855C479.01 380.853 479.511 380.696 479.934 380.404C480.357 380.113 480.682 379.701 480.867 379.222L484.876 368.705L491.052 352.49L493.495 346.078C496.327 346.742 520.085 352.001 528.04 343.527C528.825 342.693 529.444 341.716 529.864 340.65C530.534 338.838 530.744 336.889 530.478 334.975Z" fill="black"/>
<path d="M537.368 336.507C537.245 336.006 537.104 335.488 536.941 334.964L532.296 329.131L532.15 329.137C531.857 329.154 530.466 329.227 528.333 329.402C525.912 329.604 522.528 329.931 518.728 330.443C518.616 330.454 518.497 330.471 518.385 330.488C518.013 330.539 517.636 330.59 517.259 330.646V331.687H524.296C524.638 331.688 524.968 331.813 525.225 332.038C525.482 332.264 525.648 332.576 525.692 332.915C525.698 332.977 525.704 333.033 525.704 333.095C525.703 333.468 525.555 333.826 525.291 334.09C525.027 334.354 524.669 334.502 524.296 334.502H499.423C498.337 334.857 497.289 335.229 496.287 335.628C491.029 337.712 487.094 340.442 486.289 343.995C486.018 345.188 485.72 346.5 485.405 347.896C484.234 353.087 482.81 359.443 481.52 365.22V365.226C481.256 366.419 480.991 367.579 480.738 368.705C479.662 373.547 478.75 377.651 478.266 379.807C478.255 379.869 478.244 379.925 478.232 379.987V379.999C478.176 380.435 478.23 380.878 478.39 381.288L478.396 381.294V381.299C478.55 381.692 478.802 382.038 479.128 382.307C479.345 382.486 479.59 382.629 479.854 382.729L484.932 384.632C485.215 384.738 485.514 384.793 485.816 384.795C486.239 384.796 486.655 384.69 487.026 384.486C487.558 384.197 487.97 383.728 488.186 383.163L499.119 354.472L500.814 350.019C503.646 350.683 527.404 355.936 535.359 347.468C536.93 345.767 537.827 343.551 537.881 341.236C537.937 339.643 537.764 338.051 537.368 336.507Z" fill="black"/>
<path d="M536.744 286.838C536.654 286.731 536.558 286.624 536.457 286.523C534.957 284.947 533.106 283.748 531.053 283.024C529.001 282.301 526.807 282.074 524.651 282.362C522.769 282.61 520.906 282.976 519.071 283.46C516.702 284.07 514.533 285.286 512.777 286.99C511.41 288.316 510.333 289.911 509.615 291.675C508.897 293.439 508.553 295.333 508.605 297.237C508.628 298.008 508.634 298.796 508.623 299.596C508.623 299.968 508.617 300.345 508.611 300.722H514.162C514.403 300.721 514.643 300.75 514.877 300.806C515.555 300.968 516.158 301.353 516.59 301.9C517.022 302.446 517.257 303.122 517.259 303.818V330.009C517.636 330.116 518.013 330.223 518.385 330.336C518.503 330.375 518.616 330.409 518.728 330.443C518.858 330.482 518.987 330.522 519.111 330.561C520.254 330.916 521.37 331.291 522.461 331.687H524.296C524.638 331.688 524.968 331.812 525.225 332.038C525.482 332.264 525.648 332.575 525.692 332.914C526.075 333.066 526.447 333.218 526.813 333.37C528.113 333.911 529.346 334.451 530.478 334.975C532.003 335.673 533.36 336.338 534.498 336.917C534.855 337.1 535.25 337.196 535.652 337.199C536.179 337.197 536.691 337.028 537.115 336.715C537.203 336.65 537.288 336.58 537.369 336.506C537.67 336.224 537.898 335.872 538.032 335.482C538.166 335.091 538.204 334.674 538.14 334.266C537.559 329.843 537.389 325.376 537.633 320.922C537.791 317.178 538.129 313.339 538.568 309.629C538.804 307.619 539.069 305.648 539.345 303.751C539.61 301.938 539.891 300.198 540.167 298.554C540.529 296.47 540.408 294.33 539.815 292.299C539.222 290.268 538.171 288.4 536.744 286.838Z" fill="#CB6BE6"/>
<path d="M429.801 146.069V360.219H431.205V146.069H429.801Z" fill="#3F3D56"/>
<path d="M513.667 287.3C513.378 287.176 513.081 287.072 512.777 286.99C511.277 286.586 509.681 286.735 508.282 287.41C506.882 288.085 505.772 289.241 505.154 290.667L501.287 299.596L500.803 300.722H514.162C514.403 300.721 514.643 300.75 514.877 300.806L515.328 299.765L517.039 295.813C517.719 294.236 517.746 292.455 517.113 290.859C516.481 289.263 515.242 287.983 513.667 287.3Z" fill="#CB6BE6"/>
<path d="M525.679 277.966C533.315 277.966 539.506 271.775 539.506 264.138C539.506 256.502 533.315 250.311 525.679 250.311C518.042 250.311 511.851 256.502 511.851 264.138C511.851 271.775 518.042 277.966 525.679 277.966Z" fill="#FFB8B8"/>
<path d="M511.602 257.345C518.152 261.343 525.536 263.776 533.179 264.455L530.905 261.729C532.561 262.342 534.304 262.688 536.068 262.755C537.83 262.727 539.677 262.049 540.677 260.597C541.123 259.876 541.388 259.057 541.449 258.211C541.511 257.365 541.366 256.517 541.029 255.739C540.336 254.187 539.257 252.838 537.895 251.82C535.481 249.911 532.632 248.628 529.603 248.086C526.573 247.545 523.456 247.761 520.53 248.717C518.523 249.316 516.726 250.47 515.344 252.044C514.033 253.661 511.509 255.102 512.18 257.072L511.602 257.345Z" fill="black"/>
<path d="M528.004 246.185C523.643 241.763 518.365 238.35 512.542 236.187C508.805 234.802 504.737 233.947 500.829 234.733C496.922 235.519 493.227 238.223 492.137 242.057C491.245 245.192 492.166 248.567 493.549 251.518C494.932 254.469 496.779 257.206 497.898 260.267C499.039 263.391 499.383 266.75 498.896 270.04C498.41 273.33 497.11 276.446 495.115 279.106C493.119 281.766 490.49 283.885 487.467 285.272C484.445 286.658 481.123 287.268 477.805 287.045C481.645 287.56 485.183 289.364 488.936 290.324C492.689 291.285 497.118 291.219 499.907 288.531C502.857 285.686 502.916 281.061 502.774 276.965C502.562 270.877 502.349 264.788 502.137 258.699C502.029 255.594 501.937 252.389 503.057 249.491C504.177 246.592 506.838 244.054 509.945 244.081C512.299 244.101 514.384 245.527 516.272 246.934C518.16 248.341 520.159 249.842 522.505 250.051C524.85 250.26 527.528 248.525 527.353 246.176L528.004 246.185Z" fill="black"/>
<path d="M539.345 303.751L531.452 303.965L530.877 309.511L530.748 310.794L518.385 316.346L517.259 316.852V326.722L518.385 326.401L521.943 325.387H521.96L537.633 320.923L537.813 320.872C539.08 320.506 540.194 319.742 540.992 318.692C541.789 317.642 542.226 316.363 542.239 315.045L542.278 308.497L542.312 303.672L539.345 303.751Z" fill="#FFB8B8"/>
<path d="M541.912 292.784C541.807 291.069 541.025 289.467 539.738 288.33C538.452 287.192 536.766 286.612 535.052 286.717C533.338 286.823 531.736 287.604 530.598 288.891C529.461 290.178 528.881 291.863 528.986 293.577L529.847 307.63C529.87 308 529.975 308.36 530.153 308.685C530.331 309.01 530.578 309.292 530.877 309.51C531.353 309.865 531.94 310.039 532.532 310L538.568 309.629L540.398 309.516C540.731 309.5 541.057 309.416 541.357 309.27C541.657 309.124 541.925 308.918 542.143 308.666C542.191 308.612 542.236 308.556 542.278 308.497C542.636 308.018 542.811 307.427 542.773 306.831L541.912 292.784Z" fill="#CB6BE6"/>
<path d="M519.111 330.561H518.385V330.488C518.013 330.539 517.636 330.59 517.259 330.646V331.687H522.461C521.368 331.293 520.252 330.918 519.111 330.561ZM519.111 330.561H518.385V330.488C518.013 330.539 517.636 330.59 517.259 330.646V331.687H522.461C521.368 331.293 520.252 330.918 519.111 330.561ZM524.296 330.561H518.385V303.819C518.383 302.903 518.084 302.013 517.532 301.282C516.981 300.551 516.207 300.019 515.328 299.765C514.95 299.651 514.557 299.594 514.162 299.596H464.056C462.937 299.598 461.864 300.043 461.072 300.834C460.281 301.626 459.835 302.699 459.834 303.819V331.406C459.834 332.526 460.279 333.599 461.071 334.391C461.863 335.183 462.937 335.628 464.056 335.628H524.296C524.92 335.627 525.521 335.397 525.985 334.98C526.45 334.564 526.744 333.991 526.812 333.371C526.824 333.279 526.83 333.187 526.83 333.095C526.829 332.423 526.561 331.779 526.086 331.305C525.611 330.83 524.968 330.562 524.296 330.561ZM525.704 333.095C525.703 333.468 525.555 333.826 525.291 334.09C525.027 334.354 524.669 334.502 524.296 334.502H464.056C463.235 334.502 462.448 334.176 461.867 333.595C461.287 333.014 460.96 332.227 460.96 331.406V303.819C460.96 302.998 461.287 302.21 461.867 301.63C462.448 301.049 463.235 300.723 464.056 300.722H514.162C514.403 300.722 514.643 300.75 514.877 300.807C515.555 300.969 516.158 301.354 516.59 301.9C517.022 302.446 517.257 303.122 517.259 303.819V331.687H524.296C524.638 331.688 524.968 331.813 525.225 332.038C525.482 332.264 525.648 332.576 525.692 332.915C525.698 332.977 525.704 333.033 525.704 333.095ZM519.111 330.561H518.385V330.488C518.013 330.539 517.636 330.59 517.259 330.646V331.687H522.461C521.368 331.293 520.252 330.918 519.111 330.561Z" fill="#3F3D56"/>
<path d="M489.108 320.991C490.973 320.991 492.486 319.479 492.486 317.613C492.486 315.747 490.973 314.235 489.108 314.235C487.242 314.235 485.73 315.747 485.73 317.613C485.73 319.479 487.242 320.991 489.108 320.991Z" fill="#CB6BE6"/>
<path d="M187.393 40.1805C187.38 40.4377 187.388 40.6955 187.416 40.9515L169.737 55.7889L164.465 53.88L160.544 61.4601L172.071 66.9468L191.398 45.2579C192.374 45.4349 193.381 45.3106 194.284 44.9016C195.188 44.4925 195.945 43.8181 196.456 42.9679C196.967 42.1178 197.207 41.1322 197.145 40.1423C197.082 39.1524 196.719 38.2051 196.105 37.4263C195.49 36.6475 194.654 36.0743 193.706 35.7827C192.758 35.4911 191.743 35.4951 190.797 35.7941C189.852 36.0931 189.019 36.6729 188.411 37.4564C187.803 38.24 187.448 39.1901 187.393 40.1805L187.393 40.1805Z" fill="#FFB8B8"/>
<path d="M163.682 65.0959L146.61 58.9337C145.043 58.368 143.765 57.2028 143.056 55.6945C142.348 54.1862 142.268 52.4583 142.834 50.891C143.4 49.3236 144.565 48.0452 146.073 47.337C147.581 46.6287 149.309 46.5487 150.876 47.1144L167.948 53.2766C168.207 53.37 168.445 53.5134 168.648 53.6986C168.851 53.8838 169.016 54.1073 169.133 54.3562C169.25 54.6052 169.316 54.8747 169.329 55.1494C169.342 55.4241 169.3 55.6986 169.207 55.9573L166.363 63.8371C166.174 64.359 165.785 64.7847 165.283 65.0207C164.78 65.2566 164.205 65.2837 163.682 65.0959V65.0959Z" fill="#CCCCCC"/>
<path d="M151.179 125.128L156.885 125.128L159.599 103.12L151.178 103.121L151.179 125.128Z" fill="#FFB8B8"/>
<path d="M167.888 130.426L149.957 130.427L149.956 123.498L160.96 123.498C162.797 123.498 164.559 124.228 165.859 125.527C167.158 126.826 167.888 128.588 167.888 130.426L167.888 130.426Z" fill="black"/>
<path d="M137.079 117.757L141.746 121.039L156.624 104.598L149.736 99.7549L137.079 117.757Z" fill="#FFB8B8"/>
<path d="M147.137 130.577L132.468 120.263L136.453 114.595L145.454 120.924C146.957 121.981 147.979 123.592 148.295 125.402C148.61 127.212 148.194 129.074 147.137 130.577L147.137 130.577Z" fill="black"/>
<path d="M163.664 85.4842C163.664 85.4842 177.902 83.8043 175.346 93.044C172.791 102.284 144.314 110.263 144.314 110.263L163.664 85.4842Z" fill="#FFB8B8"/>
<path d="M153.864 38.3388C160.176 38.3388 165.294 33.2211 165.294 26.9082C165.294 20.5952 160.176 15.4775 153.864 15.4775C147.551 15.4775 142.433 20.5952 142.433 26.9082C142.433 33.2211 147.551 38.3388 153.864 38.3388Z" fill="#FFB8B8"/>
<path d="M117.411 108.371C110.907 100.798 108.631 89.1742 119.004 79.5067C121.565 77.1778 124.466 75.2516 127.606 73.7938L135.966 50.4149C136.834 47.9736 138.426 45.855 140.529 44.342C142.633 42.8289 145.148 41.9932 147.738 41.9464C150.254 41.8378 152.741 42.5107 154.859 43.8725C156.976 45.2344 158.62 47.2185 159.565 49.5523C160.586 51.9265 160.703 54.5923 159.893 57.0468C157.405 64.7966 154.137 72.2741 150.139 79.3645L150.572 82.8227L171.702 84.7006L171.504 85.021C171.402 85.1883 161.06 100.945 147.831 111.404C143.307 114.98 138.63 116.462 134.215 116.461C127.521 116.461 121.432 113.053 117.411 108.371Z" fill="#CCCCCC"/>
<path d="M115.417 30.4942C117.439 28.0844 118.307 24.9325 119.005 21.865C120.109 17.0114 120.963 11.9927 123.416 7.66147C125.868 3.33028 130.376 -0.258542 135.346 0.0146331C140.287 0.286248 144.282 4.262 146.403 8.78561C146.917 8.58617 147.466 8.49682 148.017 8.52335C148.567 8.54988 149.105 8.6917 149.597 8.93963C151.126 9.77662 151.697 12.1556 150.425 13.3466C151.763 12.7094 153.22 12.3611 154.702 12.3241C156.183 12.2872 157.656 12.5625 159.024 13.1322C160.783 13.8812 162.302 15.101 163.413 16.6573C164.524 18.2136 165.184 20.0462 165.32 21.9535C165.374 22.7276 165.267 23.5044 165.008 24.2357C164.749 24.9671 164.342 25.6375 163.814 26.2052C161.62 28.463 158.519 27.6842 155.761 27.109C153.156 26.5658 149.983 26.4192 148.515 28.9013C147.937 29.9355 147.775 31.1515 148.063 32.3011C148.625 34.7789 150.459 36.5048 152.239 38.1566L152.53 38.6974C146.246 39.9228 139.384 35.6312 137.736 29.4447C136.088 23.2582 139.904 16.1212 145.965 14.0574C145.561 14.07 145.162 13.9746 144.808 13.7812C144.454 13.5877 144.158 13.3032 143.95 12.9571C143.743 12.6109 143.631 12.2156 143.628 11.8121C143.624 11.4086 143.729 11.0114 143.93 10.6617C142.252 9.72185 140.354 9.24817 138.431 9.28978C135.301 9.49516 132.592 11.7236 130.963 14.4046C129.334 17.0857 128.596 20.1976 127.849 23.2446C127.101 26.2916 126.293 29.3968 124.551 32.006C123.344 33.8132 121.732 35.3134 119.843 36.3868C117.953 37.4602 115.839 38.0772 113.669 38.1885C111.499 38.2998 109.333 37.9024 107.344 37.0279C105.355 36.1534 103.598 34.8261 102.213 33.1519C104.402 34.2133 106.878 34.5281 109.263 34.0481C111.648 33.5681 113.809 32.3197 115.417 30.4942Z" fill="black"/>
<path d="M199.37 61.645C208.546 61.645 215.985 54.2061 215.985 45.0298C215.985 35.8534 208.546 28.4146 199.37 28.4146C190.194 28.4146 182.755 35.8534 182.755 45.0298C182.755 54.2061 190.194 61.645 199.37 61.645Z" fill="#CB6BE6"/>
<path d="M198.859 54.3745C198.792 54.3075 198.739 54.2278 198.703 54.1402C198.666 54.0525 198.648 53.9585 198.648 53.8637V35.4743C198.648 35.2827 198.724 35.099 198.859 34.9635C198.995 34.8281 199.179 34.752 199.37 34.752C199.562 34.752 199.746 34.8281 199.881 34.9635C200.016 35.099 200.093 35.2827 200.093 35.4743V53.8637C200.093 54.0065 200.05 54.1462 199.971 54.265C199.891 54.3837 199.779 54.4763 199.647 54.531C199.515 54.5857 199.369 54.6 199.229 54.5721C199.089 54.5443 198.96 54.4755 198.859 54.3745H198.859Z" fill="white"/>
<path d="M189.665 45.1799C189.564 45.0789 189.495 44.9502 189.467 44.8101C189.439 44.6699 189.454 44.5247 189.508 44.3927C189.563 44.2607 189.656 44.1479 189.775 44.0685C189.893 43.9892 190.033 43.9468 190.176 43.9468H208.565C208.756 43.9468 208.94 44.0229 209.075 44.1584C209.211 44.2938 209.287 44.4775 209.287 44.6691C209.287 44.8607 209.211 45.0444 209.075 45.1799C208.94 45.3153 208.756 45.3914 208.565 45.3914H190.176C190.081 45.3916 189.987 45.373 189.899 45.3367C189.812 45.3004 189.732 45.2471 189.665 45.1799Z" fill="white"/>
<path d="M187.965 56.1435C187.845 56.371 187.742 56.6077 187.659 56.8513L165.35 62.7673L161.389 58.7986L154.618 63.9934L162.72 73.8591L189.433 62.4418C190.241 63.0169 191.205 63.3323 192.197 63.3461C193.189 63.3599 194.161 63.0714 194.985 62.5191C195.809 61.9667 196.445 61.1766 196.809 60.2539C197.173 59.3312 197.247 58.3195 197.022 57.3535C196.797 56.3875 196.283 55.5128 195.549 54.846C194.815 54.1791 193.895 53.7515 192.912 53.6202C191.929 53.4888 190.929 53.6599 190.045 54.1106C189.162 54.5614 188.436 55.2704 187.965 56.1435L187.965 56.1435Z" fill="#FFB8B8"/>
<path d="M155.913 68.6181L143.08 55.7838C142.495 55.2007 142.03 54.508 141.713 53.7453C141.396 52.9827 141.233 52.1649 141.232 51.339C141.231 50.513 141.393 49.695 141.709 48.9317C142.025 48.1685 142.488 47.475 143.072 46.891C143.656 46.3069 144.349 45.8438 145.113 45.528C145.876 45.2122 146.694 45.0501 147.52 45.0508C148.346 45.0515 149.163 45.2151 149.926 45.5321C150.689 45.8492 151.382 46.3135 151.965 46.8986L164.799 59.7329C164.993 59.9273 165.147 60.1581 165.253 60.4122C165.358 60.6663 165.412 60.9386 165.412 61.2136C165.412 61.4886 165.358 61.7609 165.253 62.015C165.147 62.269 164.993 62.4999 164.799 62.6943L158.875 68.6181C158.482 69.0102 157.95 69.2303 157.394 69.2303C156.839 69.2303 156.307 69.0102 155.913 68.6181V68.6181Z" fill="#CCCCCC"/>
</g>
<defs>
<clipPath id="clip0">
<rect width="556" height="402" fill="white"/>
</clipPath>
</defs>
</svg>
