<svg width="261" height="202" viewBox="0 0 261 202" fill="none" xmlns="http://www.w3.org/2000/svg">
<g clip-path="url(#clip0)">
<g opacity="0.8">
<path opacity="0.8" d="M238.113 191.794H13.5038V46.5285C13.5038 45.3135 13.9865 44.1482 14.8457 43.2891C15.7049 42.4299 16.8702 41.9473 18.0853 41.9473H233.531C234.746 41.9473 235.912 42.4299 236.771 43.2891C237.63 44.1482 238.113 45.3135 238.113 46.5285V191.794Z" fill="url(#paint0_linear)"/>
</g>
<path d="M21.1676 44.5859H230.435C231.65 44.5859 232.815 45.0686 233.674 45.9277C234.533 46.7869 235.016 47.9521 235.016 49.1672V191.794H16.5977V49.1701C16.597 47.9565 17.0777 46.7923 17.9345 45.9329C18.7913 45.0734 19.9541 44.589 21.1676 44.5859Z" fill="white"/>
<path d="M227.984 53.1509H23.6295V187.181H227.984V53.1509Z" fill="#F5F5F5"/>
<path opacity="0.8" d="M227.9 59.6572H24.4124V180.242H227.9V59.6572Z" fill="#E0E0E0"/>
<path d="M227.9 53.2495H24.4124V59.6574H227.9V53.2495Z" fill="#F5F5F5"/>
<path d="M28.7764 57.912C29.6348 57.912 30.3306 57.2162 30.3306 56.3578C30.3306 55.4995 29.6348 54.8037 28.7764 54.8037C27.918 54.8037 27.2222 55.4995 27.2222 56.3578C27.2222 57.2162 27.918 57.912 28.7764 57.912Z" fill="#FF5252"/>
<path d="M33.0476 57.912C33.906 57.912 34.6018 57.2162 34.6018 56.3578C34.6018 55.4995 33.906 54.8037 33.0476 54.8037C32.1892 54.8037 31.4934 55.4995 31.4934 56.3578C31.4934 57.2162 32.1892 57.912 33.0476 57.912Z" fill="#FFFF00"/>
<path d="M37.3217 57.912C38.1801 57.912 38.876 57.2162 38.876 56.3578C38.876 55.4995 38.1801 54.8037 37.3217 54.8037C36.4634 54.8037 35.7675 55.4995 35.7675 56.3578C35.7675 57.2162 36.4634 57.912 37.3217 57.912Z" fill="#69F0AE"/>
<g opacity="0.8">
<path opacity="0.8" d="M244.396 201.426C231.893 202.374 17.1719 202.006 9.67039 201.426C-0.165311 196.685 0.0144677 178.291 0.0144677 178.291L98.4875 177.633L98.8181 183.232H140.956L142.603 178.303H251.73C251.73 178.303 253.899 195.166 244.396 201.426Z" fill="url(#paint1_linear)"/>
</g>
<path d="M250.132 179.772H143.134C143.546 180.249 143.812 180.834 143.901 181.458C143.99 182.082 143.897 182.718 143.634 183.291C143.372 183.864 142.95 184.349 142.419 184.689C141.888 185.028 141.27 185.208 140.64 185.206H99.7895C99.1593 185.208 98.5419 185.028 98.0109 184.689C97.48 184.349 97.058 183.864 96.7951 183.291C96.5322 182.718 96.4397 182.082 96.5285 181.458C96.6172 180.834 96.8836 180.249 97.2957 179.772H1.48171C1.48171 179.772 1.31643 195.746 11.0332 199.875C18.4419 200.368 230.539 200.698 242.889 199.875C252.286 194.427 250.132 179.772 250.132 179.772Z" fill="#F5F5F5"/>
<path d="M23.7135 184.548C24.4406 184.548 25.03 183.958 25.03 183.231C25.03 182.504 24.4406 181.915 23.7135 181.915C22.9865 181.915 22.3971 182.504 22.3971 183.231C22.3971 183.958 22.9865 184.548 23.7135 184.548Z" fill="#E0E0E0"/>
<path d="M27.6658 184.548C28.3929 184.548 28.9823 183.958 28.9823 183.231C28.9823 182.504 28.3929 181.915 27.6658 181.915C26.9387 181.915 26.3493 182.504 26.3493 183.231C26.3493 183.958 26.9387 184.548 27.6658 184.548Z" fill="#E0E0E0"/>
<path d="M31.6152 184.548C32.3422 184.548 32.9316 183.958 32.9316 183.231C32.9316 182.504 32.3422 181.915 31.6152 181.915C30.8881 181.915 30.2987 182.504 30.2987 183.231C30.2987 183.958 30.8881 184.548 31.6152 184.548Z" fill="#E0E0E0"/>
<path d="M121.752 108.978H131.086C141.814 108.978 152.103 113.24 159.689 120.825C167.274 128.411 171.536 138.699 171.536 149.426V178.83H81.3011V149.426C81.3011 138.699 85.5629 128.411 93.1488 120.825C100.735 113.24 111.024 108.978 121.752 108.978Z" fill="#CB6BE6"/>
<path d="M126.507 93.2509C149.283 93.2509 167.746 74.7886 167.746 52.0141C167.746 29.2397 149.283 10.7773 126.507 10.7773C103.731 10.7773 85.2679 29.2397 85.2679 52.0141C85.2679 74.7886 103.731 93.2509 126.507 93.2509Z" fill="#333333"/>
<path opacity="0.1" d="M120.435 96.9683H132.362C134.592 96.9683 136.731 97.8542 138.308 99.4311C139.885 101.008 140.771 103.147 140.771 105.377V113.571C140.771 116.981 139.416 120.251 137.005 122.662C134.594 125.073 131.323 126.427 127.913 126.427H124.872C121.462 126.427 118.191 125.073 115.78 122.662C113.369 120.251 112.015 116.981 112.015 113.571V105.388C112.015 103.158 112.9 101.02 114.477 99.4427C116.054 97.8658 118.193 96.9799 120.424 96.9799L120.435 96.9683Z" fill="black"/>
<path d="M112.015 96.1274H140.785V112.742C140.785 116.151 139.431 119.421 137.019 121.832C134.608 124.244 131.338 125.598 127.928 125.598H124.872C121.462 125.598 118.192 124.244 115.78 121.832C113.369 119.421 112.015 116.151 112.015 112.742V96.1274Z" fill="#FDB797"/>
<path opacity="0.1" d="M112.067 100.277C121.339 103.74 131.546 103.768 140.837 100.355V96.8232H112.067V100.277Z" fill="black"/>
<path d="M126.507 102.202C149.283 102.202 167.746 83.7393 167.746 60.9648C167.746 38.1904 149.283 19.728 126.507 19.728C103.731 19.728 85.2679 38.1904 85.2679 60.9648C85.2679 83.7393 103.731 102.202 126.507 102.202Z" fill="#FDB797"/>
<path opacity="0.1" d="M87.0802 46.3688H165.719C165.719 46.3688 159.007 14.6163 129.276 16.6257C99.5459 18.635 87.0802 46.3688 87.0802 46.3688Z" fill="black"/>
<path d="M87.0802 45.3019H165.719C165.719 45.3019 159.007 13.5494 129.276 15.5733C99.5459 17.5971 87.0802 45.3019 87.0802 45.3019Z" fill="#333333"/>
<path d="M86.1204 66.4015C88.2391 66.4015 89.9567 63.1808 89.9567 59.2078C89.9567 55.2349 88.2391 52.0142 86.1204 52.0142C84.0017 52.0142 82.2841 55.2349 82.2841 59.2078C82.2841 63.1808 84.0017 66.4015 86.1204 66.4015Z" fill="#FDB797"/>
<path d="M166.679 66.4015C168.798 66.4015 170.516 63.1808 170.516 59.2078C170.516 55.2349 168.798 52.0142 166.679 52.0142C164.561 52.0142 162.843 55.2349 162.843 59.2078C162.843 63.1808 164.561 66.4015 166.679 66.4015Z" fill="#FDB797"/>
<path d="M93.184 24.2632C94.1264 21.1839 95.8401 18.2409 98.4846 16.4055C100.494 15.0109 102.898 14.3411 105.203 13.5234C108.614 12.3149 111.888 10.7491 114.969 8.85233C118.466 6.698 121.752 4.10294 125.602 2.67928C132.228 0.229194 139.608 1.55427 146.448 3.31137C148.133 3.7434 149.838 4.21312 151.323 5.12356C153.042 6.17608 154.361 7.75922 155.649 9.31045L166.505 22.4046C167.5 23.6021 168.5 24.8141 169.202 26.2059C169.856 27.554 170.274 29.0046 170.437 30.4943C170.727 32.895 170.501 35.4408 169.277 37.5314C167.442 40.6657 163.658 42.2402 160.03 42.3851C156.403 42.5301 152.842 41.4776 149.357 40.457C138.117 37.166 126.739 34.0983 115.082 32.7327C109.297 32.0188 103.46 31.8296 97.6408 32.1673C95.814 32.2861 93.4015 33.1241 92.2909 31.2626C91.3311 29.6476 92.6882 25.8811 93.184 24.2632Z" fill="#333333"/>
<path opacity="0.05" d="M98.966 146.814V178.83" stroke="black" stroke-width="4" stroke-miterlimit="10"/>
<path opacity="0.05" d="M154.593 146.814V178.83" stroke="black" stroke-width="4" stroke-miterlimit="10"/>
<g opacity="0.8">
<path opacity="0.8" d="M261 57.5465H209.252L191.788 72.1079V57.5465H180.145V0H261V57.5465Z" fill="url(#paint2_linear)"/>
</g>
<path d="M259.904 0.68457H181.241V55.7143H259.904V0.68457Z" fill="white"/>
<path d="M252.429 8.77393H190.1V10.4092H252.429V8.77393Z" fill="#E0E0E0"/>
<path d="M232.951 16.1387H190.1V17.774H232.951V16.1387Z" fill="#E0E0E0"/>
<path d="M241.523 23.5005H190.1V25.1358H241.523V23.5005Z" fill="#E0E0E0"/>
<path d="M231.394 30.8652H190.1V32.5006H231.394V30.8652Z" fill="#FEFC09"/>
<path d="M252.429 38.2271H190.1V39.8624H252.429V38.2271Z" fill="#FEFC09"/>
<path d="M252.429 45.5918H190.1V47.2271H252.429V45.5918Z" fill="#E0E0E0"/>
<path d="M194.699 54.644V69.1996L210.708 53.1885L194.699 54.644Z" fill="white"/>
</g>
<defs>
<linearGradient id="paint0_linear" x1="125.808" y1="191.794" x2="125.808" y2="41.9531" gradientUnits="userSpaceOnUse">
<stop stop-color="#808080" stop-opacity="0.25"/>
<stop offset="0.54" stop-color="#808080" stop-opacity="0.12"/>
<stop offset="1" stop-color="#808080" stop-opacity="0.1"/>
</linearGradient>
<linearGradient id="paint1_linear" x1="147222" y1="19636.7" x2="147222" y2="17588" gradientUnits="userSpaceOnUse">
<stop stop-color="#808080" stop-opacity="0.25"/>
<stop offset="0.54" stop-color="#808080" stop-opacity="0.12"/>
<stop offset="1" stop-color="#808080" stop-opacity="0.1"/>
</linearGradient>
<linearGradient id="paint2_linear" x1="61684.6" y1="17932.5" x2="61684.6" y2="0" gradientUnits="userSpaceOnUse">
<stop stop-color="#808080" stop-opacity="0.25"/>
<stop offset="0.54" stop-color="#808080" stop-opacity="0.12"/>
<stop offset="1" stop-color="#808080" stop-opacity="0.1"/>
</linearGradient>
<clipPath id="clip0">
<rect width="261" height="202" fill="white"/>
</clipPath>
</defs>
</svg>
